# Blender v2.80 (sub 75) OBJ File: 'VR_Game_World.blend'
# www.blender.org
mtllib Branch2.mtl
o Branch1_Cylinder.042
v 0.009047 -1.002651 -0.999941
v 0.119658 0.972193 -0.979629
v 0.874168 -1.002243 -0.499534
v 0.972275 0.973823 -0.467413
v 0.874168 -1.002243 0.500466
v 0.972275 0.973823 0.532587
v 0.009047 -1.002651 1.000058
v 0.119658 0.972193 1.020371
v -0.856947 -1.002662 0.500030
v -0.735338 0.968317 0.510552
v -0.856947 -1.002662 -0.499970
v -0.735338 0.968317 -0.489448
v 1.354920 2.852316 -0.316959
v 0.535362 2.860180 -0.867470
v 1.354920 2.852316 0.683041
v 0.535362 2.860180 1.132530
v -0.284099 2.854707 0.586154
v -0.284099 2.854707 -0.413846
v 2.145848 4.569637 -0.005635
v 1.343789 4.628378 -0.579338
v 2.145848 4.569637 0.985146
v 1.343789 4.628379 1.402223
v 0.546847 4.671099 0.824679
v 0.546847 4.671100 -0.166101
v 3.620237 6.331047 0.533328
v 2.871867 6.455702 0.008409
v 3.620238 6.331045 1.440790
v 2.871866 6.455703 1.823334
v 2.129766 6.574481 1.283990
v 2.129766 6.574481 0.376528
v 5.381940 7.802376 1.075227
v 4.733542 7.946120 0.657897
v 5.381939 7.802375 1.846172
v 4.733542 7.946122 2.199787
v 4.088538 8.095230 1.765707
v 4.088537 8.095229 0.994762
v 6.750507 9.022954 1.454399
v 6.226112 9.151855 1.136322
v 6.750507 9.022954 2.076824
v 6.226112 9.151857 2.381172
v 5.702855 9.284657 2.055238
v 5.702855 9.284657 1.432812
v 7.681996 10.227340 1.692764
v 7.260415 10.338879 1.440048
v 7.681997 10.227342 2.195866
v 7.260414 10.338879 2.446252
v 6.838948 10.450852 2.192697
v 6.838949 10.450851 1.689595
v 8.195441 11.597780 1.846026
v 7.883191 11.683548 1.659002
v 8.195443 11.597780 2.219865
v 7.883191 11.683548 2.406680
v 7.570939 11.769323 2.219655
v 7.570939 11.769322 1.845815
v 2.376607 5.730793 0.402690
v 1.255601 7.504992 0.115461
v 2.342980 5.818151 0.855189
v 1.248615 7.520250 0.577235
v 2.010065 5.617581 1.105102
v 0.868972 7.391322 0.806944
v 1.710776 5.329654 0.902516
v 0.496316 7.247135 0.574878
v 1.744403 5.242295 0.450017
v 0.503302 7.231876 0.113104
v 2.077318 5.442864 0.200104
v 0.882945 7.360804 -0.116605
v 0.946222 8.801956 0.628584
v 0.952056 8.865159 0.291724
v 0.647048 8.789249 0.795428
v 0.353709 8.839746 0.625412
v 0.359543 8.902948 0.288552
v 0.658717 8.915655 0.121709
v 1.192145 9.902954 0.910252
v 1.205119 9.967494 0.726724
v 1.030349 9.935867 1.013960
v 0.881528 10.033319 0.934139
v 0.894502 10.097860 0.750611
v 1.056297 10.064947 0.646904
v 1.091680 10.109086 0.871529
v 0.104300 3.249810 -0.258398
v -1.612263 4.062492 0.071549
v 0.263087 3.429056 0.136791
v -1.412431 4.208734 0.460015
v 0.256065 3.177070 0.524052
v -1.473764 3.981531 0.855579
v 0.090256 2.745837 0.516123
v -1.734930 3.608087 0.862676
v -0.068531 2.566591 0.120933
v -1.934762 3.461846 0.474209
v -0.061509 2.818577 -0.266327
v -1.873429 3.689048 0.078646
v -3.015493 5.552481 0.864161
v -3.212101 5.521204 0.585109
v -3.135537 5.455271 1.170173
v -3.452188 5.326786 1.197132
v -3.648796 5.295510 0.918080
v -3.528752 5.392720 0.612068
v -3.259170 6.681892 0.994772
v -3.374650 6.695052 0.838224
v -3.337483 6.667137 1.172720
v -3.531275 6.665539 1.194121
v -3.646756 6.678699 1.037573
v -3.568444 6.693455 0.859624
v -3.453451 6.805726 1.026444
v -2.268298 4.600289 0.830577
v -2.390956 4.690053 0.592135
v -2.353310 4.550595 0.349338
v -2.193006 4.321374 0.344981
v -2.070348 4.231611 0.583423
v -2.107994 4.371068 0.826221
v -1.697678 5.457613 0.406141
v -1.576892 5.417397 0.573662
v -1.652598 5.369663 0.220392
v -1.486733 5.241498 0.202165
v -1.365947 5.201283 0.369685
v -1.411027 5.289232 0.555434
v -1.257423 6.208083 0.263900
v -1.186541 6.216161 0.359990
v -1.209355 6.199026 0.154675
v -1.090404 6.198046 0.141539
v -1.019522 6.206123 0.237629
v -1.067590 6.215180 0.346854
v -1.138173 6.284093 0.244460
v 5.315311 8.818820 1.290246
v 4.550127 10.064418 1.563284
v 5.473429 8.880151 1.566793
v 4.727391 10.075130 1.834768
v 5.377817 8.739339 1.842965
v 4.596652 9.984614 2.117531
v 5.124088 8.537196 1.842590
v 4.288648 9.883387 2.128810
v 4.965970 8.475864 1.566044
v 4.111383 9.872674 1.857326
v 5.061582 8.616677 1.289872
v 4.242123 9.963189 1.574564
v 4.571570 10.974968 1.983396
v 4.442687 11.019340 1.785061
v 4.462976 10.966046 2.197974
v 4.225498 11.001498 2.214219
v 4.096615 11.045871 2.015884
v 4.205210 11.054791 1.801306
v 4.825296 11.747936 2.050750
v 4.760779 11.793247 1.938847
v 4.771860 11.771043 2.174639
v 4.653906 11.839460 2.186625
v 4.589388 11.884772 2.074722
v 4.642825 11.861666 1.950833
v 4.751623 11.892653 2.067665
v 4.317335 9.910228 2.102851
v 4.274584 9.748704 1.872084
v 4.361629 9.839582 1.616477
v 4.491426 10.091985 1.591636
v 4.534177 10.253508 1.822403
v 4.447132 10.162630 2.078010
v 3.511199 10.003698 1.760266
v 3.497105 10.128424 1.930310
v 3.526745 10.089103 1.567562
v 3.528196 10.299232 1.544903
v 3.514102 10.423959 1.714947
v 3.498556 10.338554 1.907651
v 2.804054 9.889016 1.732426
v 2.777398 9.955103 1.829247
v 2.787261 9.934230 1.622308
v 2.743815 10.045530 1.609011
v 2.717160 10.111617 1.705832
v 2.733952 10.066403 1.815950
v 2.688211 9.972389 1.718650
v 7.020379 9.780745 1.754210
v 6.321778 10.505365 1.340820
v 7.109222 9.961166 1.880294
v 6.429982 10.657640 1.487267
v 7.035892 9.997737 2.103067
v 6.325695 10.720917 1.690892
v 6.873717 9.853885 2.199756
v 6.113203 10.631918 1.748068
v 6.784873 9.673463 2.073672
v 6.004999 10.479643 1.601621
v 6.858203 9.636892 1.850899
v 6.109287 10.416366 1.397997
v 6.214911 11.207563 1.156138
v 6.130939 11.125449 1.024941
v 6.122858 11.287699 1.283069
v 5.946834 11.285719 1.278802
v 5.862863 11.203605 1.147605
v 5.954915 11.123469 1.020675
v 6.313802 11.699881 0.832702
v 6.270253 11.665844 0.749175
v 6.264428 11.763014 0.892769
v 6.171504 11.792110 0.869310
v 6.127955 11.758074 0.785784
v 6.177330 11.694941 0.725716
v 6.244631 11.779147 0.776102
vt 0.953521 0.527550
vt 0.954781 0.582741
vt 0.943544 0.587308
vt 0.942655 0.530524
vt 0.931769 0.588668
vt 0.931935 0.531604
vt 0.920369 0.585662
vt 0.921195 0.529661
vt 0.909414 0.581139
vt 0.910255 0.526942
vt 0.943699 0.645968
vt 0.931458 0.649038
vt 0.898662 0.579913
vt 0.899453 0.525779
vt 0.964338 0.524711
vt 0.965462 0.579121
vt 0.932173 0.960419
vt 0.924145 0.962226
vt 0.926594 0.954517
vt 0.929214 0.954989
vt 0.920323 0.643055
vt 0.931145 0.710735
vt 0.920779 0.702059
vt 0.909553 0.634405
vt 0.898662 0.632863
vt 0.954720 0.637269
vt 0.964768 0.631979
vt 0.943216 0.705928
vt 0.941684 0.778254
vt 0.931173 0.782977
vt 0.953611 0.692930
vt 0.963271 0.686513
vt 0.910669 0.689884
vt 0.899825 0.687743
vt 0.950670 0.763772
vt 0.946694 0.834226
vt 0.939608 0.845685
vt 0.913404 0.759707
vt 0.903330 0.757837
vt 0.922268 0.772930
vt 0.959784 0.756846
vt 0.908640 0.828807
vt 0.917145 0.829336
vt 0.920402 0.883532
vt 0.913764 0.884409
vt 0.954606 0.828453
vt 0.924387 0.840202
vt 0.931529 0.848762
vt 0.943443 0.887167
vt 0.949795 0.884085
vt 0.945741 0.927211
vt 0.940927 0.926662
vt 0.931862 0.895261
vt 0.926227 0.890025
vt 0.937818 0.893717
vt 0.918135 0.927662
vt 0.923003 0.925308
vt 0.927782 0.927045
vt 0.936368 0.928379
vt 0.932093 0.928933
vt 0.934924 0.954042
vt 0.937470 0.955222
vt 0.940155 0.961762
vt 0.909394 0.544056
vt 0.911398 0.741205
vt 0.901470 0.747732
vt 0.899067 0.549243
vt 0.961012 0.553993
vt 0.956444 0.752182
vt 0.946535 0.744495
vt 0.950709 0.547319
vt 0.937435 0.739847
vt 0.940717 0.538556
vt 0.929016 0.737831
vt 0.930064 0.533487
vt 0.934043 0.858088
vt 0.928369 0.855684
vt 0.920550 0.738046
vt 0.919409 0.536870
vt 0.922664 0.857447
vt 0.928053 0.936228
vt 0.925628 0.938060
vt 0.946705 0.874325
vt 0.939985 0.863679
vt 0.916595 0.862413
vt 0.909695 0.872230
vt 0.932809 0.944609
vt 0.930472 0.938347
vt 0.923249 0.944124
vt 0.920946 0.958980
vt 0.935035 0.959505
vt 0.927993 0.958833
vt 0.911002 0.545565
vt 0.912604 0.703485
vt 0.903899 0.706091
vt 0.901981 0.547672
vt 0.955986 0.550971
vt 0.953001 0.708633
vt 0.944451 0.703757
vt 0.947219 0.545361
vt 0.936542 0.701452
vt 0.938454 0.539842
vt 0.928431 0.701315
vt 0.929236 0.537906
vt 0.932990 0.873077
vt 0.927937 0.872528
vt 0.920450 0.702102
vt 0.919859 0.540911
vt 0.922862 0.872949
vt 0.927783 0.943865
vt 0.925499 0.945620
vt 0.944841 0.883232
vt 0.938546 0.875480
vt 0.917220 0.875134
vt 0.910797 0.882350
vt 0.932274 0.951386
vt 0.930068 0.945737
vt 0.923274 0.951231
vt 0.921058 0.965209
vt 0.934465 0.965253
vt 0.927765 0.965284
vt 0.933137 0.552119
vt 0.945880 0.565281
vt 0.938103 0.774322
vt 0.929765 0.769920
vt 0.921244 0.772921
vt 0.926723 0.909814
vt 0.923865 0.910456
vt 0.957191 0.590648
vt 0.968418 0.613214
vt 0.953913 0.803240
vt 0.945848 0.786196
vt 0.920119 0.558235
vt 0.896156 0.590727
vt 0.908091 0.576305
vt 0.912690 0.779890
vt 0.904375 0.787456
vt 0.932957 0.917275
vt 0.929660 0.911556
vt 0.920635 0.914104
vt 0.916498 0.931663
vt 0.936272 0.933042
vt 0.926467 0.941019
vt 0.910469 0.531183
vt 0.912472 0.728261
vt 0.902547 0.734786
vt 0.900145 0.536369
vt 0.962068 0.541117
vt 0.957501 0.739234
vt 0.947596 0.731550
vt 0.951768 0.534445
vt 0.938499 0.726904
vt 0.941780 0.525685
vt 0.930083 0.724889
vt 0.931131 0.520618
vt 0.935108 0.845102
vt 0.929437 0.842699
vt 0.921620 0.725104
vt 0.920479 0.524000
vt 0.923734 0.844461
vt 0.929120 0.923214
vt 0.926696 0.925045
vt 0.947766 0.861333
vt 0.941048 0.850691
vt 0.917667 0.849426
vt 0.910770 0.859239
vt 0.933875 0.931592
vt 0.931539 0.925332
vt 0.924318 0.931107
vt 0.922016 0.945958
vt 0.936100 0.946483
vt 0.929061 0.945811
vt 0.932920 0.529744
vt 0.945023 0.549275
vt 0.937989 0.772425
vt 0.931439 0.764975
vt 0.924822 0.766305
vt 0.930658 0.901297
vt 0.927910 0.903337
vt 0.955876 0.587217
vt 0.965942 0.624155
vt 0.952050 0.809289
vt 0.944768 0.786492
vt 0.920680 0.537859
vt 0.899240 0.590672
vt 0.909579 0.564755
vt 0.917836 0.773999
vt 0.910241 0.789613
vt 0.935967 0.917474
vt 0.933380 0.905943
vt 0.925214 0.912475
vt 0.922603 0.936018
vt 0.938342 0.943045
vt 0.930478 0.938472
vt 0.911893 0.553568
vt 0.913700 0.731295
vt 0.904750 0.737179
vt 0.902583 0.558244
vt 0.958426 0.562526
vt 0.954308 0.741191
vt 0.945376 0.734261
vt 0.949138 0.556509
vt 0.937172 0.730071
vt 0.940130 0.548609
vt 0.929582 0.728253
vt 0.930527 0.544040
vt 0.934114 0.836663
vt 0.928999 0.834497
vt 0.921950 0.728448
vt 0.920921 0.547090
vt 0.923856 0.836086
vt 0.928714 0.907107
vt 0.926528 0.908758
vt 0.945529 0.851301
vt 0.939470 0.841704
vt 0.918385 0.840563
vt 0.912165 0.849413
vt 0.933002 0.914661
vt 0.930895 0.909016
vt 0.924383 0.914224
vt 0.922307 0.927617
vt 0.935008 0.928090
vt 0.928660 0.927485
vn -0.0127 0.0129 -0.9998
vn -0.0095 0.0417 -0.9991
vn 0.8582 -0.0895 -0.5055
vn 0.8614 -0.0370 -0.5065
vn 0.8542 -0.1331 0.5027
vn 0.8627 -0.0504 0.5033
vn -0.0430 -0.0205 0.9989
vn -0.0225 -0.0075 0.9997
vn -0.8726 0.1152 0.4747
vn -0.8721 0.0492 0.4868
vn 0.8413 -0.2173 -0.4949
vn 0.8029 -0.3327 0.4947
vn -0.8599 0.1373 -0.4916
vn -0.8683 0.0566 -0.4928
vn 0.2649 0.9643 -0.0000
vn -0.4018 0.8414 -0.3614
vn -0.4142 0.8202 0.3946
vn -0.0869 -0.0589 0.9945
vn 0.6860 -0.5517 0.4743
vn -0.1316 -0.0781 0.9882
vn -0.8555 0.2527 0.4519
vn -0.8145 0.3149 -0.4873
vn 0.0165 0.1139 -0.9934
vn 0.7869 -0.3824 -0.4842
vn 0.6965 -0.5371 -0.4757
vn 0.5610 -0.6964 0.4475
vn 0.0672 0.2050 -0.9764
vn -0.7167 0.5241 -0.4600
vn -0.7968 0.4200 0.4344
vn 0.1284 0.2481 -0.9602
vn 0.1463 0.2134 -0.9659
vn 0.6512 -0.5907 -0.4764
vn -0.6849 0.5859 0.4332
vn -0.5698 0.7071 -0.4187
vn -0.1310 -0.0785 0.9883
vn -0.4742 0.7832 -0.4022
vn -0.5980 0.6633 0.4499
vn -0.6123 0.6278 0.4806
vn -0.5181 0.7402 -0.4285
vn -0.0869 -0.0978 0.9914
vn 0.5385 -0.7180 0.4409
vn 0.1204 0.1644 -0.9790
vn -0.6555 0.5846 -0.4782
vn 0.0965 0.1234 -0.9877
vn 0.6257 -0.6310 0.4587
vn -0.0283 -0.0955 0.9950
vn 0.6980 -0.5327 -0.4786
vn -0.7012 0.4958 0.5124
vn 0.0265 -0.0452 0.9986
vn 0.7957 -0.3746 -0.4759
vn 0.7593 -0.4390 0.4803
vn 0.2164 0.6265 -0.7488
vn 0.8132 -0.3134 0.4904
vn 0.0546 0.0040 0.9985
vn 0.8462 -0.2653 -0.4621
vn 0.7457 0.3832 -0.5450
vn 0.7745 0.3119 -0.5504
vn 0.7857 0.3607 0.5025
vn 0.7081 0.5299 0.4666
vn -0.0883 0.0488 0.9949
vn -0.0723 0.1210 0.9900
vn -0.8541 -0.2606 0.4502
vn -0.7726 -0.4051 0.4888
vn -0.8172 -0.2847 -0.5011
vn -0.7111 -0.5241 -0.4686
vn -0.8872 0.0746 0.4552
vn -0.8516 0.2406 -0.4658
vn -0.0488 -0.0177 -0.9987
vn 0.0157 -0.1528 -0.9881
vn -0.0525 0.2790 -0.9588
vn -0.5324 0.8160 -0.2252
vn 0.1994 0.6972 -0.6886
vn 0.8573 -0.0621 0.5111
vn -0.0843 -0.0799 0.9932
vn 0.8320 0.1378 -0.5373
vn 0.1129 0.1477 0.9826
vn -0.5808 0.5475 0.6024
vn 0.9004 0.2967 -0.3182
vn 0.8547 0.0199 0.5187
vn 0.3859 0.8619 0.3289
vn 0.0779 0.5139 -0.8543
vn 0.1090 0.4824 -0.8691
vn 0.5373 0.8434 -0.0070
vn 0.4267 0.9042 0.0216
vn 0.3749 0.3221 0.8693
vn 0.3353 0.3639 0.8690
vn -0.1965 -0.5068 0.8394
vn -0.0940 -0.5341 0.8402
vn -0.5882 -0.8086 0.0133
vn -0.4304 -0.9026 0.0054
vn -0.4219 -0.2698 0.8656
vn -0.9228 -0.3743 0.0917
vn -0.4527 -0.3479 -0.8210
vn -0.3561 -0.4074 -0.8409
vn -0.6452 -0.1091 -0.7562
vn -0.8997 0.4128 0.1420
vn -0.5578 0.5070 -0.6571
vn 0.8438 0.5342 -0.0521
vn 0.4440 0.1642 0.8808
vn 0.2068 0.3446 -0.9157
vn 0.4966 0.4338 0.7518
vn -0.3832 0.3773 0.8431
vn 0.3226 0.5634 -0.7606
vn 0.8497 0.5245 -0.0537
vn -0.0007 0.9966 0.0826
vn 0.7989 -0.5952 -0.0868
vn 0.3396 -0.3946 -0.8538
vn 0.3499 -0.2987 -0.8879
vn 0.8717 -0.4785 -0.1056
vn 0.6279 -0.1470 0.7643
vn 0.9503 0.2662 -0.1613
vn 0.6355 0.4046 0.6577
vn -0.4422 0.2386 -0.8646
vn -0.7326 0.6783 0.0575
vn -0.7978 0.5980 0.0766
vn -0.4943 0.2447 -0.8341
vn 0.6163 -0.2488 0.7472
vn -0.1452 0.4048 0.9028
vn -0.2160 0.3967 0.8922
vn -0.4326 0.4734 -0.7673
vn 0.4202 0.2747 -0.8648
vn -0.2247 0.6074 0.7619
vn -0.7478 0.6624 0.0448
vn 0.0007 0.9966 -0.0826
vn 0.3133 0.3832 -0.8689
vn 0.3342 0.3119 -0.8894
vn 0.9324 0.3607 -0.0229
vn 0.8480 0.5299 -0.0093
vn 0.4833 0.0488 0.8741
vn 0.4938 0.1210 0.8611
vn -0.4562 -0.2606 0.8509
vn -0.3670 -0.4051 0.8374
vn -0.9577 -0.2847 0.0417
vn -0.8516 -0.5241 0.0093
vn -0.4808 0.0746 0.8736
vn -0.9664 0.2406 0.0902
vn -0.5990 -0.0177 -0.8005
vn -0.5397 -0.1528 -0.8279
vn -0.5799 0.2790 -0.7654
vn -0.5673 0.8160 0.1111
vn -0.2198 0.6972 -0.6823
vn 0.9965 -0.0621 -0.0559
vn 0.4857 -0.0799 0.8705
vn 0.3892 0.1378 -0.9108
vn 0.6431 0.1477 0.7514
vn -0.1445 0.5475 0.8243
vn 0.5684 0.2967 -0.7674
vn 0.9986 0.0199 -0.0481
vn 0.5039 0.8619 0.0568
vn 0.1737 0.9781 -0.1145
vn 0.1383 0.4508 -0.8818
vn -0.0313 0.4517 -0.8916
vn -0.0892 0.9880 -0.1261
vn -0.1554 0.6465 0.7469
vn -0.7205 0.6845 -0.1110
vn -0.6277 0.3542 0.6932
vn -0.1075 -0.5276 -0.8427
vn -0.3249 -0.9410 0.0949
vn -0.0929 -0.9908 0.0987
vn -0.0304 -0.5262 -0.8498
vn -0.0107 0.6663 0.7456
vn -0.2690 -0.2957 0.9166
vn -0.1625 -0.3262 0.9312
vn -0.2752 -0.6408 -0.7167
vn -0.5489 0.1967 -0.8124
vn -0.3528 -0.4835 0.8011
vn -0.1745 -0.9802 0.0935
vn -0.9318 -0.3629 -0.0071
vn 0.3361 -0.2006 -0.9202
vn 0.3685 -0.2642 -0.8913
vn 0.8705 0.4166 -0.2622
vn 0.7622 0.5397 -0.3575
vn 0.3879 0.6663 0.6369
vn 0.3894 0.7148 0.5808
vn -0.4924 0.2586 0.8310
vn -0.3829 0.1552 0.9106
vn -0.9079 -0.3512 0.2290
vn -0.7666 -0.5359 0.3539
vn -0.5660 0.5238 0.6367
vn -0.9948 0.0774 -0.0661
vn -0.5133 -0.6159 -0.5976
vn -0.4332 -0.7259 -0.5343
vn -0.5393 -0.3649 -0.7589
vn -0.6842 0.5952 -0.4214
vn -0.2510 0.0657 -0.9658
vn 0.9962 0.0850 -0.0209
vn 0.4087 0.5665 0.7156
vn 0.4492 -0.4009 -0.7984
vn 0.5431 0.6914 0.4765
vn -0.2963 0.9090 0.2931
vn 0.5901 -0.1601 -0.7913
vn 0.9860 0.1527 -0.0669
vn 0.3702 0.7759 -0.5108
usemtl MainPlant.001
s 1
f 1/1/1 2/2/2 4/3/3 3/4/4
f 3/4/4 4/3/3 6/5/5 5/6/6
f 5/6/6 6/5/5 8/7/7 7/8/8
f 7/8/8 8/7/7 10/9/9 9/10/10
f 6/5/5 4/3/3 13/11/11 15/12/12
f 9/10/10 10/9/9 12/13/13 11/14/14
f 11/15/14 12/16/13 2/2/2 1/1/1
f 51/17/15 54/18/16 53/19/17 52/20/15
f 16/21/18 15/12/12 21/22/19 22/23/20
f 12/13/13 10/9/9 17/24/21 18/25/22
f 4/3/3 2/2/2 14/26/23 13/11/11
f 8/7/7 6/5/5 15/12/12 16/21/18
f 2/2/2 12/16/13 18/27/22 14/26/23
f 10/9/9 8/7/7 16/21/18 17/24/21
f 21/22/19 19/28/24 25/29/25 27/30/26
f 13/11/11 14/26/23 20/31/27 19/28/24
f 14/26/23 18/27/22 24/32/28 20/31/27
f 17/24/21 16/21/18 22/23/20 23/33/29
f 15/12/12 13/11/11 19/28/24 21/22/19
f 18/25/22 17/24/21 23/33/29 24/34/28
f 25/29/25 26/35/30 32/36/31 31/37/32
f 24/34/28 23/33/29 29/38/33 30/39/34
f 22/23/20 21/22/19 27/30/26 28/40/35
f 19/28/24 20/31/27 26/35/30 25/29/25
f 20/31/27 24/32/28 30/41/34 26/35/30
f 23/33/29 22/23/20 28/40/35 29/38/33
f 36/42/36 35/43/37 41/44/38 42/45/39
f 26/35/30 30/41/34 36/46/36 32/36/31
f 29/38/33 28/40/35 34/47/40 35/43/37
f 27/30/26 25/29/25 31/37/32 33/48/41
f 30/39/34 29/38/33 35/43/37 36/42/36
f 28/40/35 27/30/26 33/48/41 34/47/40
f 38/49/42 42/50/39 48/51/43 44/52/44
f 34/47/40 33/48/41 39/53/45 40/54/46
f 31/37/32 32/36/31 38/49/42 37/55/47
f 32/36/31 36/46/36 42/50/39 38/49/42
f 35/43/37 34/47/40 40/54/46 41/44/38
f 33/48/41 31/37/32 37/55/47 39/53/45
f 48/56/43 47/57/48 53/19/17 54/18/16
f 41/44/38 40/54/46 46/58/49 47/57/48
f 39/53/45 37/55/47 43/59/50 45/60/51
f 42/45/39 41/44/38 47/57/48 48/56/43
f 40/54/46 39/53/45 45/60/51 46/58/49
f 37/55/47 38/49/42 44/52/44 43/59/50
f 49/61/15 50/62/52 54/63/16 51/17/15
f 46/58/49 45/60/51 51/17/53 52/20/54
f 43/59/50 44/52/44 50/62/52 49/61/55
f 44/52/44 48/51/43 54/63/16 50/62/52
f 47/57/48 46/58/49 52/20/54 53/19/17
f 45/60/51 43/59/50 49/61/55 51/17/53
f 55/64/56 56/65/57 58/66/58 57/67/59
f 57/68/59 58/69/58 60/70/60 59/71/61
f 59/71/61 60/70/60 62/72/62 61/73/63
f 61/73/63 62/72/62 64/74/64 63/75/65
f 64/74/64 62/72/62 70/76/66 71/77/67
f 63/75/65 64/74/64 66/78/68 65/79/69
f 65/79/69 66/78/68 56/65/57 55/64/56
f 72/80/70 71/77/67 77/81/71 78/82/72
f 60/70/60 58/69/58 67/83/73 69/84/74
f 66/78/68 64/74/64 71/77/67 72/80/70
f 58/66/58 56/65/57 68/85/75 67/86/73
f 62/72/62 60/70/60 69/84/74 70/76/66
f 56/65/57 66/78/68 72/80/70 68/85/75
f 70/76/66 69/84/74 75/87/76 76/88/77
f 67/86/73 68/85/75 74/89/78 73/90/79
f 68/85/75 72/80/70 78/82/72 74/89/78
f 71/77/67 70/76/66 76/88/77 77/81/71
f 69/84/74 67/83/73 73/91/79 75/87/76
f 79/92/80 78/82/72 77/81/71
f 73/91/79 79/92/80 75/87/76
f 74/89/78 78/82/72 79/92/80
f 77/81/71 76/88/77 79/92/80
f 75/87/76 79/92/80 76/88/77
f 79/92/80 73/90/79 74/89/78
f 80/93/81 81/94/82 83/95/83 82/96/84
f 82/97/84 83/98/83 85/99/85 84/100/86
f 84/100/86 85/99/85 87/101/87 86/102/88
f 86/102/88 87/101/87 89/103/89 88/104/90
f 89/103/89 87/101/87 95/105/91 96/106/92
f 88/104/90 89/103/89 91/107/93 90/108/94
f 90/108/94 91/107/93 81/94/82 80/93/81
f 97/109/95 96/106/92 102/110/96 103/111/97
f 85/99/85 83/98/83 92/112/98 94/113/99
f 91/107/93 89/103/89 96/106/92 97/109/95
f 83/95/83 81/94/82 93/114/100 92/115/98
f 87/101/87 85/99/85 94/113/99 95/105/91
f 81/94/82 91/107/93 97/109/95 93/114/100
f 95/105/91 94/113/99 100/116/101 101/117/102
f 92/115/98 93/114/100 99/118/103 98/119/104
f 93/114/100 97/109/95 103/111/97 99/118/103
f 96/106/92 95/105/91 101/117/102 102/110/96
f 94/113/99 92/112/98 98/120/104 100/116/101
f 104/121/105 103/111/97 102/110/96
f 98/120/104 104/121/105 100/116/101
f 99/118/103 103/111/97 104/121/105
f 102/110/96 101/117/102 104/121/105
f 100/116/101 104/121/105 101/117/102
f 104/121/105 98/119/104 99/118/103
f 109/122/106 108/123/107 114/124/108 115/125/109
f 116/126/110 115/125/109 121/127/111 122/128/112
f 107/129/113 106/130/114 111/131/115 113/132/116
f 110/133/117 109/122/106 115/125/109 116/126/110
f 106/134/114 105/135/118 112/136/119 111/137/115
f 108/123/107 107/129/113 113/132/116 114/124/108
f 105/135/118 110/133/117 116/126/110 112/136/119
f 114/124/108 113/132/116 119/138/120 120/139/121
f 111/137/115 112/136/119 118/140/122 117/141/123
f 112/136/119 116/126/110 122/128/112 118/140/122
f 115/125/109 114/124/108 120/139/121 121/127/111
f 113/132/116 111/131/115 117/142/123 119/138/120
f 123/143/124 122/128/112 121/127/111
f 117/142/123 123/143/124 119/138/120
f 118/140/122 122/128/112 123/143/124
f 121/127/111 120/139/121 123/143/124
f 119/138/120 123/143/124 120/139/121
f 123/143/124 117/141/123 118/140/122
f 124/144/125 125/145/126 127/146/127 126/147/128
f 126/148/128 127/149/127 129/150/129 128/151/130
f 128/151/130 129/150/129 131/152/131 130/153/132
f 130/153/132 131/152/131 133/154/133 132/155/134
f 133/154/133 131/152/131 139/156/135 140/157/136
f 132/155/134 133/154/133 135/158/137 134/159/138
f 134/159/138 135/158/137 125/145/126 124/144/125
f 141/160/139 140/157/136 146/161/140 147/162/141
f 129/150/129 127/149/127 136/163/142 138/164/143
f 135/158/137 133/154/133 140/157/136 141/160/139
f 127/146/127 125/145/126 137/165/144 136/166/142
f 131/152/131 129/150/129 138/164/143 139/156/135
f 125/145/126 135/158/137 141/160/139 137/165/144
f 139/156/135 138/164/143 144/167/145 145/168/146
f 136/166/142 137/165/144 143/169/147 142/170/148
f 137/165/144 141/160/139 147/162/141 143/169/147
f 140/157/136 139/156/135 145/168/146 146/161/140
f 138/164/143 136/163/142 142/171/148 144/167/145
f 148/172/149 147/162/141 146/161/140
f 142/171/148 148/172/149 144/167/145
f 143/169/147 147/162/141 148/172/149
f 146/161/140 145/168/146 148/172/149
f 144/167/145 148/172/149 145/168/146
f 148/172/149 142/170/148 143/169/147
f 153/173/150 152/174/151 158/175/152 159/176/153
f 160/177/154 159/176/153 165/178/155 166/179/156
f 151/180/157 150/181/158 155/182/159 157/183/160
f 154/184/161 153/173/150 159/176/153 160/177/154
f 150/185/158 149/186/162 156/187/163 155/188/159
f 152/174/151 151/180/157 157/183/160 158/175/152
f 149/186/162 154/184/161 160/177/154 156/187/163
f 158/175/152 157/183/160 163/189/164 164/190/165
f 155/188/159 156/187/163 162/191/166 161/192/167
f 156/187/163 160/177/154 166/179/156 162/191/166
f 159/176/153 158/175/152 164/190/165 165/178/155
f 157/183/160 155/182/159 161/193/167 163/189/164
f 167/194/168 166/179/156 165/178/155
f 161/193/167 167/194/168 163/189/164
f 162/191/166 166/179/156 167/194/168
f 165/178/155 164/190/165 167/194/168
f 163/189/164 167/194/168 164/190/165
f 167/194/168 161/192/167 162/191/166
f 168/195/169 169/196/170 171/197/171 170/198/172
f 170/199/172 171/200/171 173/201/173 172/202/174
f 172/202/174 173/201/173 175/203/175 174/204/176
f 174/204/176 175/203/175 177/205/177 176/206/178
f 177/205/177 175/203/175 183/207/179 184/208/180
f 176/206/178 177/205/177 179/209/181 178/210/182
f 178/210/182 179/209/181 169/196/170 168/195/169
f 185/211/183 184/208/180 190/212/184 191/213/185
f 173/201/173 171/200/171 180/214/186 182/215/187
f 179/209/181 177/205/177 184/208/180 185/211/183
f 171/197/171 169/196/170 181/216/188 180/217/186
f 175/203/175 173/201/173 182/215/187 183/207/179
f 169/196/170 179/209/181 185/211/183 181/216/188
f 183/207/179 182/215/187 188/218/189 189/219/190
f 180/217/186 181/216/188 187/220/191 186/221/192
f 181/216/188 185/211/183 191/213/185 187/220/191
f 184/208/180 183/207/179 189/219/190 190/212/184
f 182/215/187 180/214/186 186/222/192 188/218/189
f 192/223/193 191/213/185 190/212/184
f 186/222/192 192/223/193 188/218/189
f 187/220/191 191/213/185 192/223/193
f 190/212/184 189/219/190 192/223/193
f 188/218/189 192/223/193 189/219/190
f 192/223/193 186/221/192 187/220/191
