# Blender v2.80 (sub 75) OBJ File: 'VR_Game_World.blend'
# www.blender.org
mtllib Branch1.mtl
o Branch4_Cylinder.048
v 0.059066 -1.002651 1.052668
v -0.051545 0.972193 1.032356
v -0.806056 -1.002244 0.552261
v -0.904162 0.973823 0.520139
v -0.806056 -1.002244 -0.447739
v -0.904162 0.973823 -0.479860
v 0.059066 -1.002651 -0.947332
v -0.051546 0.972193 -0.967644
v 0.925059 -1.002662 -0.447304
v 0.803451 0.968317 -0.457826
v 0.925059 -1.002662 0.552696
v 0.803451 0.968317 0.542174
v -1.286808 2.852316 0.369685
v -0.467249 2.860180 0.920196
v -1.286808 2.852316 -0.630315
v -0.467249 2.860180 -1.079804
v 0.352211 2.854707 -0.533428
v 0.352212 2.854707 0.466572
v -2.077735 4.569637 0.058361
v -1.275676 4.628378 0.632064
v -2.077735 4.569637 -0.932419
v -1.275677 4.628379 -1.349496
v -0.478734 4.671099 -0.771953
v -0.478734 4.671100 0.218827
v -3.552125 6.331047 -0.480601
v -2.803754 6.455702 0.044317
v -3.552125 6.331045 -1.388064
v -2.803754 6.455703 -1.770608
v -2.061654 6.574481 -1.231264
v -2.061653 6.574481 -0.323801
v -5.313828 7.802376 -1.022501
v -4.665430 7.946120 -0.605170
v -5.313827 7.802375 -1.793446
v -4.665430 7.946122 -2.147060
v -4.020425 8.095230 -1.712981
v -4.020425 8.095229 -0.942036
v -6.682395 9.022954 -1.401672
v -6.158000 9.151855 -1.083595
v -6.682395 9.022954 -2.024097
v -6.158000 9.151857 -2.328445
v -5.634743 9.284657 -2.002511
v -5.634742 9.284657 -1.380085
v -7.613883 10.227340 -1.640037
v -7.192302 10.338879 -1.387321
v -7.613885 10.227342 -2.143139
v -7.192301 10.338879 -2.393525
v -6.770836 10.450852 -2.139970
v -6.770837 10.450851 -1.636868
v -8.127329 11.597780 -1.793299
v -7.815078 11.683548 -1.606275
v -8.127331 11.597780 -2.167138
v -7.815078 11.683548 -2.353953
v -7.502827 11.769323 -2.166928
v -7.502826 11.769322 -1.793088
v -2.308495 5.730793 -0.349964
v -1.187489 7.504992 -0.062735
v -2.274868 5.818151 -0.802462
v -1.180502 7.520250 -0.524509
v -1.941952 5.617581 -1.052375
v -0.800860 7.391322 -0.754218
v -1.642663 5.329654 -0.849789
v -0.428203 7.247135 -0.522152
v -1.676290 5.242295 -0.397290
v -0.435190 7.231876 -0.060377
v -2.009206 5.442864 -0.147378
v -0.814833 7.360804 0.169331
v -0.878110 8.801956 -0.575858
v -0.883944 8.865159 -0.238998
v -0.578936 8.789249 -0.742702
v -0.285596 8.839746 -0.572686
v -0.291431 8.902948 -0.235826
v -0.590604 8.915655 -0.068982
v -1.124032 9.902954 -0.857526
v -1.137006 9.967494 -0.673998
v -0.962237 9.935867 -0.961233
v -0.813416 10.033319 -0.881413
v -0.826390 10.097860 -0.697885
v -0.988185 10.064947 -0.594178
v -1.023568 10.109086 -0.818803
v -0.036188 3.249810 0.311124
v 1.680375 4.062492 -0.018823
v -0.194975 3.429057 -0.084065
v 1.480544 4.208734 -0.407289
v -0.187953 3.177070 -0.471326
v 1.541876 3.981531 -0.802853
v -0.022144 2.745837 -0.463397
v 1.803041 3.608087 -0.809950
v 0.136643 2.566591 -0.068207
v 2.002874 3.461846 -0.421483
v 0.129621 2.818577 0.319053
v 1.941541 3.689048 -0.025920
v 3.083605 5.552481 -0.811435
v 3.280213 5.521204 -0.532383
v 3.203649 5.455271 -1.117447
v 3.520300 5.326786 -1.144406
v 3.716908 5.295510 -0.865354
v 3.596865 5.392720 -0.559342
v 3.327281 6.681892 -0.942046
v 3.442762 6.695052 -0.785498
v 3.405595 6.667137 -1.119994
v 3.599388 6.665539 -1.141395
v 3.714868 6.678699 -0.984847
v 3.636556 6.693455 -0.806898
v 3.521564 6.805726 -0.973718
v 2.336411 4.600289 -0.777851
v 2.459069 4.690053 -0.539409
v 2.421422 4.550595 -0.296612
v 2.261118 4.321374 -0.292255
v 2.138461 4.231611 -0.530697
v 2.176107 4.371068 -0.773495
v 1.765790 5.457613 -0.353414
v 1.645004 5.417397 -0.520935
v 1.720711 5.369663 -0.167666
v 1.554845 5.241498 -0.149438
v 1.434060 5.201283 -0.316959
v 1.479140 5.289232 -0.502708
v 1.325535 6.208083 -0.211174
v 1.254653 6.216161 -0.307264
v 1.277467 6.199026 -0.101949
v 1.158516 6.198046 -0.088813
v 1.087635 6.206123 -0.184903
v 1.135703 6.215180 -0.294128
v 1.206285 6.284093 -0.191734
v -5.247199 8.818820 -1.237520
v -4.482015 10.064418 -1.510558
v -5.405317 8.880151 -1.514066
v -4.659279 10.075130 -1.782041
v -5.309705 8.739339 -1.790238
v -4.528539 9.984614 -2.064804
v -5.055975 8.537196 -1.789864
v -4.220535 9.883387 -2.076083
v -4.897858 8.475864 -1.513317
v -4.043271 9.872674 -1.804600
v -4.993469 8.616677 -1.237145
v -4.174011 9.963189 -1.521837
v -4.503458 10.974968 -1.930669
v -4.374575 11.019340 -1.732335
v -4.394864 10.966046 -2.145248
v -4.157386 11.001498 -2.161492
v -4.028502 11.045871 -1.963158
v -4.137097 11.054791 -1.748579
v -4.757184 11.747936 -1.998023
v -4.692667 11.793247 -1.886120
v -4.703748 11.771043 -2.121912
v -4.585793 11.839460 -2.133898
v -4.521276 11.884772 -2.021995
v -4.574713 11.861666 -1.898106
v -4.683511 11.892653 -2.014938
v -4.249223 9.910228 -2.050125
v -4.206471 9.748704 -1.819358
v -4.293517 9.839582 -1.563750
v -4.423313 10.091985 -1.538909
v -4.466065 10.253508 -1.769676
v -4.379020 10.162630 -2.025284
v -3.443086 10.003698 -1.707539
v -3.428992 10.128424 -1.877583
v -3.458632 10.089103 -1.514836
v -3.460084 10.299232 -1.492177
v -3.445990 10.423959 -1.662221
v -3.430444 10.338554 -1.854924
v -2.735941 9.889016 -1.679700
v -2.709286 9.955103 -1.776521
v -2.719149 9.934230 -1.569582
v -2.675703 10.045530 -1.556284
v -2.649048 10.111617 -1.653106
v -2.665839 10.066403 -1.763224
v -2.620099 9.972389 -1.665923
v -6.952267 9.780745 -1.701483
v -6.253666 10.505365 -1.288093
v -7.041110 9.961166 -1.827567
v -6.361870 10.657640 -1.434540
v -6.967779 9.997737 -2.050340
v -6.257582 10.720917 -1.638165
v -6.805605 9.853885 -2.147029
v -6.045090 10.631918 -1.695342
v -6.716760 9.673463 -2.020945
v -5.936887 10.479643 -1.548894
v -6.790092 9.636892 -1.798172
v -6.041174 10.416366 -1.345270
v -6.146799 11.207563 -1.103411
v -6.062827 11.125449 -0.972215
v -6.054746 11.287699 -1.230342
v -5.878722 11.285719 -1.226075
v -5.794750 11.203605 -1.094878
v -5.886803 11.123469 -0.967948
v -6.245690 11.699881 -0.779975
v -6.202141 11.665844 -0.696449
v -6.196316 11.763014 -0.840042
v -6.103392 11.792110 -0.816583
v -6.059843 11.758074 -0.733057
v -6.109217 11.694941 -0.672989
v -6.176518 11.779147 -0.723375
vt 0.949615 0.041222
vt 0.950875 0.096412
vt 0.939637 0.100979
vt 0.938749 0.044196
vt 0.927863 0.102340
vt 0.928029 0.045276
vt 0.916462 0.099334
vt 0.917289 0.043333
vt 0.905508 0.094811
vt 0.906349 0.040614
vt 0.939793 0.159639
vt 0.927552 0.162710
vt 0.894755 0.093585
vt 0.895547 0.039451
vt 0.960431 0.038383
vt 0.961556 0.092793
vt 0.928266 0.474091
vt 0.920238 0.475898
vt 0.922687 0.468189
vt 0.925308 0.468661
vt 0.916416 0.156727
vt 0.927239 0.224407
vt 0.916873 0.215731
vt 0.905647 0.148077
vt 0.894755 0.146535
vt 0.950814 0.150941
vt 0.960862 0.145651
vt 0.939310 0.219600
vt 0.937778 0.291926
vt 0.927267 0.296649
vt 0.949704 0.206602
vt 0.959364 0.200185
vt 0.906763 0.203556
vt 0.895919 0.201415
vt 0.946764 0.277444
vt 0.942788 0.347898
vt 0.935702 0.359357
vt 0.909498 0.273379
vt 0.899424 0.271509
vt 0.918361 0.286602
vt 0.955878 0.270518
vt 0.904734 0.342479
vt 0.913238 0.343008
vt 0.916496 0.397204
vt 0.909858 0.398081
vt 0.950700 0.342125
vt 0.920480 0.353874
vt 0.927623 0.362434
vt 0.939536 0.400839
vt 0.945889 0.397757
vt 0.941835 0.440883
vt 0.937020 0.440334
vt 0.927955 0.408933
vt 0.922320 0.403697
vt 0.933911 0.407389
vt 0.914229 0.441334
vt 0.919097 0.438980
vt 0.923876 0.440717
vt 0.932462 0.442051
vt 0.928187 0.442605
vt 0.931017 0.467714
vt 0.933564 0.468894
vt 0.936249 0.475434
vt 0.905488 0.057728
vt 0.907492 0.254877
vt 0.897563 0.261404
vt 0.895161 0.062915
vt 0.957106 0.067665
vt 0.952538 0.265854
vt 0.942629 0.258167
vt 0.946802 0.060991
vt 0.933528 0.253519
vt 0.936811 0.052228
vt 0.925109 0.251503
vt 0.926158 0.047159
vt 0.930136 0.371759
vt 0.924463 0.369356
vt 0.916644 0.251718
vt 0.915502 0.050542
vt 0.918758 0.371119
vt 0.924146 0.449900
vt 0.921722 0.451732
vt 0.942799 0.387997
vt 0.936079 0.377351
vt 0.912689 0.376085
vt 0.905789 0.385902
vt 0.928903 0.458281
vt 0.926566 0.452018
vt 0.919343 0.457796
vt 0.917040 0.472652
vt 0.931129 0.473177
vt 0.924087 0.472505
vt 0.907096 0.059237
vt 0.908698 0.217157
vt 0.899992 0.219762
vt 0.898075 0.061344
vt 0.952080 0.064643
vt 0.949095 0.222305
vt 0.940545 0.217429
vt 0.943313 0.059033
vt 0.932636 0.215124
vt 0.934548 0.053514
vt 0.924525 0.214987
vt 0.925330 0.051578
vt 0.929083 0.386749
vt 0.924030 0.386200
vt 0.916544 0.215774
vt 0.915953 0.054583
vt 0.918956 0.386621
vt 0.923877 0.457537
vt 0.921592 0.459292
vt 0.940935 0.396904
vt 0.934640 0.389152
vt 0.913313 0.388806
vt 0.906891 0.396022
vt 0.928368 0.465058
vt 0.926162 0.459409
vt 0.919368 0.464903
vt 0.917152 0.478881
vt 0.930559 0.478925
vt 0.923859 0.478956
vt 0.929231 0.065791
vt 0.941974 0.078953
vt 0.934197 0.287994
vt 0.925858 0.283592
vt 0.917338 0.286593
vt 0.922817 0.423486
vt 0.919959 0.424128
vt 0.953285 0.104320
vt 0.964512 0.126886
vt 0.950006 0.316912
vt 0.941942 0.299868
vt 0.916213 0.071907
vt 0.892249 0.104399
vt 0.904185 0.089977
vt 0.908784 0.293561
vt 0.900469 0.301128
vt 0.929051 0.430947
vt 0.925754 0.425228
vt 0.916729 0.427776
vt 0.912592 0.445335
vt 0.932366 0.446714
vt 0.922561 0.454691
vt 0.906562 0.044855
vt 0.908566 0.241933
vt 0.898641 0.248458
vt 0.896239 0.050041
vt 0.958162 0.054789
vt 0.953595 0.252906
vt 0.943690 0.245222
vt 0.947862 0.048117
vt 0.934593 0.240576
vt 0.937874 0.039357
vt 0.926177 0.238560
vt 0.927225 0.034290
vt 0.931202 0.358774
vt 0.925530 0.356371
vt 0.917714 0.238776
vt 0.916573 0.037672
vt 0.919827 0.358133
vt 0.925214 0.436886
vt 0.922790 0.438717
vt 0.943860 0.375005
vt 0.937142 0.364363
vt 0.913761 0.363098
vt 0.906863 0.372911
vt 0.929969 0.445264
vt 0.927632 0.439004
vt 0.920412 0.444779
vt 0.918110 0.459630
vt 0.932194 0.460155
vt 0.925155 0.459483
vt 0.929014 0.043416
vt 0.941117 0.062947
vt 0.934082 0.286097
vt 0.927533 0.278647
vt 0.920916 0.279977
vt 0.926752 0.414969
vt 0.924004 0.417009
vt 0.951970 0.100889
vt 0.962036 0.137827
vt 0.948143 0.322961
vt 0.940862 0.300164
vt 0.916774 0.051530
vt 0.895334 0.104344
vt 0.905673 0.078427
vt 0.913929 0.287671
vt 0.906335 0.303285
vt 0.932061 0.431146
vt 0.929473 0.419615
vt 0.921308 0.426147
vt 0.918697 0.449690
vt 0.934435 0.456717
vt 0.926572 0.452144
vt 0.907987 0.067240
vt 0.909794 0.244967
vt 0.900843 0.250851
vt 0.898677 0.071916
vt 0.954520 0.076198
vt 0.950402 0.254863
vt 0.941469 0.247933
vt 0.945232 0.070181
vt 0.933265 0.243743
vt 0.936224 0.062281
vt 0.925675 0.241925
vt 0.926621 0.057712
vt 0.930207 0.350335
vt 0.925093 0.348169
vt 0.918044 0.242120
vt 0.917015 0.060762
vt 0.919950 0.349758
vt 0.924807 0.420779
vt 0.922622 0.422430
vt 0.941623 0.364973
vt 0.935564 0.355376
vt 0.914479 0.354235
vt 0.908258 0.363085
vt 0.929095 0.428333
vt 0.926988 0.422688
vt 0.920477 0.427896
vt 0.918401 0.441289
vt 0.931102 0.441762
vt 0.924754 0.441157
vn 0.0127 0.0129 0.9998
vn 0.0095 0.0417 0.9991
vn -0.8582 -0.0895 0.5055
vn -0.8614 -0.0370 0.5065
vn -0.8542 -0.1331 -0.5027
vn -0.8627 -0.0504 -0.5033
vn 0.0430 -0.0205 -0.9989
vn 0.0225 -0.0075 -0.9997
vn 0.8726 0.1152 -0.4747
vn 0.8721 0.0492 -0.4868
vn -0.8413 -0.2173 0.4949
vn -0.8029 -0.3327 -0.4947
vn 0.8599 0.1373 0.4916
vn 0.8683 0.0566 0.4928
vn -0.2649 0.9643 0.0000
vn 0.4018 0.8414 0.3614
vn 0.4142 0.8202 -0.3946
vn 0.0869 -0.0589 -0.9945
vn -0.6860 -0.5517 -0.4743
vn 0.1316 -0.0781 -0.9882
vn 0.8555 0.2527 -0.4519
vn 0.8145 0.3149 0.4873
vn -0.0165 0.1139 0.9934
vn -0.7869 -0.3824 0.4842
vn -0.6965 -0.5371 0.4757
vn -0.5610 -0.6964 -0.4475
vn -0.0672 0.2050 0.9764
vn 0.7167 0.5241 0.4600
vn 0.7968 0.4200 -0.4344
vn -0.1284 0.2481 0.9602
vn -0.1463 0.2134 0.9659
vn -0.6512 -0.5907 0.4764
vn 0.6849 0.5859 -0.4332
vn 0.5698 0.7071 0.4187
vn 0.1310 -0.0785 -0.9883
vn 0.4742 0.7832 0.4022
vn 0.5980 0.6633 -0.4499
vn 0.6123 0.6278 -0.4806
vn 0.5181 0.7402 0.4285
vn 0.0869 -0.0978 -0.9914
vn -0.5385 -0.7180 -0.4409
vn -0.1204 0.1644 0.9790
vn 0.6555 0.5846 0.4782
vn -0.0965 0.1234 0.9877
vn -0.6257 -0.6310 -0.4587
vn 0.0283 -0.0955 -0.9950
vn -0.6980 -0.5327 0.4786
vn 0.7012 0.4958 -0.5124
vn -0.0265 -0.0452 -0.9986
vn -0.7957 -0.3746 0.4759
vn -0.7593 -0.4390 -0.4803
vn -0.2164 0.6265 0.7488
vn -0.8132 -0.3134 -0.4904
vn -0.0546 0.0040 -0.9985
vn -0.8462 -0.2653 0.4621
vn -0.7457 0.3832 0.5450
vn -0.7745 0.3119 0.5504
vn -0.7857 0.3607 -0.5025
vn -0.7081 0.5299 -0.4666
vn 0.0883 0.0488 -0.9949
vn 0.0723 0.1210 -0.9900
vn 0.8541 -0.2606 -0.4502
vn 0.7726 -0.4051 -0.4888
vn 0.8172 -0.2847 0.5011
vn 0.7111 -0.5241 0.4686
vn 0.8872 0.0746 -0.4552
vn 0.8516 0.2406 0.4658
vn 0.0488 -0.0177 0.9987
vn -0.0157 -0.1528 0.9881
vn 0.0525 0.2790 0.9588
vn 0.5324 0.8160 0.2252
vn -0.1994 0.6972 0.6886
vn -0.8573 -0.0621 -0.5111
vn 0.0843 -0.0799 -0.9932
vn -0.8320 0.1378 0.5373
vn -0.1129 0.1477 -0.9826
vn 0.5808 0.5475 -0.6024
vn -0.9004 0.2967 0.3182
vn -0.8547 0.0199 -0.5187
vn -0.3859 0.8619 -0.3289
vn -0.0779 0.5139 0.8543
vn -0.1090 0.4824 0.8691
vn -0.5373 0.8434 0.0070
vn -0.4267 0.9042 -0.0216
vn -0.3749 0.3221 -0.8693
vn -0.3353 0.3639 -0.8690
vn 0.1965 -0.5068 -0.8394
vn 0.0940 -0.5341 -0.8402
vn 0.5882 -0.8086 -0.0133
vn 0.4304 -0.9026 -0.0054
vn 0.4219 -0.2698 -0.8656
vn 0.9228 -0.3743 -0.0917
vn 0.4527 -0.3479 0.8210
vn 0.3561 -0.4074 0.8409
vn 0.6452 -0.1091 0.7562
vn 0.8997 0.4128 -0.1420
vn 0.5578 0.5070 0.6571
vn -0.8438 0.5342 0.0521
vn -0.4440 0.1642 -0.8808
vn -0.2068 0.3446 0.9157
vn -0.4966 0.4338 -0.7518
vn 0.3832 0.3773 -0.8431
vn -0.3226 0.5634 0.7606
vn -0.8497 0.5245 0.0537
vn 0.0007 0.9966 -0.0826
vn -0.7989 -0.5952 0.0868
vn -0.3396 -0.3946 0.8538
vn -0.3499 -0.2987 0.8879
vn -0.8717 -0.4785 0.1056
vn -0.6279 -0.1470 -0.7643
vn -0.9503 0.2662 0.1613
vn -0.6355 0.4046 -0.6577
vn 0.4422 0.2386 0.8646
vn 0.7326 0.6783 -0.0575
vn 0.7978 0.5980 -0.0766
vn 0.4943 0.2447 0.8341
vn -0.6163 -0.2488 -0.7472
vn 0.1452 0.4048 -0.9028
vn 0.2160 0.3967 -0.8922
vn 0.4326 0.4734 0.7673
vn -0.4202 0.2747 0.8648
vn 0.2247 0.6074 -0.7619
vn 0.7478 0.6624 -0.0448
vn -0.0007 0.9966 0.0826
vn -0.3133 0.3832 0.8689
vn -0.3342 0.3119 0.8894
vn -0.9324 0.3607 0.0229
vn -0.8480 0.5299 0.0093
vn -0.4833 0.0488 -0.8741
vn -0.4938 0.1210 -0.8611
vn 0.4562 -0.2606 -0.8509
vn 0.3670 -0.4051 -0.8374
vn 0.9577 -0.2847 -0.0417
vn 0.8516 -0.5241 -0.0093
vn 0.4808 0.0746 -0.8736
vn 0.9664 0.2406 -0.0902
vn 0.5990 -0.0177 0.8005
vn 0.5397 -0.1528 0.8279
vn 0.5799 0.2790 0.7654
vn 0.5673 0.8160 -0.1111
vn 0.2198 0.6972 0.6823
vn -0.9965 -0.0621 0.0559
vn -0.4857 -0.0799 -0.8705
vn -0.3892 0.1378 0.9108
vn -0.6431 0.1477 -0.7514
vn 0.1445 0.5475 -0.8243
vn -0.5684 0.2967 0.7674
vn -0.9986 0.0199 0.0481
vn -0.5039 0.8619 -0.0568
vn -0.1737 0.9781 0.1145
vn -0.1383 0.4508 0.8818
vn 0.0313 0.4517 0.8916
vn 0.0892 0.9880 0.1261
vn 0.1554 0.6465 -0.7469
vn 0.7205 0.6845 0.1110
vn 0.6277 0.3542 -0.6932
vn 0.1075 -0.5276 0.8427
vn 0.3249 -0.9410 -0.0949
vn 0.0929 -0.9908 -0.0987
vn 0.0304 -0.5262 0.8498
vn 0.0107 0.6663 -0.7456
vn 0.2690 -0.2957 -0.9166
vn 0.1625 -0.3262 -0.9312
vn 0.2752 -0.6408 0.7167
vn 0.5489 0.1967 0.8124
vn 0.3528 -0.4835 -0.8011
vn 0.1745 -0.9802 -0.0935
vn 0.9318 -0.3629 0.0071
vn -0.3361 -0.2006 0.9202
vn -0.3685 -0.2642 0.8913
vn -0.8705 0.4166 0.2622
vn -0.7622 0.5397 0.3575
vn -0.3879 0.6663 -0.6369
vn -0.3894 0.7148 -0.5808
vn 0.4924 0.2586 -0.8310
vn 0.3829 0.1552 -0.9106
vn 0.9079 -0.3512 -0.2290
vn 0.7666 -0.5359 -0.3539
vn 0.5660 0.5238 -0.6367
vn 0.9948 0.0774 0.0661
vn 0.5133 -0.6159 0.5976
vn 0.4332 -0.7259 0.5343
vn 0.5393 -0.3649 0.7589
vn 0.6842 0.5952 0.4214
vn 0.2510 0.0657 0.9658
vn -0.9962 0.0850 0.0209
vn -0.4087 0.5665 -0.7156
vn -0.4492 -0.4009 0.7984
vn -0.5431 0.6914 -0.4765
vn 0.2963 0.9090 -0.2931
vn -0.5901 -0.1601 0.7913
vn -0.9860 0.1527 0.0669
vn -0.3702 0.7759 0.5108
usemtl MainPlant.001
s 1
f 1/1/1 2/2/2 4/3/3 3/4/4
f 3/4/4 4/3/3 6/5/5 5/6/6
f 5/6/6 6/5/5 8/7/7 7/8/8
f 7/8/8 8/7/7 10/9/9 9/10/10
f 6/5/5 4/3/3 13/11/11 15/12/12
f 9/10/10 10/9/9 12/13/13 11/14/14
f 11/15/14 12/16/13 2/2/2 1/1/1
f 51/17/15 54/18/16 53/19/17 52/20/15
f 16/21/18 15/12/12 21/22/19 22/23/20
f 12/13/13 10/9/9 17/24/21 18/25/22
f 4/3/3 2/2/2 14/26/23 13/11/11
f 8/7/7 6/5/5 15/12/12 16/21/18
f 2/2/2 12/16/13 18/27/22 14/26/23
f 10/9/9 8/7/7 16/21/18 17/24/21
f 21/22/19 19/28/24 25/29/25 27/30/26
f 13/11/11 14/26/23 20/31/27 19/28/24
f 14/26/23 18/27/22 24/32/28 20/31/27
f 17/24/21 16/21/18 22/23/20 23/33/29
f 15/12/12 13/11/11 19/28/24 21/22/19
f 18/25/22 17/24/21 23/33/29 24/34/28
f 25/29/25 26/35/30 32/36/31 31/37/32
f 24/34/28 23/33/29 29/38/33 30/39/34
f 22/23/20 21/22/19 27/30/26 28/40/35
f 19/28/24 20/31/27 26/35/30 25/29/25
f 20/31/27 24/32/28 30/41/34 26/35/30
f 23/33/29 22/23/20 28/40/35 29/38/33
f 36/42/36 35/43/37 41/44/38 42/45/39
f 26/35/30 30/41/34 36/46/36 32/36/31
f 29/38/33 28/40/35 34/47/40 35/43/37
f 27/30/26 25/29/25 31/37/32 33/48/41
f 30/39/34 29/38/33 35/43/37 36/42/36
f 28/40/35 27/30/26 33/48/41 34/47/40
f 38/49/42 42/50/39 48/51/43 44/52/44
f 34/47/40 33/48/41 39/53/45 40/54/46
f 31/37/32 32/36/31 38/49/42 37/55/47
f 32/36/31 36/46/36 42/50/39 38/49/42
f 35/43/37 34/47/40 40/54/46 41/44/38
f 33/48/41 31/37/32 37/55/47 39/53/45
f 48/56/43 47/57/48 53/19/17 54/18/16
f 41/44/38 40/54/46 46/58/49 47/57/48
f 39/53/45 37/55/47 43/59/50 45/60/51
f 42/45/39 41/44/38 47/57/48 48/56/43
f 40/54/46 39/53/45 45/60/51 46/58/49
f 37/55/47 38/49/42 44/52/44 43/59/50
f 49/61/15 50/62/52 54/63/16 51/17/15
f 46/58/49 45/60/51 51/17/53 52/20/54
f 43/59/50 44/52/44 50/62/52 49/61/55
f 44/52/44 48/51/43 54/63/16 50/62/52
f 47/57/48 46/58/49 52/20/54 53/19/17
f 45/60/51 43/59/50 49/61/55 51/17/53
f 55/64/56 56/65/57 58/66/58 57/67/59
f 57/68/59 58/69/58 60/70/60 59/71/61
f 59/71/61 60/70/60 62/72/62 61/73/63
f 61/73/63 62/72/62 64/74/64 63/75/65
f 64/74/64 62/72/62 70/76/66 71/77/67
f 63/75/65 64/74/64 66/78/68 65/79/69
f 65/79/69 66/78/68 56/65/57 55/64/56
f 72/80/70 71/77/67 77/81/71 78/82/72
f 60/70/60 58/69/58 67/83/73 69/84/74
f 66/78/68 64/74/64 71/77/67 72/80/70
f 58/66/58 56/65/57 68/85/75 67/86/73
f 62/72/62 60/70/60 69/84/74 70/76/66
f 56/65/57 66/78/68 72/80/70 68/85/75
f 70/76/66 69/84/74 75/87/76 76/88/77
f 67/86/73 68/85/75 74/89/78 73/90/79
f 68/85/75 72/80/70 78/82/72 74/89/78
f 71/77/67 70/76/66 76/88/77 77/81/71
f 69/84/74 67/83/73 73/91/79 75/87/76
f 79/92/80 78/82/72 77/81/71
f 73/91/79 79/92/80 75/87/76
f 74/89/78 78/82/72 79/92/80
f 77/81/71 76/88/77 79/92/80
f 75/87/76 79/92/80 76/88/77
f 79/92/80 73/90/79 74/89/78
f 80/93/81 81/94/82 83/95/83 82/96/84
f 82/97/84 83/98/83 85/99/85 84/100/86
f 84/100/86 85/99/85 87/101/87 86/102/88
f 86/102/88 87/101/87 89/103/89 88/104/90
f 89/103/89 87/101/87 95/105/91 96/106/92
f 88/104/90 89/103/89 91/107/93 90/108/94
f 90/108/94 91/107/93 81/94/82 80/93/81
f 97/109/95 96/106/92 102/110/96 103/111/97
f 85/99/85 83/98/83 92/112/98 94/113/99
f 91/107/93 89/103/89 96/106/92 97/109/95
f 83/95/83 81/94/82 93/114/100 92/115/98
f 87/101/87 85/99/85 94/113/99 95/105/91
f 81/94/82 91/107/93 97/109/95 93/114/100
f 95/105/91 94/113/99 100/116/101 101/117/102
f 92/115/98 93/114/100 99/118/103 98/119/104
f 93/114/100 97/109/95 103/111/97 99/118/103
f 96/106/92 95/105/91 101/117/102 102/110/96
f 94/113/99 92/112/98 98/120/104 100/116/101
f 104/121/105 103/111/97 102/110/96
f 98/120/104 104/121/105 100/116/101
f 99/118/103 103/111/97 104/121/105
f 102/110/96 101/117/102 104/121/105
f 100/116/101 104/121/105 101/117/102
f 104/121/105 98/119/104 99/118/103
f 109/122/106 108/123/107 114/124/108 115/125/109
f 116/126/110 115/125/109 121/127/111 122/128/112
f 107/129/113 106/130/114 111/131/115 113/132/116
f 110/133/117 109/122/106 115/125/109 116/126/110
f 106/134/114 105/135/118 112/136/119 111/137/115
f 108/123/107 107/129/113 113/132/116 114/124/108
f 105/135/118 110/133/117 116/126/110 112/136/119
f 114/124/108 113/132/116 119/138/120 120/139/121
f 111/137/115 112/136/119 118/140/122 117/141/123
f 112/136/119 116/126/110 122/128/112 118/140/122
f 115/125/109 114/124/108 120/139/121 121/127/111
f 113/132/116 111/131/115 117/142/123 119/138/120
f 123/143/124 122/128/112 121/127/111
f 117/142/123 123/143/124 119/138/120
f 118/140/122 122/128/112 123/143/124
f 121/127/111 120/139/121 123/143/124
f 119/138/120 123/143/124 120/139/121
f 123/143/124 117/141/123 118/140/122
f 124/144/125 125/145/126 127/146/127 126/147/128
f 126/148/128 127/149/127 129/150/129 128/151/130
f 128/151/130 129/150/129 131/152/131 130/153/132
f 130/153/132 131/152/131 133/154/133 132/155/134
f 133/154/133 131/152/131 139/156/135 140/157/136
f 132/155/134 133/154/133 135/158/137 134/159/138
f 134/159/138 135/158/137 125/145/126 124/144/125
f 141/160/139 140/157/136 146/161/140 147/162/141
f 129/150/129 127/149/127 136/163/142 138/164/143
f 135/158/137 133/154/133 140/157/136 141/160/139
f 127/146/127 125/145/126 137/165/144 136/166/142
f 131/152/131 129/150/129 138/164/143 139/156/135
f 125/145/126 135/158/137 141/160/139 137/165/144
f 139/156/135 138/164/143 144/167/145 145/168/146
f 136/166/142 137/165/144 143/169/147 142/170/148
f 137/165/144 141/160/139 147/162/141 143/169/147
f 140/157/136 139/156/135 145/168/146 146/161/140
f 138/164/143 136/163/142 142/171/148 144/167/145
f 148/172/149 147/162/141 146/161/140
f 142/171/148 148/172/149 144/167/145
f 143/169/147 147/162/141 148/172/149
f 146/161/140 145/168/146 148/172/149
f 144/167/145 148/172/149 145/168/146
f 148/172/149 142/170/148 143/169/147
f 153/173/150 152/174/151 158/175/152 159/176/153
f 160/177/154 159/176/153 165/178/155 166/179/156
f 151/180/157 150/181/158 155/182/159 157/183/160
f 154/184/161 153/173/150 159/176/153 160/177/154
f 150/185/158 149/186/162 156/187/163 155/188/159
f 152/174/151 151/180/157 157/183/160 158/175/152
f 149/186/162 154/184/161 160/177/154 156/187/163
f 158/175/152 157/183/160 163/189/164 164/190/165
f 155/188/159 156/187/163 162/191/166 161/192/167
f 156/187/163 160/177/154 166/179/156 162/191/166
f 159/176/153 158/175/152 164/190/165 165/178/155
f 157/183/160 155/182/159 161/193/167 163/189/164
f 167/194/168 166/179/156 165/178/155
f 161/193/167 167/194/168 163/189/164
f 162/191/166 166/179/156 167/194/168
f 165/178/155 164/190/165 167/194/168
f 163/189/164 167/194/168 164/190/165
f 167/194/168 161/192/167 162/191/166
f 168/195/169 169/196/170 171/197/171 170/198/172
f 170/199/172 171/200/171 173/201/173 172/202/174
f 172/202/174 173/201/173 175/203/175 174/204/176
f 174/204/176 175/203/175 177/205/177 176/206/178
f 177/205/177 175/203/175 183/207/179 184/208/180
f 176/206/178 177/205/177 179/209/181 178/210/182
f 178/210/182 179/209/181 169/196/170 168/195/169
f 185/211/183 184/208/180 190/212/184 191/213/185
f 173/201/173 171/200/171 180/214/186 182/215/187
f 179/209/181 177/205/177 184/208/180 185/211/183
f 171/197/171 169/196/170 181/216/188 180/217/186
f 175/203/175 173/201/173 182/215/187 183/207/179
f 169/196/170 179/209/181 185/211/183 181/216/188
f 183/207/179 182/215/187 188/218/189 189/219/190
f 180/217/186 181/216/188 187/220/191 186/221/192
f 181/216/188 185/211/183 191/213/185 187/220/191
f 184/208/180 183/207/179 189/219/190 190/212/184
f 182/215/187 180/214/186 186/222/192 188/218/189
f 192/223/193 191/213/185 190/212/184
f 186/222/192 192/223/193 188/218/189
f 187/220/191 191/213/185 192/223/193
f 190/212/184 189/219/190 192/223/193
f 188/218/189 192/223/193 189/219/190
f 192/223/193 186/221/192 187/220/191
