# Blender v2.80 (sub 75) OBJ File: 'VR_Game_World.blend'
# www.blender.org
mtllib Tree5.mtl
o Branch3_Cylinder.047
v 0.000000 -1.000000 -1.000000
v 0.000000 1.000000 -1.000000
v 0.866025 -1.000000 -0.500000
v 0.866025 1.000000 -0.500000
v 0.866025 -1.000000 0.500000
v 0.866025 1.000000 0.500000
v -0.000000 -1.000000 1.000000
v -0.000000 1.000000 1.000000
v -0.866025 -1.000000 0.500000
v -0.866025 1.000000 0.500000
v -0.866025 -1.000000 -0.500000
v -0.866025 1.000000 -0.500000
v 0.858042 5.098255 -0.593520
v 0.000001 5.102585 -1.087506
v 0.858042 5.089284 0.397220
v 0.000001 5.084798 0.892590
v -0.858040 5.089318 0.398606
v -0.858040 5.097982 -0.589397
v 0.667660 10.424204 -0.776563
v 0.000002 10.450985 -1.159245
v 0.667660 10.369782 -0.007541
v 0.000002 10.342572 0.376970
v -0.667656 10.369739 -0.005685
v -0.667656 10.423307 -0.771069
v 0.435703 14.339748 -0.430591
v 0.000004 14.367220 -0.680090
v 0.435703 14.284271 0.069443
v 0.000004 14.256534 0.319460
v -0.435695 14.284253 0.069988
v -0.435695 14.339201 -0.429018
v 0.323760 15.968617 -0.184843
v 0.000005 15.990026 -0.370533
v 0.323760 15.925528 0.186505
v 0.000005 15.903982 0.372178
v -0.323749 15.925545 0.186506
v -0.323749 15.968364 -0.184873
v -0.112256 5.942893 -0.629657
v -1.611685 7.392143 -1.001577
v -0.096658 6.112536 -0.200128
v -1.553786 7.499019 -0.555771
v -0.339410 5.910358 0.137086
v -1.859761 7.353358 -0.241639
v -0.597760 5.538539 0.044770
v -2.223636 7.100821 -0.373312
v -0.613359 5.368896 -0.384759
v -2.281536 6.993947 -0.819117
v -0.370607 5.571073 -0.721972
v -1.975560 7.139607 -1.133250
v -2.108544 8.689254 -0.667266
v -2.165731 8.682989 -1.005191
v -2.370479 8.657186 -0.448485
v -2.689600 8.618853 -0.567629
v -2.746787 8.612589 -0.905555
v -2.484853 8.644657 -1.124336
v -2.061464 9.850331 -0.626144
v -2.089497 9.877659 -0.817151
v -2.209522 9.874021 -0.501509
v -2.385614 9.925037 -0.567881
v -2.413647 9.952364 -0.758888
v -2.265589 9.928676 -0.883523
v -2.207680 10.022962 -0.680020
v 0.275537 3.722815 0.416955
v 1.433941 3.565593 0.399130
v 0.264396 4.174966 0.144466
v 1.347762 3.979875 0.122911
v 0.255937 4.171329 -0.405060
v 1.331522 3.971467 -0.426250
v 0.260791 3.718536 -0.682279
v 1.406615 3.551617 -0.699417
v 0.269025 3.259469 -0.409634
v 1.478045 3.128330 -0.423896
v 0.276386 3.260508 0.140037
v 1.489071 3.133922 0.125490
v 2.692690 4.462544 -0.379885
v 3.083116 4.320037 -0.149621
v 2.492762 4.300791 -0.882953
v 2.692418 4.016690 -1.160433
v 3.045417 3.838776 -0.905395
v 3.248670 3.978792 -0.406097
v 3.021083 5.444677 -0.847421
v 3.272618 5.291982 -0.603643
v 3.062016 5.441550 -1.275420
v 3.345788 5.292851 -1.455984
v 3.606783 5.136042 -1.207416
v 3.553029 5.147854 -0.774981
v 3.464661 6.232493 -1.147972
v 3.636650 6.142066 -0.986441
v 3.511273 6.271925 -1.421713
v 3.741407 6.201179 -1.541866
v 3.945722 6.142820 -1.375737
v 3.894298 6.126062 -1.094511
v 3.628632 7.074037 -1.007475
v 3.749388 7.091475 -0.862408
v 3.723215 7.080565 -1.226879
v 3.913785 7.101451 -1.298388
v 4.009721 7.154088 -1.139350
v 3.937806 7.143196 -0.924576
v -0.449979 11.829691 -0.232756
v 0.308487 13.000323 0.758154
v -0.243183 11.966720 -0.511629
v 0.496802 13.086653 0.447676
v 0.080055 11.803411 -0.601956
v 0.848290 12.968995 0.403799
v 0.196498 11.503074 -0.413409
v 1.011462 12.765009 0.670401
v -0.010297 11.366044 -0.134536
v 0.823146 12.678680 0.980878
v -0.333535 11.529353 -0.044209
v 0.471659 12.796337 1.024755
v 0.790587 14.048066 0.797820
v 0.656233 14.043006 1.039872
v 1.066196 14.022162 0.791892
v 1.207450 13.991199 1.028016
v 1.073096 13.986140 1.270069
v 0.797487 14.012043 1.275997
v 0.781622 14.985928 0.748129
v 0.702974 15.008001 0.882781
v 0.937899 15.005062 0.744167
v 1.015527 15.046270 0.874857
v 0.936878 15.068344 1.009509
v 0.780602 15.049210 1.013471
v 0.846704 15.125370 0.855867
v 0.491934 0.867964 -0.368496
v -0.000983 1.202828 -0.409302
v -0.535918 0.941953 -0.459846
v -0.577936 0.346213 -0.469584
v -0.085019 0.011349 -0.428779
v 0.449916 0.272224 -0.378235
v 0.155313 1.454920 -2.086837
v 0.539096 1.241201 -2.144898
v -0.222727 1.274709 -2.231562
v -0.216985 0.880778 -2.434348
v 0.166797 0.667059 -2.492409
v 0.544838 0.847270 -2.347683
v 0.366763 2.345127 -3.279270
v 0.591873 2.250474 -3.341620
v 0.160617 2.273430 -3.405306
v 0.179582 2.107079 -3.593691
v 0.404693 2.012426 -3.656042
v 0.610838 2.084124 -3.530007
v 0.408160 2.300170 -3.573605
v 0.518615 9.148230 0.106198
v 0.202715 9.496261 -0.271147
v -0.165285 9.211236 -0.669727
v -0.195536 8.594759 -0.706615
v 0.132438 8.253829 -0.338653
v 0.482246 8.530929 0.075049
v 0.958122 9.324377 -0.924476
v 1.248556 9.134349 -0.667221
v 0.842257 9.153932 -1.353905
v 0.999317 8.800078 -1.505251
v 1.293473 8.603129 -1.253871
v 1.424425 8.769566 -0.841945
v 1.484432 9.740281 -1.280718
v 1.659423 9.636523 -1.139732
v 1.423734 9.666223 -1.517024
v 1.574101 9.472434 -1.655384
v 1.757198 9.398847 -1.514706
v 1.813921 9.472716 -1.274581
v 1.696983 9.657181 -1.453600
v -0.574027 2.544835 0.210755
v -0.982242 3.418800 2.136941
v -0.152388 2.750165 0.240623
v -0.541595 3.578967 2.105179
v 0.216689 2.506840 0.400018
v -0.196883 3.367440 2.344473
v 0.164127 2.058184 0.529544
v -0.292818 2.995745 2.615530
v -0.257512 1.852854 0.499676
v -0.733465 2.835578 2.647292
v -0.626589 2.096179 0.340281
v -1.078177 3.047106 2.407998
v -0.714980 4.532593 3.030859
v -1.053892 4.478654 3.092158
v -0.477581 4.436087 3.267200
v -0.579095 4.285641 3.564840
v -0.918007 4.231702 3.626139
v -1.155406 4.328209 3.389798
v -0.762362 5.666263 3.363837
v -0.956449 5.666803 3.404439
v -0.630311 5.651948 3.511065
v -0.692347 5.638172 3.698896
v -0.886434 5.638712 3.739498
v -1.018485 5.653028 3.592269
v -0.822341 5.780015 3.562328
v -0.322776 3.050949 2.588917
v -0.596246 2.819876 2.383626
v -0.925456 2.996620 2.208391
v -0.981197 3.404437 2.238447
v -0.707727 3.635510 2.443738
v -0.378517 3.458766 2.618973
v -1.187427 2.503402 3.351020
v -1.009190 2.643429 3.556830
v -1.464700 2.616170 3.286702
v -1.563735 2.868965 3.428195
v -1.385499 3.008992 3.634006
v -1.108227 2.896224 3.698323
v -1.518131 1.790521 4.029952
v -1.423750 1.849189 4.164027
v -1.687429 1.829778 4.018856
v -1.762345 1.927704 4.141836
v -1.667964 1.986372 4.275911
v -1.498667 1.947114 4.287007
v -1.618392 1.796089 4.211774
vt 0.556427 0.530818
vt 0.556427 0.583030
vt 0.560661 0.583030
vt 0.560661 0.530818
vt 0.560661 0.583030
vt 0.560661 0.530818
vt 0.556427 0.583030
vt 0.556427 0.530818
vt 0.552194 0.583030
vt 0.552194 0.530818
vt 0.560622 0.689787
vt 0.556427 0.689670
vt 0.552194 0.583030
vt 0.552194 0.530818
vt 0.558010 0.972682
vt 0.554844 0.973801
vt 0.554844 0.972683
vt 0.556427 0.972120
vt 0.552233 0.689788
vt 0.552233 0.690014
vt 0.556427 0.690134
vt 0.560622 0.690021
vt 0.556427 0.829762
vt 0.559691 0.829062
vt 0.559691 0.827642
vt 0.556427 0.826931
vt 0.553163 0.829039
vt 0.553163 0.827641
vt 0.556427 0.932001
vt 0.558557 0.931283
vt 0.554297 0.931269
vt 0.556427 0.929111
vt 0.554297 0.929835
vt 0.558557 0.929835
vt 0.558010 0.973807
vt 0.556427 0.974366
vt 0.555879 0.712072
vt 0.548548 0.749906
vt 0.548832 0.752696
vt 0.555955 0.716500
vt 0.547336 0.748894
vt 0.554768 0.711222
vt 0.545557 0.742301
vt 0.553505 0.701515
vt 0.545274 0.739511
vt 0.553429 0.697087
vt 0.543279 0.781931
vt 0.543000 0.781768
vt 0.546770 0.743313
vt 0.554615 0.702365
vt 0.544280 0.782605
vt 0.544628 0.957946
vt 0.545352 0.957858
vt 0.546120 0.783769
vt 0.544839 0.782932
vt 0.545840 0.783606
vt 0.545626 0.957657
vt 0.544765 0.957845
vt 0.546213 0.957671
vt 0.546350 0.957570
vt 0.545635 0.958205
vt 0.557774 0.654113
vt 0.563437 0.650009
vt 0.563016 0.660824
vt 0.557720 0.665917
vt 0.562936 0.660605
vt 0.557678 0.665822
vt 0.563303 0.649644
vt 0.557702 0.654002
vt 0.563653 0.638593
vt 0.557742 0.642017
vt 0.568613 0.669202
vt 0.569589 0.661785
vt 0.563707 0.638739
vt 0.557778 0.642044
vt 0.574628 0.947377
vt 0.575677 0.947608
vt 0.576029 0.947648
vt 0.575560 0.947454
vt 0.571315 0.657141
vt 0.572308 0.660796
vt 0.571499 0.669705
vt 0.569590 0.673425
vt 0.572425 0.695079
vt 0.571196 0.699065
vt 0.571396 0.698983
vt 0.572783 0.695101
vt 0.573796 0.691316
vt 0.574059 0.691007
vt 0.574205 0.717271
vt 0.573364 0.719632
vt 0.575464 0.716853
vt 0.574717 0.718814
vt 0.575716 0.717291
vt 0.573592 0.720661
vt 0.574166 0.947353
vt 0.574756 0.947417
vt 0.554227 0.865755
vt 0.557935 0.896316
vt 0.558856 0.898569
vt 0.555238 0.869332
vt 0.560574 0.895498
vt 0.556818 0.865069
vt 0.561372 0.890172
vt 0.557388 0.857228
vt 0.560451 0.887919
vt 0.556377 0.853651
vt 0.562330 0.922184
vt 0.561673 0.922052
vt 0.558733 0.890990
vt 0.554797 0.857914
vt 0.560326 0.922728
vt 0.561007 0.976773
vt 0.560243 0.976702
vt 0.560292 0.923669
vt 0.561639 0.922992
vt 0.559635 0.923536
vt 0.561012 0.976540
vt 0.561392 0.976692
vt 0.559864 0.976551
vt 0.560248 0.976469
vt 0.560566 0.976983
vt 0.556012 0.557220
vt 0.553602 0.565962
vt 0.555367 0.579918
vt 0.557243 0.574338
vt 0.559091 0.579043
vt 0.558406 0.928726
vt 0.559413 0.928990
vt 0.553807 0.581515
vt 0.556422 0.588326
vt 0.557186 0.594907
vt 0.555338 0.590202
vt 0.558627 0.564031
vt 0.558832 0.579583
vt 0.559063 0.589327
vt 0.557212 0.929687
vt 0.557305 0.929074
vt 0.559321 0.929602
vt 0.558220 0.929950
vt 0.558422 0.929785
vt 0.557075 0.772402
vt 0.555471 0.781302
vt 0.561312 0.786662
vt 0.562750 0.781521
vt 0.563390 0.785866
vt 0.565017 0.955909
vt 0.565295 0.956180
vt 0.555619 0.797396
vt 0.557418 0.804837
vt 0.561111 0.800350
vt 0.560545 0.795900
vt 0.558785 0.779636
vt 0.558962 0.795751
vt 0.562531 0.795389
vt 0.563387 0.956893
vt 0.564122 0.956179
vt 0.564539 0.956783
vt 0.563684 0.957165
vt 0.564723 0.956859
vt 0.553621 0.623361
vt 0.551625 0.646177
vt 0.553780 0.650358
vt 0.555682 0.628721
vt 0.555465 0.644836
vt 0.557487 0.622369
vt 0.554996 0.635132
vt 0.557230 0.610656
vt 0.552842 0.630951
vt 0.555168 0.605295
vt 0.553596 0.668807
vt 0.551939 0.667399
vt 0.551157 0.636473
vt 0.553364 0.611648
vt 0.550779 0.669918
vt 0.552094 0.942071
vt 0.551448 0.942124
vt 0.552932 0.675254
vt 0.554093 0.672734
vt 0.551275 0.673845
vt 0.553346 0.942120
vt 0.553043 0.942069
vt 0.551752 0.942174
vt 0.552700 0.942172
vt 0.552407 0.942591
vt 0.552968 0.651834
vt 0.551631 0.645802
vt 0.548783 0.631822
vt 0.549654 0.635478
vt 0.551010 0.632534
vt 0.548273 0.928630
vt 0.549101 0.928486
vt 0.551903 0.635155
vt 0.553512 0.630541
vt 0.550622 0.622279
vt 0.549267 0.625223
vt 0.554577 0.647220
vt 0.554849 0.636573
vt 0.551494 0.625934
vt 0.548178 0.928054
vt 0.547812 0.928414
vt 0.549467 0.928125
vt 0.549006 0.927909
vt 0.548516 0.927930
vn -0.0000 0.0000 -1.0000
vn -0.0005 -0.0107 -0.9999
vn 0.8676 -0.0048 -0.4973
vn 0.8660 0.0000 -0.5000
vn 0.8644 0.0072 0.5028
vn 0.8660 0.0000 0.5000
vn 0.0001 0.0130 0.9999
vn -0.0000 0.0000 1.0000
vn -0.8643 0.0071 0.5029
vn -0.8660 0.0000 0.5000
vn 0.8629 0.0418 0.5037
vn 0.0005 0.0610 0.9981
vn -0.8677 -0.0046 -0.4970
vn -0.8660 0.0000 -0.5000
vn 0.6658 0.5919 0.4542
vn -0.6664 0.6782 -0.3099
vn -0.6657 0.5921 0.4542
vn 0.0002 0.5486 0.8361
vn -0.8626 0.0418 0.5042
vn -0.8688 0.0027 -0.4952
vn -0.0016 -0.0173 -0.9998
vn 0.8679 0.0025 -0.4967
vn -0.0023 0.0544 -0.9985
vn 0.8580 0.0533 -0.5109
vn 0.8709 0.0548 0.4883
vn 0.0008 0.0576 0.9983
vn -0.8593 0.0531 -0.5087
vn -0.8705 0.0549 0.4891
vn -0.0016 0.1540 -0.9881
vn 0.8600 0.1138 -0.4974
vn -0.8609 0.1134 -0.4960
vn 0.0006 -0.0079 1.0000
vn -0.8669 0.0328 0.4974
vn 0.8672 0.0327 0.4970
vn 0.6658 0.6787 -0.3100
vn -0.0008 0.7219 -0.6920
vn 0.5599 0.3923 -0.7298
vn 0.6019 0.3277 -0.7283
vn 0.7572 0.5897 0.2808
vn 0.6413 0.7315 0.2317
vn 0.0506 0.2325 0.9713
vn 0.0501 0.3039 0.9514
vn -0.7043 -0.3128 0.6372
vn -0.5894 -0.4296 0.6841
vn -0.8034 -0.5219 -0.2866
vn -0.6457 -0.7268 -0.2341
vn -0.8063 0.0050 0.5915
vn -0.9421 -0.0152 -0.3349
vn -0.1902 -0.2279 -0.9549
vn -0.0978 -0.3442 -0.9338
vn -0.2505 0.0652 -0.9659
vn -0.7196 0.6447 -0.2581
vn -0.0554 0.5677 -0.8214
vn 0.9167 0.1972 0.3475
vn 0.0814 0.1090 0.9907
vn 0.6961 0.1730 -0.6968
vn 0.2224 0.3612 0.9056
vn -0.5881 0.5450 0.5976
vn 0.7609 0.3825 -0.5241
vn 0.8981 0.2773 0.3415
vn 0.2397 0.9655 0.1016
vn 0.0358 0.0594 0.9976
vn 0.1550 -0.0240 0.9876
vn 0.0031 0.8694 0.4941
vn 0.1616 0.8822 0.4422
vn -0.1460 0.8549 -0.4978
vn 0.1475 0.8775 -0.4563
vn -0.1316 -0.1476 -0.9803
vn 0.0052 0.0581 -0.9983
vn 0.1048 -0.9175 -0.3837
vn -0.1048 -0.8635 -0.4933
vn -0.6607 0.5531 -0.5075
vn -0.1162 -0.2592 -0.9588
vn 0.2048 -0.8457 0.4927
vn -0.0887 -0.8597 0.5030
vn -0.5711 0.6869 -0.4495
vn 0.5281 0.6567 0.5383
vn 0.6741 0.7160 -0.1815
vn 0.1841 0.6202 -0.7625
vn 0.5588 -0.7057 -0.4356
vn 0.7749 -0.5016 0.3846
vn 0.3571 0.1557 0.9210
vn -0.4473 0.7324 0.5134
vn 0.1056 0.3729 0.9218
vn -0.7411 0.5229 0.4211
vn -0.8172 0.3065 -0.4881
vn -0.0201 -0.1534 -0.9880
vn 0.8879 -0.1189 0.4445
vn 0.8136 -0.3876 -0.4333
vn -0.0394 0.1795 0.9830
vn -0.8855 0.3668 0.2852
vn 0.8239 -0.1453 0.5477
vn 0.1691 0.0386 -0.9848
vn 0.9169 -0.1795 -0.3565
vn -0.7084 0.3013 -0.6383
vn -0.7827 0.5811 0.2231
vn -0.2148 0.5125 0.8314
vn -0.8930 0.3923 0.2205
vn -0.9248 0.3277 0.1930
vn -0.4161 0.5897 -0.6922
vn -0.3562 0.7315 -0.5814
vn 0.5670 0.2325 -0.7903
vn 0.5549 0.3039 -0.7744
vn 0.9480 -0.3128 -0.0580
vn 0.8876 -0.4296 -0.1663
vn 0.4486 -0.5219 0.7255
vn 0.3582 -0.7268 0.5860
vn 0.9991 0.0050 0.0414
vn 0.5268 -0.0152 0.8498
vn -0.4477 -0.2279 0.8647
vn -0.5066 -0.3442 0.7905
vn -0.4075 0.0652 0.9109
vn 0.4009 0.6447 0.6509
vn -0.4696 0.5677 0.6762
vn -0.4991 0.1972 -0.8438
vn 0.5550 0.1090 -0.8246
vn -0.9788 0.1730 0.1096
vn 0.3917 0.3612 -0.8462
vn 0.8325 0.5450 -0.0996
vn -0.9216 0.3825 -0.0657
vn -0.4882 0.2773 -0.8275
vn -0.1238 0.9655 -0.2290
vn -0.0295 -0.9510 -0.3076
vn -0.8315 -0.4774 -0.2842
vn -0.8069 -0.4008 -0.4339
vn 0.0131 -0.8399 -0.5426
vn 0.8346 -0.4928 -0.2462
vn 0.1180 -0.2814 -0.9523
vn 0.8420 -0.0179 -0.5391
vn -0.8609 0.5057 -0.0565
vn 0.0451 0.9868 0.1557
vn -0.0036 0.9252 0.3795
vn -0.8831 0.4691 0.0082
vn 0.8067 -0.5765 -0.1299
vn 0.9100 0.3997 0.1106
vn 0.8992 0.3783 0.2197
vn -0.7183 0.6849 -0.1224
vn -0.6567 0.0636 -0.7515
vn 0.7920 0.6032 0.0938
vn 0.0090 0.9530 0.3030
vn 0.1364 0.7483 -0.6492
vn 0.1333 -0.9735 -0.1857
vn -0.4287 -0.4531 -0.7816
vn -0.2026 -0.3954 -0.8959
vn 0.4323 -0.8254 -0.3629
vn 0.7736 -0.4899 0.4019
vn 0.8169 -0.1966 -0.5423
vn 0.9817 0.0572 0.1814
vn -0.4322 0.5598 -0.7070
vn 0.1299 0.9906 -0.0434
vn -0.1442 0.9816 0.1249
vn -0.5489 0.4698 -0.6914
vn 0.6503 -0.5636 0.5094
vn 0.6600 0.4535 0.5989
vn 0.5747 0.3940 0.7173
vn -0.3330 0.7359 -0.5895
vn 0.1767 0.1145 -0.9776
vn 0.4991 0.6376 0.5868
vn -0.1367 0.9795 0.1482
vn 0.5929 0.7197 -0.3611
vn -0.7839 0.4860 -0.3864
vn -0.7797 0.4386 -0.4470
vn 0.1984 0.8218 -0.5342
vn 0.1449 0.9145 -0.3777
vn 0.9478 0.3187 0.0034
vn 0.9228 0.3843 0.0272
vn 0.6931 -0.4649 0.5509
vn 0.7426 -0.5346 0.4035
vn -0.2068 -0.7729 0.5999
vn -0.1474 -0.9117 0.3834
vn 0.6293 -0.2012 0.7506
vn -0.2851 -0.3428 0.8951
vn -0.9249 -0.3574 0.1299
vn -0.8999 -0.4360 0.0046
vn -0.9543 -0.1008 0.2814
vn -0.2682 0.3576 0.8945
vn -0.8570 0.4481 0.2546
vn 0.2856 0.5076 -0.8129
vn 0.9747 0.2136 -0.0659
vn -0.7417 0.3252 -0.5866
vn 0.8643 0.4893 -0.1163
vn 0.5848 0.3785 0.7174
vn -0.5884 0.5584 -0.5848
vn 0.2747 0.5768 -0.7693
vn 0.0183 0.9966 0.0808
vn -0.2725 0.9060 0.3239
vn -0.8679 0.4436 -0.2236
vn -0.9320 0.3490 -0.0978
vn -0.3705 0.7665 0.5247
vn 0.4876 0.4538 0.7459
vn -0.4917 0.1611 0.8558
vn 0.3522 -0.0537 0.9344
vn -0.6879 -0.5037 -0.5226
vn 0.1971 -0.9603 -0.1975
vn 0.2870 -0.8712 -0.3982
vn -0.6698 -0.4593 -0.5835
vn 0.5288 0.5513 0.6453
vn 0.8221 -0.3884 0.4164
vn 0.8769 -0.3536 0.3255
vn -0.6006 -0.6905 -0.4031
vn -0.9686 -0.1519 0.1970
vn 0.7318 -0.5917 0.3382
vn 0.2534 -0.9083 -0.3327
vn -0.2253 -0.8235 0.5207
usemtl MainPlant.001
s 1
f 1/1/1 2/2/2 4/3/3 3/4/4
f 3/4/4 4/3/3 6/5/5 5/6/6
f 5/6/6 6/5/5 8/7/7 7/8/8
f 7/8/8 8/7/7 10/9/9 9/10/10
f 8/7/7 6/5/5 15/11/11 16/12/12
f 9/10/10 10/9/9 12/13/13 11/14/14
f 11/14/14 12/13/13 2/2/2 1/1/1
f 33/15/15 36/16/16 35/17/17 34/18/18
f 8/7/7 16/12/12 17/19/19 10/9/9
f 12/13/13 18/20/20 14/21/21 2/2/2
f 4/3/3 13/22/22 15/11/11 6/5/5
f 13/22/22 14/21/21 20/23/23 19/24/24
f 10/9/9 17/19/19 18/20/20 12/13/13
f 15/11/11 21/25/25 22/26/26 16/12/12
f 13/22/22 19/24/24 21/25/25 15/11/11
f 18/20/20 24/27/27 20/23/23 14/21/21
f 16/12/12 22/26/26 23/28/28 17/19/19
f 20/23/23 26/29/29 25/30/30 19/24/24
f 17/19/19 23/28/28 24/27/27 18/20/20
f 20/23/23 24/27/27 30/31/31 26/29/29
f 22/26/26 28/32/32 29/33/33 23/28/28
f 19/24/24 25/30/30 27/34/34 21/25/25
f 23/28/28 29/33/33 30/31/31 24/27/27
f 21/25/25 27/34/34 28/32/32 22/26/26
f 30/31/31 29/33/33 35/17/17 36/16/16
f 31/35/35 32/36/36 36/16/16 33/15/15
f 28/32/32 27/34/34 33/15/15 34/18/18
f 25/30/30 26/29/29 32/36/36 31/35/35
f 26/29/29 30/31/31 36/16/16 32/36/36
f 29/33/33 28/32/32 34/18/18 35/17/17
f 27/34/34 25/30/30 31/35/35 33/15/15
f 2/2/2 14/21/21 13/22/22 4/3/3
f 37/37/37 38/38/38 40/39/39 39/40/40
f 39/40/40 40/39/39 42/41/41 41/42/42
f 41/42/42 42/41/41 44/43/43 43/44/44
f 43/44/44 44/43/43 46/45/45 45/46/46
f 46/45/45 44/43/43 52/47/47 53/48/48
f 45/46/46 46/45/45 48/49/49 47/50/50
f 47/50/50 48/49/49 38/38/38 37/37/37
f 54/51/51 53/48/48 59/52/52 60/53/53
f 42/41/41 40/39/39 49/54/54 51/55/55
f 48/49/49 46/45/45 53/48/48 54/51/51
f 40/39/39 38/38/38 50/56/56 49/54/54
f 44/43/43 42/41/41 51/55/55 52/47/47
f 38/38/38 48/49/49 54/51/51 50/56/56
f 52/47/47 51/55/55 57/57/57 58/58/58
f 49/54/54 50/56/56 56/59/59 55/60/60
f 50/56/56 54/51/51 60/53/53 56/59/59
f 53/48/48 52/47/47 58/58/58 59/52/52
f 51/55/55 49/54/54 55/60/60 57/57/57
f 61/61/61 60/53/53 59/52/52
f 55/60/60 61/61/61 57/57/57
f 56/59/59 60/53/53 61/61/61
f 59/52/52 58/58/58 61/61/61
f 57/57/57 61/61/61 58/58/58
f 61/61/61 55/60/60 56/59/59
f 62/62/62 63/63/63 65/64/64 64/65/65
f 64/65/65 65/64/64 67/66/66 66/67/67
f 66/67/67 67/66/66 69/68/68 68/69/69
f 68/69/69 69/68/68 71/70/70 70/71/71
f 69/68/68 67/66/66 76/72/72 77/73/73
f 70/71/71 71/70/70 73/74/74 72/75/75
f 72/75/75 73/74/74 63/63/63 62/62/62
f 94/76/76 97/77/77 96/78/78 95/79/79
f 69/68/68 77/73/73 78/80/80 71/70/70
f 73/74/74 79/81/81 75/82/82 63/63/63
f 65/64/64 74/83/83 76/72/72 67/66/66
f 74/83/83 75/82/82 81/84/84 80/85/85
f 71/70/70 78/80/80 79/81/81 73/74/74
f 76/72/72 82/86/86 83/87/87 77/73/73
f 74/83/83 80/85/85 82/86/86 76/72/72
f 79/81/81 85/88/88 81/84/84 75/82/82
f 77/73/73 83/87/87 84/89/89 78/80/80
f 81/84/84 87/90/90 86/91/91 80/85/85
f 78/80/80 84/89/89 85/88/88 79/81/81
f 81/84/84 85/88/88 91/92/92 87/90/90
f 83/87/87 89/93/93 90/94/94 84/89/89
f 80/85/85 86/91/91 88/95/95 82/86/86
f 84/89/89 90/94/94 91/92/92 85/88/88
f 82/86/86 88/95/95 89/93/93 83/87/87
f 91/92/92 90/94/94 96/78/78 97/77/77
f 92/96/96 93/97/97 97/77/77 94/76/76
f 89/93/93 88/95/95 94/76/76 95/79/79
f 86/91/91 87/90/90 93/97/97 92/96/96
f 87/90/90 91/92/92 97/77/77 93/97/97
f 90/94/94 89/93/93 95/79/79 96/78/78
f 88/95/95 86/91/91 92/96/96 94/76/76
f 63/63/63 75/82/82 74/83/83 65/64/64
f 98/98/98 99/99/99 101/100/100 100/101/101
f 100/101/101 101/100/100 103/102/102 102/103/103
f 102/103/103 103/102/102 105/104/104 104/105/105
f 104/105/105 105/104/104 107/106/106 106/107/107
f 107/106/106 105/104/104 113/108/108 114/109/109
f 106/107/107 107/106/106 109/110/110 108/111/111
f 108/111/111 109/110/110 99/99/99 98/98/98
f 115/112/112 114/109/109 120/113/113 121/114/114
f 103/102/102 101/100/100 110/115/115 112/116/116
f 109/110/110 107/106/106 114/109/109 115/112/112
f 101/100/100 99/99/99 111/117/117 110/115/115
f 105/104/104 103/102/102 112/116/116 113/108/108
f 99/99/99 109/110/110 115/112/112 111/117/117
f 113/108/108 112/116/116 118/118/118 119/119/119
f 110/115/115 111/117/117 117/120/120 116/121/121
f 111/117/117 115/112/112 121/114/114 117/120/120
f 114/109/109 113/108/108 119/119/119 120/113/113
f 112/116/116 110/115/115 116/121/121 118/118/118
f 122/122/122 121/114/114 120/113/113
f 116/121/121 122/122/122 118/118/118
f 117/120/120 121/114/114 122/122/122
f 120/113/113 119/119/119 122/122/122
f 118/118/118 122/122/122 119/119/119
f 122/122/122 116/121/121 117/120/120
f 127/123/123 126/124/124 132/125/125 133/126/126
f 134/127/127 133/126/126 139/128/128 140/129/129
f 125/130/130 124/131/131 129/132/132 131/133/133
f 128/134/134 127/123/123 133/126/126 134/127/127
f 124/131/131 123/135/135 130/136/136 129/132/132
f 126/124/124 125/130/130 131/133/133 132/125/125
f 123/135/135 128/134/134 134/127/127 130/136/136
f 132/125/125 131/133/133 137/137/137 138/138/138
f 129/132/132 130/136/136 136/139/139 135/140/140
f 130/136/136 134/127/127 140/129/129 136/139/139
f 133/126/126 132/125/125 138/138/138 139/128/128
f 131/133/133 129/132/132 135/140/140 137/137/137
f 141/141/141 140/129/129 139/128/128
f 135/140/140 141/141/141 137/137/137
f 136/139/139 140/129/129 141/141/141
f 139/128/128 138/138/138 141/141/141
f 137/137/137 141/141/141 138/138/138
f 141/141/141 135/140/140 136/139/139
f 146/142/142 145/143/143 151/144/144 152/145/145
f 153/146/146 152/145/145 158/147/147 159/148/148
f 144/149/149 143/150/150 148/151/151 150/152/152
f 147/153/153 146/142/142 152/145/145 153/146/146
f 143/150/150 142/154/154 149/155/155 148/151/151
f 145/143/143 144/149/149 150/152/152 151/144/144
f 142/154/154 147/153/153 153/146/146 149/155/155
f 151/144/144 150/152/152 156/156/156 157/157/157
f 148/151/151 149/155/155 155/158/158 154/159/159
f 149/155/155 153/146/146 159/148/148 155/158/158
f 152/145/145 151/144/144 157/157/157 158/147/147
f 150/152/152 148/151/151 154/159/159 156/156/156
f 160/160/160 159/148/148 158/147/147
f 154/159/159 160/160/160 156/156/156
f 155/158/158 159/148/148 160/160/160
f 158/147/147 157/157/157 160/160/160
f 156/156/156 160/160/160 157/157/157
f 160/160/160 154/159/159 155/158/158
f 161/161/161 162/162/162 164/163/163 163/164/164
f 163/164/164 164/163/163 166/165/165 165/166/166
f 165/166/166 166/165/165 168/167/167 167/168/168
f 167/168/168 168/167/167 170/169/169 169/170/170
f 170/169/169 168/167/167 176/171/171 177/172/172
f 169/170/170 170/169/169 172/173/173 171/174/174
f 171/174/174 172/173/173 162/162/162 161/161/161
f 178/175/175 177/172/172 183/176/176 184/177/177
f 166/165/165 164/163/163 173/178/178 175/179/179
f 172/173/173 170/169/169 177/172/172 178/175/175
f 164/163/163 162/162/162 174/180/180 173/178/178
f 168/167/167 166/165/165 175/179/179 176/171/171
f 162/162/162 172/173/173 178/175/175 174/180/180
f 176/171/171 175/179/179 181/181/181 182/182/182
f 173/178/178 174/180/180 180/183/183 179/184/184
f 174/180/180 178/175/175 184/177/177 180/183/183
f 177/172/172 176/171/171 182/182/182 183/176/176
f 175/179/179 173/178/178 179/184/184 181/181/181
f 185/185/185 184/177/177 183/176/176
f 179/184/184 185/185/185 181/181/181
f 180/183/183 184/177/177 185/185/185
f 183/176/176 182/182/182 185/185/185
f 181/181/181 185/185/185 182/182/182
f 185/185/185 179/184/184 180/183/183
f 190/186/186 189/187/187 195/188/188 196/189/189
f 197/190/190 196/189/189 202/191/191 203/192/192
f 188/193/193 187/194/194 192/195/195 194/196/196
f 191/197/197 190/186/186 196/189/189 197/190/190
f 187/194/194 186/198/198 193/199/199 192/195/195
f 189/187/187 188/193/193 194/196/196 195/188/188
f 186/198/198 191/197/197 197/190/190 193/199/199
f 195/188/188 194/196/196 200/200/200 201/201/201
f 192/195/195 193/199/199 199/202/202 198/203/203
f 193/199/199 197/190/190 203/192/192 199/202/202
f 196/189/189 195/188/188 201/201/201 202/191/191
f 194/196/196 192/195/195 198/203/203 200/200/200
f 204/204/204 203/192/192 202/191/191
f 198/203/203 204/204/204 200/200/200
f 199/202/202 203/192/192 204/204/204
f 202/191/191 201/201/201 204/204/204
f 200/200/200 204/204/204 201/201/201
f 204/204/204 198/203/203 199/202/202
