# Blender v2.80 (sub 75) OBJ File: 'VR_Game_World.blend'
# www.blender.org
mtllib Branch1.mtl
o Branch4_Cylinder.048
v 0.008860 -0.250663 0.157900
v -0.007732 0.243048 0.154853
v -0.120908 -0.250561 0.082839
v -0.135624 0.243456 0.078021
v -0.120908 -0.250561 -0.067161
v -0.135624 0.243456 -0.071979
v 0.008860 -0.250663 -0.142100
v -0.007732 0.243048 -0.145147
v 0.138759 -0.250666 -0.067096
v 0.120518 0.242079 -0.068674
v 0.138759 -0.250666 0.082904
v 0.120518 0.242079 0.081326
v -0.193021 0.713079 0.055453
v -0.070087 0.715045 0.138029
v -0.193021 0.713079 -0.094547
v -0.070087 0.715045 -0.161971
v 0.052832 0.713677 -0.080014
v 0.052832 0.713677 0.069986
v -0.311660 1.142409 0.008754
v -0.191351 1.157095 0.094810
v -0.311660 1.142409 -0.139863
v -0.191352 1.157095 -0.202424
v -0.071810 1.167775 -0.115793
v -0.071810 1.167775 0.032824
v -0.532819 1.582762 -0.072090
v -0.420563 1.613925 0.006648
v -0.532819 1.582761 -0.208210
v -0.420563 1.613926 -0.265591
v -0.309248 1.643620 -0.184690
v -0.309248 1.643620 -0.048570
v -0.797074 1.950594 -0.153375
v -0.699814 1.986530 -0.090776
v -0.797074 1.950594 -0.269017
v -0.699815 1.986530 -0.322059
v -0.603064 2.023808 -0.256947
v -0.603064 2.023807 -0.141305
v -1.002359 2.255738 -0.210251
v -0.923700 2.287964 -0.162539
v -1.002359 2.255738 -0.303615
v -0.923700 2.287964 -0.349267
v -0.845211 2.321164 -0.300377
v -0.845211 2.321164 -0.207013
v -1.142083 2.556835 -0.246006
v -1.078845 2.584720 -0.208098
v -1.142083 2.556835 -0.321471
v -1.078845 2.584720 -0.359029
v -1.015625 2.612713 -0.320995
v -1.015626 2.612713 -0.245530
v -1.219099 2.899445 -0.268995
v -1.172262 2.920887 -0.240941
v -1.219100 2.899445 -0.325071
v -1.172262 2.920887 -0.353093
v -1.125424 2.942331 -0.325039
v -1.125424 2.942331 -0.268963
v -0.346274 1.432698 -0.052495
v -0.178123 1.876248 -0.009410
v -0.341230 1.454538 -0.120369
v -0.177075 1.880063 -0.078676
v -0.291293 1.404395 -0.157856
v -0.120129 1.847831 -0.113133
v -0.246400 1.332413 -0.127468
v -0.064230 1.811784 -0.078323
v -0.251444 1.310574 -0.059594
v -0.065278 1.807969 -0.009057
v -0.301381 1.360716 -0.022107
v -0.122225 1.840201 0.025400
v -0.131716 2.200489 -0.086379
v -0.132592 2.216290 -0.035850
v -0.086840 2.197312 -0.111405
v -0.042839 2.209936 -0.085903
v -0.043715 2.225737 -0.035374
v -0.088591 2.228914 -0.010347
v -0.168605 2.475739 -0.128629
v -0.170551 2.491874 -0.101100
v -0.144336 2.483967 -0.144185
v -0.122012 2.508330 -0.132212
v -0.123958 2.524465 -0.104683
v -0.148228 2.516237 -0.089127
v -0.153535 2.527272 -0.122820
v -0.005428 0.812453 0.046669
v 0.252056 1.015623 -0.002823
v -0.029246 0.857264 -0.012610
v 0.222082 1.052183 -0.061093
v -0.028193 0.794267 -0.070699
v 0.231281 0.995383 -0.120428
v -0.003322 0.686459 -0.069509
v 0.270456 0.902022 -0.121492
v 0.020496 0.641648 -0.010231
v 0.300431 0.865461 -0.063222
v 0.019443 0.704644 0.047858
v 0.291231 0.922262 -0.003888
v 0.462541 1.388120 -0.121715
v 0.492032 1.380301 -0.079857
v 0.480547 1.363818 -0.167617
v 0.528045 1.331697 -0.171661
v 0.557536 1.323878 -0.129803
v 0.539530 1.348180 -0.083901
v 0.499092 1.670473 -0.141307
v 0.516414 1.673763 -0.117825
v 0.510839 1.666784 -0.167999
v 0.539908 1.666385 -0.171209
v 0.557230 1.669675 -0.147727
v 0.545483 1.673364 -0.121035
v 0.528235 1.701432 -0.146058
v 0.350462 1.150072 -0.116678
v 0.368860 1.172513 -0.080911
v 0.363213 1.137649 -0.044492
v 0.339168 1.080344 -0.043838
v 0.320769 1.057903 -0.079605
v 0.326416 1.092767 -0.116024
v 0.264869 1.364403 -0.053012
v 0.246751 1.354349 -0.078140
v 0.258107 1.342416 -0.025150
v 0.233227 1.310375 -0.022416
v 0.215109 1.300321 -0.047544
v 0.221871 1.322308 -0.075406
v 0.198830 1.552021 -0.031676
v 0.188198 1.554040 -0.046090
v 0.191620 1.549757 -0.015292
v 0.173777 1.549511 -0.013322
v 0.163145 1.551531 -0.027735
v 0.170355 1.553795 -0.044119
v 0.180943 1.571023 -0.028760
v -0.787080 2.204705 -0.185628
v -0.672302 2.516104 -0.226584
v -0.810798 2.220038 -0.227110
v -0.698892 2.518783 -0.267306
v -0.796456 2.184835 -0.268536
v -0.679281 2.496154 -0.309721
v -0.758396 2.134299 -0.268480
v -0.633080 2.470847 -0.311413
v -0.734679 2.118966 -0.226998
v -0.606491 2.468168 -0.270690
v -0.749020 2.154169 -0.185572
v -0.626102 2.490797 -0.228276
v -0.675519 2.743742 -0.289600
v -0.656186 2.754835 -0.259850
v -0.659230 2.741512 -0.321787
v -0.623608 2.750375 -0.324224
v -0.604275 2.761468 -0.294474
v -0.620565 2.763698 -0.262287
v -0.713578 2.936984 -0.299703
v -0.703900 2.948312 -0.282918
v -0.705562 2.942761 -0.318287
v -0.687869 2.959865 -0.320085
v -0.678191 2.971193 -0.303299
v -0.686207 2.965416 -0.284716
v -0.702527 2.973163 -0.302241
v -0.637383 2.477557 -0.307519
v -0.630971 2.437176 -0.272904
v -0.644028 2.459896 -0.234563
v -0.663497 2.522996 -0.230836
v -0.669910 2.563377 -0.265451
v -0.656853 2.540658 -0.303793
v -0.516463 2.500925 -0.256131
v -0.514349 2.532106 -0.281637
v -0.518795 2.522276 -0.227225
v -0.519013 2.574808 -0.223826
v -0.516899 2.605990 -0.249333
v -0.514567 2.584639 -0.278239
v -0.410391 2.472254 -0.251955
v -0.406393 2.488776 -0.266478
v -0.407872 2.483557 -0.235437
v -0.401355 2.511383 -0.233443
v -0.397357 2.527904 -0.247966
v -0.399876 2.516601 -0.264484
v -0.393015 2.493097 -0.249888
v -1.042840 2.445186 -0.255222
v -0.938050 2.626341 -0.193214
v -1.056167 2.490292 -0.274135
v -0.954280 2.664410 -0.215181
v -1.045167 2.499434 -0.307551
v -0.938637 2.680229 -0.245725
v -1.020841 2.463471 -0.322054
v -0.906764 2.657979 -0.254301
v -1.007514 2.418366 -0.303142
v -0.890533 2.619911 -0.232334
v -1.018514 2.409223 -0.269726
v -0.906176 2.604091 -0.201790
v -0.922020 2.801891 -0.165512
v -0.909424 2.781362 -0.145832
v -0.908212 2.821925 -0.184551
v -0.881808 2.821430 -0.183911
v -0.869213 2.800901 -0.164232
v -0.883020 2.780867 -0.145192
v -0.936854 2.924970 -0.116996
v -0.930321 2.916461 -0.104467
v -0.929447 2.940753 -0.126006
v -0.915509 2.948028 -0.122487
v -0.908976 2.939518 -0.109959
v -0.916383 2.923735 -0.100948
v -0.926478 2.944787 -0.108506
vt 0.949615 0.232200
vt 0.950875 0.287390
vt 0.939637 0.291957
vt 0.938749 0.235174
vt 0.927863 0.293317
vt 0.928029 0.236254
vt 0.916463 0.290312
vt 0.917289 0.234310
vt 0.905508 0.285789
vt 0.906349 0.231591
vt 0.939793 0.350617
vt 0.927552 0.353687
vt 0.894756 0.284563
vt 0.895547 0.230428
vt 0.960431 0.229360
vt 0.961556 0.283770
vt 0.928266 0.665068
vt 0.920239 0.666875
vt 0.922687 0.659166
vt 0.925308 0.659638
vt 0.916416 0.347704
vt 0.927239 0.415384
vt 0.916873 0.406708
vt 0.905647 0.339055
vt 0.894756 0.337513
vt 0.950814 0.341918
vt 0.960862 0.336628
vt 0.939310 0.410578
vt 0.937778 0.482903
vt 0.927267 0.487626
vt 0.949705 0.397579
vt 0.959364 0.391162
vt 0.906763 0.394533
vt 0.895919 0.392393
vt 0.946764 0.468421
vt 0.942788 0.538875
vt 0.935702 0.550335
vt 0.909498 0.464357
vt 0.899424 0.462487
vt 0.918361 0.477579
vt 0.955878 0.461495
vt 0.904734 0.533457
vt 0.913238 0.533986
vt 0.916496 0.588182
vt 0.909858 0.589058
vt 0.950700 0.533103
vt 0.920480 0.544852
vt 0.927623 0.553412
vt 0.939536 0.591817
vt 0.945889 0.588735
vt 0.941835 0.631861
vt 0.937020 0.631312
vt 0.927955 0.599910
vt 0.922320 0.594675
vt 0.933911 0.598366
vt 0.914229 0.632312
vt 0.919097 0.629957
vt 0.923876 0.631694
vt 0.932462 0.633029
vt 0.928187 0.633582
vt 0.931017 0.658691
vt 0.933564 0.659872
vt 0.936249 0.666412
vt 0.905488 0.248705
vt 0.907492 0.445855
vt 0.897564 0.452381
vt 0.895161 0.253893
vt 0.957106 0.258642
vt 0.952538 0.456831
vt 0.942629 0.449144
vt 0.946803 0.251968
vt 0.933528 0.444496
vt 0.936811 0.243205
vt 0.925109 0.442480
vt 0.926158 0.238136
vt 0.930137 0.562737
vt 0.924463 0.560334
vt 0.916644 0.442696
vt 0.915502 0.241520
vt 0.918758 0.562096
vt 0.924146 0.640878
vt 0.921722 0.642709
vt 0.942799 0.578974
vt 0.936079 0.568328
vt 0.912689 0.567063
vt 0.905789 0.576879
vt 0.928903 0.649258
vt 0.926566 0.642996
vt 0.919343 0.648773
vt 0.917040 0.663630
vt 0.931129 0.664155
vt 0.924087 0.663483
vt 0.907096 0.250214
vt 0.908698 0.408134
vt 0.899992 0.410740
vt 0.898075 0.252322
vt 0.952080 0.255620
vt 0.949095 0.413282
vt 0.940545 0.408407
vt 0.943313 0.250010
vt 0.932636 0.406102
vt 0.934548 0.244492
vt 0.924525 0.405965
vt 0.925330 0.242556
vt 0.929083 0.577726
vt 0.924030 0.577178
vt 0.916544 0.406752
vt 0.915953 0.245560
vt 0.918956 0.577599
vt 0.923877 0.648514
vt 0.921592 0.650269
vt 0.940935 0.587881
vt 0.934640 0.580129
vt 0.913313 0.579783
vt 0.906891 0.586999
vt 0.928368 0.656036
vt 0.926162 0.650386
vt 0.919368 0.655880
vt 0.917152 0.669858
vt 0.930559 0.669903
vt 0.923859 0.669934
vt 0.929231 0.256768
vt 0.941974 0.269931
vt 0.934197 0.478971
vt 0.925858 0.474570
vt 0.917338 0.477571
vt 0.922817 0.614464
vt 0.919959 0.615105
vt 0.953285 0.295297
vt 0.964512 0.317863
vt 0.950006 0.507889
vt 0.941942 0.490846
vt 0.916213 0.262884
vt 0.892249 0.295376
vt 0.904185 0.280954
vt 0.908784 0.484539
vt 0.900469 0.492105
vt 0.929051 0.621925
vt 0.925754 0.616205
vt 0.916729 0.618754
vt 0.912592 0.636312
vt 0.932366 0.637691
vt 0.922561 0.645669
vt 0.906562 0.235833
vt 0.908566 0.432911
vt 0.898641 0.439435
vt 0.896239 0.241018
vt 0.958162 0.245766
vt 0.953595 0.443884
vt 0.943690 0.436199
vt 0.947862 0.239095
vt 0.934593 0.431553
vt 0.937874 0.230335
vt 0.926177 0.429538
vt 0.927225 0.225268
vt 0.931202 0.549751
vt 0.925530 0.547349
vt 0.917714 0.429753
vt 0.916573 0.228650
vt 0.919827 0.549111
vt 0.925214 0.627864
vt 0.922790 0.629694
vt 0.943860 0.565983
vt 0.937142 0.555340
vt 0.913761 0.554075
vt 0.906863 0.563888
vt 0.929969 0.636241
vt 0.927633 0.629981
vt 0.920412 0.635756
vt 0.918110 0.650608
vt 0.932194 0.651132
vt 0.925155 0.650460
vt 0.929014 0.234393
vt 0.941117 0.253925
vt 0.934082 0.477074
vt 0.927533 0.469625
vt 0.920916 0.470955
vt 0.926752 0.605946
vt 0.924004 0.607986
vt 0.951970 0.291866
vt 0.962036 0.328804
vt 0.948144 0.513938
vt 0.940862 0.491141
vt 0.916774 0.242508
vt 0.895334 0.295321
vt 0.905673 0.269405
vt 0.913929 0.478648
vt 0.906335 0.494262
vt 0.932061 0.622123
vt 0.929473 0.610592
vt 0.921308 0.617124
vt 0.918697 0.640668
vt 0.934435 0.647695
vt 0.926572 0.643121
vt 0.907987 0.258217
vt 0.909794 0.435945
vt 0.900843 0.441829
vt 0.898677 0.262893
vt 0.954520 0.267175
vt 0.950402 0.445840
vt 0.941469 0.438910
vt 0.945232 0.261159
vt 0.933265 0.434720
vt 0.936224 0.253259
vt 0.925675 0.432903
vt 0.926621 0.248689
vt 0.930207 0.541313
vt 0.925093 0.539146
vt 0.918044 0.433097
vt 0.917015 0.251739
vt 0.919950 0.540735
vt 0.924807 0.611756
vt 0.922622 0.613407
vt 0.941623 0.555951
vt 0.935564 0.546353
vt 0.914479 0.545213
vt 0.908259 0.554062
vt 0.929095 0.619311
vt 0.926989 0.613665
vt 0.920477 0.618874
vt 0.918401 0.632267
vt 0.931102 0.632740
vt 0.924754 0.632134
vn 0.0056 0.0075 1.0000
vn 0.0001 0.0237 0.9997
vn -0.8649 -0.0546 0.4990
vn -0.8643 -0.0223 0.5025
vn -0.8601 -0.0799 -0.5039
vn -0.8641 -0.0303 -0.5025
vn 0.0320 -0.0142 -0.9994
vn 0.0154 -0.0047 -0.9999
vn 0.8742 0.0696 -0.4806
vn 0.8707 0.0294 -0.4910
vn -0.8620 -0.1362 0.4882
vn -0.8364 -0.2060 -0.5080
vn 0.8640 0.0839 0.4964
vn 0.8676 0.0340 0.4961
vn -0.4163 0.9092 0.0000
vn 0.4036 0.8278 0.3897
vn 0.4102 0.8152 -0.4089
vn 0.0707 -0.0420 -0.9966
vn -0.7747 -0.3683 -0.5140
vn 0.1148 -0.0621 -0.9914
vn 0.8741 0.1558 -0.4600
vn 0.8428 0.1993 0.5000
vn -0.0227 0.0654 0.9976
vn -0.8382 -0.2510 0.4842
vn -0.7889 -0.3739 0.4878
vn -0.6932 -0.5062 -0.5131
vn -0.0570 0.1228 0.9908
vn 0.7904 0.3575 0.4974
vn 0.8522 0.2767 -0.4440
vn -0.0980 0.1622 0.9819
vn -0.1198 0.1515 0.9812
vn -0.7607 -0.4273 0.4887
vn 0.7871 0.4215 -0.4503
vn 0.6956 0.5271 0.4882
vn 0.1221 -0.0639 -0.9905
vn 0.6246 0.6089 0.4889
vn 0.7229 0.4950 -0.4820
vn 0.7282 0.4531 -0.5142
vn 0.6616 0.5531 0.5063
vn 0.0759 -0.0675 -0.9948
vn -0.6752 -0.5376 -0.5051
vn -0.1046 0.1208 0.9872
vn 0.7559 0.3962 0.5212
vn -0.0810 0.0930 0.9924
vn -0.7355 -0.4538 -0.5031
vn 0.0183 -0.0540 -0.9984
vn -0.7890 -0.3732 0.4880
vn 0.7813 0.3328 -0.5281
vn -0.0231 -0.0144 -0.9996
vn -0.8396 -0.2448 0.4850
vn -0.8131 -0.2946 -0.5020
vn -0.2350 0.6029 0.7624
vn -0.8212 -0.1903 -0.5380
vn 0.0419 0.0291 -0.9987
vn -0.8437 -0.1551 0.5139
vn -0.7452 0.2212 0.6290
vn -0.8178 0.2034 0.5383
vn -0.8281 0.2196 -0.5158
vn -0.7726 0.3491 -0.5302
vn 0.0703 0.0480 -0.9964
vn 0.1815 0.0302 -0.9829
vn 0.8667 -0.1637 -0.4712
vn 0.8779 -0.2937 -0.3782
vn 0.8371 -0.1982 0.5099
vn 0.8146 -0.3527 0.4606
vn 0.8807 0.0367 -0.4722
vn 0.8634 0.1642 0.4771
vn 0.0362 0.0038 0.9993
vn 0.1273 -0.1449 0.9812
vn 0.0302 0.1775 0.9837
vn 0.5889 0.7697 0.2465
vn -0.2255 0.6013 0.7665
vn -0.8592 -0.0323 -0.5106
vn 0.0530 -0.0509 -0.9973
vn -0.8489 0.0706 0.5238
vn -0.0961 0.0960 -0.9907
vn 0.6255 0.4407 -0.6439
vn -0.9152 0.2121 0.3427
vn -0.8586 -0.0060 -0.5126
vn -0.4189 0.8348 -0.3571
vn -0.0753 0.3265 0.9422
vn -0.1474 0.3567 0.9225
vn -0.7375 0.6745 0.0335
vn -0.6159 0.7877 -0.0123
vn -0.3955 0.2312 -0.8889
vn -0.3306 0.1992 -0.9225
vn 0.2655 -0.3637 -0.8929
vn 0.2082 -0.4685 -0.8586
vn 0.7376 -0.6743 -0.0344
vn 0.6159 -0.7860 -0.0533
vn 0.4228 -0.1695 -0.8902
vn 0.9546 -0.2823 -0.0955
vn 0.5061 -0.2396 0.8285
vn 0.4454 -0.3614 0.8192
vn 0.6430 -0.0490 0.7643
vn 0.9358 0.3211 -0.1454
vn 0.5820 0.4045 0.7055
vn -0.9342 0.3494 0.0719
vn -0.4674 0.1348 -0.8737
vn -0.2555 0.2431 0.9357
vn -0.5316 0.3213 -0.7837
vn 0.3899 0.2818 -0.8767
vn -0.3584 0.4431 0.8217
vn -0.9152 0.3982 0.0620
vn 0.0007 0.9963 -0.0864
vn -0.9015 -0.4088 0.1422
vn -0.4940 -0.3053 0.8141
vn -0.3724 -0.1855 0.9093
vn -0.9365 -0.3304 0.1174
vn -0.6394 -0.0825 -0.7644
vn -0.9608 0.2265 0.1599
vn -0.6273 0.3453 -0.6980
vn 0.3770 0.1042 0.9203
vn 0.8724 0.4843 -0.0658
vn 0.9113 0.3994 -0.1004
vn 0.5200 0.1683 0.8374
vn -0.7263 -0.2164 -0.6524
vn 0.0955 0.2301 -0.9685
vn 0.2614 0.2690 -0.9270
vn 0.4936 0.3553 0.7938
vn -0.4040 0.2177 0.8885
vn 0.2916 0.4773 -0.8290
vn 0.8650 0.4981 -0.0609
vn -0.0007 0.9963 0.0864
vn -0.2659 0.2212 0.9383
vn -0.3768 0.2034 0.9037
vn -0.9749 0.2196 0.0355
vn -0.9371 0.3491 -0.0074
vn -0.4990 0.0480 -0.8652
vn -0.3993 0.0302 -0.9163
vn 0.4549 -0.1637 -0.8754
vn 0.5162 -0.2937 -0.8045
vn 0.9791 -0.1982 -0.0455
vn 0.9328 -0.3527 -0.0738
vn 0.4660 0.0367 -0.8840
vn 0.9825 0.1642 -0.0875
vn 0.5890 0.0038 0.8081
vn 0.6543 -0.1449 0.7422
vn 0.5752 0.1775 0.7985
vn 0.6260 0.7697 -0.1251
vn 0.2418 0.6014 0.7615
vn -0.9978 -0.0323 0.0574
vn -0.5139 -0.0509 -0.8564
vn -0.4108 0.0706 0.9090
vn -0.6338 0.0960 -0.7675
vn 0.1583 0.4407 -0.8836
vn -0.5670 0.2121 0.7959
vn -0.9984 -0.0060 0.0554
vn -0.5470 0.8348 -0.0617
vn -0.2765 0.9502 0.1437
vn -0.1438 0.2768 0.9501
vn 0.0415 0.3743 0.9264
vn 0.1215 0.9828 0.1391
vn 0.1819 0.5609 -0.8077
vn 0.7800 0.6128 0.1265
vn 0.6499 0.2599 -0.7142
vn 0.1859 -0.4771 0.8590
vn 0.4897 -0.8692 -0.0685
vn 0.1518 -0.9810 -0.1205
vn 0.0323 -0.3843 0.9226
vn 0.0020 0.4973 -0.8676
vn 0.3167 -0.2841 -0.9050
vn 0.1651 -0.2106 -0.9635
vn 0.3123 -0.5553 0.7708
vn 0.5612 0.1324 0.8170
vn 0.3814 -0.3979 -0.8344
vn 0.2167 -0.9707 -0.1036
vn 0.9570 -0.2900 0.0079
vn -0.2174 -0.2020 0.9549
vn -0.3534 -0.1504 0.9233
vn -0.9303 0.2760 0.2415
vn -0.8347 0.3402 0.4331
vn -0.4849 0.4726 -0.7359
vn -0.4735 0.5225 -0.7091
vn 0.4904 0.1925 -0.8500
vn 0.4687 0.0338 -0.8827
vn 0.9428 -0.2482 -0.2225
vn 0.8747 -0.4279 -0.2275
vn 0.5891 0.3860 -0.7099
vn 0.9968 0.0503 0.0621
vn 0.5789 -0.4501 0.6799
vn 0.6067 -0.5498 0.5741
vn 0.5407 -0.2582 0.8006
vn 0.7369 0.5027 0.4521
vn 0.2706 0.0463 0.9616
vn -0.9986 0.0508 0.0158
vn -0.4521 0.3661 -0.8134
vn -0.4730 -0.2369 0.8486
vn -0.5965 0.5878 -0.5466
vn 0.3237 0.8858 -0.3324
vn -0.5934 -0.1366 0.7932
vn -0.9927 0.1117 0.0459
vn -0.4030 0.7269 0.5561
usemtl None
s 1
f 1/1/1 2/2/2 4/3/3 3/4/4
f 3/4/4 4/3/3 6/5/5 5/6/6
f 5/6/6 6/5/5 8/7/7 7/8/8
f 7/8/8 8/7/7 10/9/9 9/10/10
f 6/5/5 4/3/3 13/11/11 15/12/12
f 9/10/10 10/9/9 12/13/13 11/14/14
f 11/15/14 12/16/13 2/2/2 1/1/1
f 51/17/15 54/18/16 53/19/17 52/20/15
f 16/21/18 15/12/12 21/22/19 22/23/20
f 12/13/13 10/9/9 17/24/21 18/25/22
f 4/3/3 2/2/2 14/26/23 13/11/11
f 8/7/7 6/5/5 15/12/12 16/21/18
f 2/2/2 12/16/13 18/27/22 14/26/23
f 10/9/9 8/7/7 16/21/18 17/24/21
f 21/22/19 19/28/24 25/29/25 27/30/26
f 13/11/11 14/26/23 20/31/27 19/28/24
f 14/26/23 18/27/22 24/32/28 20/31/27
f 17/24/21 16/21/18 22/23/20 23/33/29
f 15/12/12 13/11/11 19/28/24 21/22/19
f 18/25/22 17/24/21 23/33/29 24/34/28
f 25/29/25 26/35/30 32/36/31 31/37/32
f 24/34/28 23/33/29 29/38/33 30/39/34
f 22/23/20 21/22/19 27/30/26 28/40/35
f 19/28/24 20/31/27 26/35/30 25/29/25
f 20/31/27 24/32/28 30/41/34 26/35/30
f 23/33/29 22/23/20 28/40/35 29/38/33
f 36/42/36 35/43/37 41/44/38 42/45/39
f 26/35/30 30/41/34 36/46/36 32/36/31
f 29/38/33 28/40/35 34/47/40 35/43/37
f 27/30/26 25/29/25 31/37/32 33/48/41
f 30/39/34 29/38/33 35/43/37 36/42/36
f 28/40/35 27/30/26 33/48/41 34/47/40
f 38/49/42 42/50/39 48/51/43 44/52/44
f 34/47/40 33/48/41 39/53/45 40/54/46
f 31/37/32 32/36/31 38/49/42 37/55/47
f 32/36/31 36/46/36 42/50/39 38/49/42
f 35/43/37 34/47/40 40/54/46 41/44/38
f 33/48/41 31/37/32 37/55/47 39/53/45
f 48/56/43 47/57/48 53/19/17 54/18/16
f 41/44/38 40/54/46 46/58/49 47/57/48
f 39/53/45 37/55/47 43/59/50 45/60/51
f 42/45/39 41/44/38 47/57/48 48/56/43
f 40/54/46 39/53/45 45/60/51 46/58/49
f 37/55/47 38/49/42 44/52/44 43/59/50
f 49/61/15 50/62/52 54/63/16 51/17/15
f 46/58/49 45/60/51 51/17/53 52/20/54
f 43/59/50 44/52/44 50/62/52 49/61/55
f 44/52/44 48/51/43 54/63/16 50/62/52
f 47/57/48 46/58/49 52/20/54 53/19/17
f 45/60/51 43/59/50 49/61/55 51/17/53
f 55/64/56 56/65/57 58/66/58 57/67/59
f 57/68/59 58/69/58 60/70/60 59/71/61
f 59/71/61 60/70/60 62/72/62 61/73/63
f 61/73/63 62/72/62 64/74/64 63/75/65
f 64/74/64 62/72/62 70/76/66 71/77/67
f 63/75/65 64/74/64 66/78/68 65/79/69
f 65/79/69 66/78/68 56/65/57 55/64/56
f 72/80/70 71/77/67 77/81/71 78/82/72
f 60/70/60 58/69/58 67/83/73 69/84/74
f 66/78/68 64/74/64 71/77/67 72/80/70
f 58/66/58 56/65/57 68/85/75 67/86/73
f 62/72/62 60/70/60 69/84/74 70/76/66
f 56/65/57 66/78/68 72/80/70 68/85/75
f 70/76/66 69/84/74 75/87/76 76/88/77
f 67/86/73 68/85/75 74/89/78 73/90/79
f 68/85/75 72/80/70 78/82/72 74/89/78
f 71/77/67 70/76/66 76/88/77 77/81/71
f 69/84/74 67/83/73 73/91/79 75/87/76
f 79/92/80 78/82/72 77/81/71
f 73/91/79 79/92/80 75/87/76
f 74/89/78 78/82/72 79/92/80
f 77/81/71 76/88/77 79/92/80
f 75/87/76 79/92/80 76/88/77
f 79/92/80 73/90/79 74/89/78
f 80/93/81 81/94/82 83/95/83 82/96/84
f 82/97/84 83/98/83 85/99/85 84/100/86
f 84/100/86 85/99/85 87/101/87 86/102/88
f 86/102/88 87/101/87 89/103/89 88/104/90
f 89/103/89 87/101/87 95/105/91 96/106/92
f 88/104/90 89/103/89 91/107/93 90/108/94
f 90/108/94 91/107/93 81/94/82 80/93/81
f 97/109/95 96/106/92 102/110/96 103/111/97
f 85/99/85 83/98/83 92/112/98 94/113/99
f 91/107/93 89/103/89 96/106/92 97/109/95
f 83/95/83 81/94/82 93/114/100 92/115/98
f 87/101/87 85/99/85 94/113/99 95/105/91
f 81/94/82 91/107/93 97/109/95 93/114/100
f 95/105/91 94/113/99 100/116/101 101/117/102
f 92/115/98 93/114/100 99/118/103 98/119/104
f 93/114/100 97/109/95 103/111/97 99/118/103
f 96/106/92 95/105/91 101/117/102 102/110/96
f 94/113/99 92/112/98 98/120/104 100/116/101
f 104/121/105 103/111/97 102/110/96
f 98/120/104 104/121/105 100/116/101
f 99/118/103 103/111/97 104/121/105
f 102/110/96 101/117/102 104/121/105
f 100/116/101 104/121/105 101/117/102
f 104/121/105 98/119/104 99/118/103
f 109/122/106 108/123/107 114/124/108 115/125/109
f 116/126/110 115/125/109 121/127/111 122/128/112
f 107/129/113 106/130/114 111/131/115 113/132/116
f 110/133/117 109/122/106 115/125/109 116/126/110
f 106/134/114 105/135/118 112/136/119 111/137/115
f 108/123/107 107/129/113 113/132/116 114/124/108
f 105/135/118 110/133/117 116/126/110 112/136/119
f 114/124/108 113/132/116 119/138/120 120/139/121
f 111/137/115 112/136/119 118/140/122 117/141/123
f 112/136/119 116/126/110 122/128/112 118/140/122
f 115/125/109 114/124/108 120/139/121 121/127/111
f 113/132/116 111/131/115 117/142/123 119/138/120
f 123/143/124 122/128/112 121/127/111
f 117/142/123 123/143/124 119/138/120
f 118/140/122 122/128/112 123/143/124
f 121/127/111 120/139/121 123/143/124
f 119/138/120 123/143/124 120/139/121
f 123/143/124 117/141/123 118/140/122
f 124/144/125 125/145/126 127/146/127 126/147/128
f 126/148/128 127/149/127 129/150/129 128/151/130
f 128/151/130 129/150/129 131/152/131 130/153/132
f 130/153/132 131/152/131 133/154/133 132/155/134
f 133/154/133 131/152/131 139/156/135 140/157/136
f 132/155/134 133/154/133 135/158/137 134/159/138
f 134/159/138 135/158/137 125/145/126 124/144/125
f 141/160/139 140/157/136 146/161/140 147/162/141
f 129/150/129 127/149/127 136/163/142 138/164/143
f 135/158/137 133/154/133 140/157/136 141/160/139
f 127/146/127 125/145/126 137/165/144 136/166/142
f 131/152/131 129/150/129 138/164/143 139/156/135
f 125/145/126 135/158/137 141/160/139 137/165/144
f 139/156/135 138/164/143 144/167/145 145/168/146
f 136/166/142 137/165/144 143/169/147 142/170/148
f 137/165/144 141/160/139 147/162/141 143/169/147
f 140/157/136 139/156/135 145/168/146 146/161/140
f 138/164/143 136/163/142 142/171/148 144/167/145
f 148/172/149 147/162/141 146/161/140
f 142/171/148 148/172/149 144/167/145
f 143/169/147 147/162/141 148/172/149
f 146/161/140 145/168/146 148/172/149
f 144/167/145 148/172/149 145/168/146
f 148/172/149 142/170/148 143/169/147
f 153/173/150 152/174/151 158/175/152 159/176/153
f 160/177/154 159/176/153 165/178/155 166/179/156
f 151/180/157 150/181/158 155/182/159 157/183/160
f 154/184/161 153/173/150 159/176/153 160/177/154
f 150/185/158 149/186/162 156/187/163 155/188/159
f 152/174/151 151/180/157 157/183/160 158/175/152
f 149/186/162 154/184/161 160/177/154 156/187/163
f 158/175/152 157/183/160 163/189/164 164/190/165
f 155/188/159 156/187/163 162/191/166 161/192/167
f 156/187/163 160/177/154 166/179/156 162/191/166
f 159/176/153 158/175/152 164/190/165 165/178/155
f 157/183/160 155/182/159 161/193/167 163/189/164
f 167/194/168 166/179/156 165/178/155
f 161/193/167 167/194/168 163/189/164
f 162/191/166 166/179/156 167/194/168
f 165/178/155 164/190/165 167/194/168
f 163/189/164 167/194/168 164/190/165
f 167/194/168 161/192/167 162/191/166
f 168/195/169 169/196/170 171/197/171 170/198/172
f 170/199/172 171/200/171 173/201/173 172/202/174
f 172/202/174 173/201/173 175/203/175 174/204/176
f 174/204/176 175/203/175 177/205/177 176/206/178
f 177/205/177 175/203/175 183/207/179 184/208/180
f 176/206/178 177/205/177 179/209/181 178/210/182
f 178/210/182 179/209/181 169/196/170 168/195/169
f 185/211/183 184/208/180 190/212/184 191/213/185
f 173/201/173 171/200/171 180/214/186 182/215/187
f 179/209/181 177/205/177 184/208/180 185/211/183
f 171/197/171 169/196/170 181/216/188 180/217/186
f 175/203/175 173/201/173 182/215/187 183/207/179
f 169/196/170 179/209/181 185/211/183 181/216/188
f 183/207/179 182/215/187 188/218/189 189/219/190
f 180/217/186 181/216/188 187/220/191 186/221/192
f 181/216/188 185/211/183 191/213/185 187/220/191
f 184/208/180 183/207/179 189/219/190 190/212/184
f 182/215/187 180/214/186 186/222/192 188/218/189
f 192/223/193 191/213/185 190/212/184
f 186/222/192 192/223/193 188/218/189
f 187/220/191 191/213/185 192/223/193
f 190/212/184 189/219/190 192/223/193
f 188/218/189 192/223/193 189/219/190
f 192/223/193 186/221/192 187/220/191
