# Blender v2.80 (sub 75) OBJ File: 'VR_Game_World.blend'
# www.blender.org
mtllib Branch2.mtl
o Branch4_Cylinder.048
v 0.008860 -0.169198 0.157900
v -0.007732 0.164057 0.154853
v -0.135624 0.164333 0.078021
v -0.120908 -0.169129 0.082839
v -0.135624 0.164333 -0.071979
v -0.120908 -0.169129 -0.067161
v -0.007732 0.164057 -0.145147
v 0.008860 -0.169197 -0.142100
v 0.120518 0.163403 -0.068674
v 0.138759 -0.169200 -0.067096
v -0.193021 0.481328 0.055453
v -0.193021 0.481328 -0.094547
v 0.120518 0.163403 0.081326
v 0.138759 -0.169200 0.082904
v -1.219100 1.957125 -0.325071
v -1.125424 1.986073 -0.268963
v -1.125424 1.986073 -0.325039
v -1.172262 1.971599 -0.353093
v -0.070087 0.482655 -0.161971
v -0.311660 0.771126 -0.139863
v -0.191352 0.781039 -0.202424
v 0.052832 0.481732 -0.080014
v 0.052832 0.481732 0.069986
v -0.070087 0.482655 0.138029
v -0.311660 0.771126 0.008754
v -0.532819 1.068364 -0.072090
v -0.532819 1.068364 -0.208210
v -0.191351 0.781039 0.094810
v -0.071810 0.788248 0.032824
v -0.071810 0.788248 -0.115793
v -0.420563 1.089399 0.006648
v -0.699814 1.340908 -0.090776
v -0.797074 1.316651 -0.153375
v -0.309248 1.109444 -0.184690
v -0.309248 1.109444 -0.048570
v -0.420563 1.089400 -0.265591
v -0.603064 1.366070 -0.141305
v -0.603064 1.366070 -0.256947
v -0.845211 1.566786 -0.300377
v -0.845211 1.566786 -0.207013
v -0.699815 1.340908 -0.322059
v -0.797074 1.316651 -0.269017
v -0.923700 1.544376 -0.162539
v -1.015626 1.763581 -0.245530
v -1.078845 1.744686 -0.208098
v -1.002359 1.522623 -0.303615
v -0.923700 1.544376 -0.349267
v -1.002359 1.522623 -0.210251
v -1.015625 1.763581 -0.320995
v -1.078845 1.744686 -0.359029
v -1.142083 1.725864 -0.246006
v -1.142083 1.725864 -0.321471
v -1.219099 1.957125 -0.268995
v -1.172262 1.971599 -0.240941
v -0.346274 0.967071 -0.052495
v -0.178123 1.266467 -0.009410
v -0.177075 1.269043 -0.078676
v -0.341230 0.981813 -0.120369
v -0.120129 1.247286 -0.113133
v -0.291293 0.947967 -0.157856
v -0.064230 1.222954 -0.078323
v -0.246400 0.899379 -0.127468
v -0.065278 1.220379 -0.009057
v -0.251444 0.884637 -0.059594
v -0.042839 1.491707 -0.085903
v -0.043715 1.502373 -0.035374
v -0.122225 1.242136 0.025400
v -0.301381 0.918483 -0.022107
v -0.088591 1.504517 -0.010347
v -0.123958 1.704014 -0.104683
v -0.148228 1.698460 -0.089127
v -0.131716 1.485330 -0.086379
v -0.086840 1.483186 -0.111405
v -0.132592 1.495996 -0.035850
v -0.144336 1.676678 -0.144185
v -0.122012 1.693123 -0.132212
v -0.170551 1.682015 -0.101100
v -0.168605 1.671124 -0.128629
v -0.153535 1.705909 -0.122820
v -0.005428 0.548406 0.046669
v 0.252056 0.685546 -0.002823
v 0.222082 0.710224 -0.061093
v -0.029246 0.578653 -0.012610
v 0.231281 0.671884 -0.120428
v -0.028193 0.536130 -0.070699
v 0.270456 0.608865 -0.121492
v -0.003322 0.463360 -0.069509
v 0.300431 0.584186 -0.063222
v 0.020496 0.433112 -0.010231
v 0.528045 0.898896 -0.171661
v 0.557536 0.893618 -0.129803
v 0.291231 0.622527 -0.003888
v 0.019443 0.475635 0.047858
v 0.539530 0.910022 -0.083901
v 0.557230 1.127031 -0.147727
v 0.545483 1.129521 -0.121035
v 0.462541 0.936981 -0.121715
v 0.480547 0.920577 -0.167617
v 0.492032 0.931703 -0.079857
v 0.510839 1.125079 -0.167999
v 0.539908 1.124810 -0.171209
v 0.516414 1.129790 -0.117825
v 0.499092 1.127569 -0.141307
v 0.528235 1.148467 -0.146058
v 0.320769 0.714085 -0.079605
v 0.339168 0.729232 -0.043838
v 0.233227 0.884503 -0.022416
v 0.215109 0.877717 -0.047544
v 0.221871 0.892558 -0.075406
v 0.163145 1.047283 -0.027735
v 0.170355 1.048812 -0.044119
v 0.363213 0.767913 -0.044492
v 0.368860 0.791446 -0.080911
v 0.264869 0.920972 -0.053012
v 0.258107 0.906131 -0.025150
v 0.326416 0.737618 -0.116024
v 0.350462 0.776299 -0.116678
v 0.246751 0.914186 -0.078140
v 0.191620 1.046086 -0.015292
v 0.173777 1.045920 -0.013322
v 0.188198 1.048977 -0.046090
v 0.198830 1.047614 -0.031676
v 0.180943 1.060441 -0.028760
v -0.787080 1.488176 -0.185628
v -0.672302 1.698370 -0.226584
v -0.698892 1.700179 -0.267306
v -0.810798 1.498526 -0.227110
v -0.679281 1.684904 -0.309721
v -0.796456 1.474764 -0.268536
v -0.633080 1.667822 -0.311413
v -0.758396 1.440652 -0.268480
v -0.606491 1.666013 -0.270690
v -0.734679 1.430302 -0.226998
v -0.623608 1.856503 -0.324224
v -0.604275 1.863991 -0.294474
v -0.626102 1.681288 -0.228276
v -0.749020 1.454064 -0.185572
v -0.620565 1.865496 -0.262287
v -0.678191 2.005555 -0.303299
v -0.686207 2.001656 -0.284716
v -0.675519 1.852026 -0.289600
v -0.659230 1.850521 -0.321787
v -0.656186 1.859514 -0.259850
v -0.705562 1.986364 -0.318287
v -0.687869 1.997909 -0.320085
v -0.703900 1.990111 -0.282918
v -0.713578 1.982464 -0.299703
v -0.702527 2.006885 -0.302241
v -0.669910 1.730279 -0.265451
v -0.663497 1.703022 -0.230836
v -0.519013 1.737995 -0.223826
v -0.516899 1.759043 -0.249333
v -0.514567 1.744631 -0.278239
v -0.397357 1.706335 -0.247966
v -0.399876 1.698706 -0.264484
v -0.644028 1.660430 -0.234563
v -0.630971 1.645094 -0.272904
v -0.516463 1.688124 -0.256131
v -0.518795 1.702536 -0.227225
v -0.656853 1.714944 -0.303793
v -0.637383 1.672351 -0.307519
v -0.514349 1.709172 -0.281637
v -0.407872 1.676401 -0.235437
v -0.401355 1.695184 -0.233443
v -0.406393 1.679924 -0.266478
v -0.410391 1.668772 -0.251955
v -0.393015 1.682841 -0.249888
v -1.042840 1.650501 -0.255222
v -0.938050 1.772780 -0.193214
v -0.954280 1.798477 -0.215181
v -1.056167 1.680947 -0.274135
v -0.938637 1.809155 -0.245725
v -1.045167 1.687118 -0.307551
v -0.906764 1.794136 -0.254301
v -1.020841 1.662843 -0.322054
v -0.890533 1.768440 -0.232334
v -1.007514 1.632397 -0.303142
v -0.881808 1.904465 -0.183911
v -0.869213 1.890608 -0.164232
v -0.906176 1.757761 -0.201790
v -1.018514 1.626226 -0.269726
v -0.883020 1.877085 -0.145192
v -0.908976 1.984175 -0.109959
v -0.916383 1.973521 -0.100948
v -0.922020 1.891276 -0.165512
v -0.908212 1.904799 -0.184551
v -0.909424 1.877419 -0.145832
v -0.929447 1.985008 -0.126006
v -0.915509 1.989919 -0.122487
v -0.930321 1.968611 -0.104467
v -0.936854 1.974355 -0.116996
v -0.926478 1.987731 -0.108506
vt 0.949615 0.232200
vt 0.950875 0.287390
vt 0.939637 0.291957
vt 0.938749 0.235174
vt 0.927863 0.293317
vt 0.928029 0.236254
vt 0.916463 0.290312
vt 0.917289 0.234310
vt 0.905508 0.285789
vt 0.906349 0.231591
vt 0.939793 0.350617
vt 0.927552 0.353687
vt 0.894756 0.284563
vt 0.895547 0.230428
vt 0.960431 0.229360
vt 0.961556 0.283770
vt 0.928266 0.665068
vt 0.920239 0.666875
vt 0.922687 0.659166
vt 0.925308 0.659638
vt 0.916416 0.347704
vt 0.927239 0.415384
vt 0.916873 0.406708
vt 0.905647 0.339055
vt 0.894756 0.337513
vt 0.950814 0.341918
vt 0.960862 0.336628
vt 0.939310 0.410578
vt 0.937778 0.482903
vt 0.927267 0.487626
vt 0.949705 0.397579
vt 0.959364 0.391162
vt 0.906763 0.394533
vt 0.895919 0.392393
vt 0.946764 0.468421
vt 0.942788 0.538875
vt 0.935702 0.550335
vt 0.909498 0.464357
vt 0.899424 0.462487
vt 0.918361 0.477579
vt 0.955878 0.461495
vt 0.904734 0.533457
vt 0.913238 0.533986
vt 0.916496 0.588182
vt 0.909858 0.589058
vt 0.950700 0.533103
vt 0.920480 0.544852
vt 0.927623 0.553412
vt 0.939536 0.591817
vt 0.945889 0.588735
vt 0.941835 0.631861
vt 0.937020 0.631312
vt 0.927955 0.599910
vt 0.922320 0.594675
vt 0.933911 0.598366
vt 0.914229 0.632312
vt 0.919097 0.629957
vt 0.923876 0.631694
vt 0.932462 0.633029
vt 0.928187 0.633582
vt 0.931017 0.658691
vt 0.933564 0.659872
vt 0.936249 0.666412
vt 0.905488 0.248705
vt 0.907492 0.445855
vt 0.897564 0.452381
vt 0.895161 0.253893
vt 0.957106 0.258642
vt 0.952538 0.456831
vt 0.942629 0.449144
vt 0.946803 0.251968
vt 0.933528 0.444496
vt 0.936811 0.243205
vt 0.925109 0.442480
vt 0.926158 0.238136
vt 0.930137 0.562737
vt 0.924463 0.560334
vt 0.916644 0.442696
vt 0.915502 0.241520
vt 0.918758 0.562096
vt 0.924146 0.640878
vt 0.921722 0.642709
vt 0.942799 0.578974
vt 0.936079 0.568328
vt 0.912689 0.567063
vt 0.905789 0.576879
vt 0.928903 0.649258
vt 0.926566 0.642996
vt 0.919343 0.648773
vt 0.917040 0.663630
vt 0.931129 0.664155
vt 0.924087 0.663483
vt 0.907096 0.250214
vt 0.908698 0.408134
vt 0.899992 0.410740
vt 0.898075 0.252322
vt 0.952080 0.255620
vt 0.949095 0.413282
vt 0.940545 0.408407
vt 0.943313 0.250010
vt 0.932636 0.406102
vt 0.934548 0.244492
vt 0.924525 0.405965
vt 0.925330 0.242556
vt 0.929083 0.577726
vt 0.924030 0.577178
vt 0.916544 0.406752
vt 0.915953 0.245560
vt 0.918956 0.577599
vt 0.923877 0.648514
vt 0.921592 0.650269
vt 0.940935 0.587881
vt 0.934640 0.580129
vt 0.913313 0.579783
vt 0.906891 0.586999
vt 0.928368 0.656036
vt 0.926162 0.650386
vt 0.919368 0.655880
vt 0.917152 0.669858
vt 0.930559 0.669903
vt 0.923859 0.669934
vt 0.929231 0.256768
vt 0.941974 0.269931
vt 0.934197 0.478971
vt 0.925858 0.474570
vt 0.917338 0.477571
vt 0.922817 0.614464
vt 0.919959 0.615105
vt 0.953285 0.295297
vt 0.964512 0.317863
vt 0.950006 0.507889
vt 0.941942 0.490846
vt 0.916213 0.262884
vt 0.892249 0.295376
vt 0.904185 0.280954
vt 0.908784 0.484539
vt 0.900469 0.492105
vt 0.929051 0.621925
vt 0.925754 0.616205
vt 0.916729 0.618754
vt 0.912592 0.636312
vt 0.932366 0.637691
vt 0.922561 0.645669
vt 0.906562 0.235833
vt 0.908566 0.432911
vt 0.898641 0.439435
vt 0.896239 0.241018
vt 0.958162 0.245766
vt 0.953595 0.443884
vt 0.943690 0.436199
vt 0.947862 0.239095
vt 0.934593 0.431553
vt 0.937874 0.230335
vt 0.926177 0.429538
vt 0.927225 0.225268
vt 0.931202 0.549751
vt 0.925530 0.547349
vt 0.917714 0.429753
vt 0.916573 0.228650
vt 0.919827 0.549111
vt 0.925214 0.627864
vt 0.922790 0.629694
vt 0.943860 0.565983
vt 0.937142 0.555340
vt 0.913761 0.554075
vt 0.906863 0.563888
vt 0.929969 0.636241
vt 0.927633 0.629981
vt 0.920412 0.635756
vt 0.918110 0.650608
vt 0.932194 0.651132
vt 0.925155 0.650460
vt 0.929014 0.234393
vt 0.941117 0.253925
vt 0.934082 0.477074
vt 0.927533 0.469625
vt 0.920916 0.470955
vt 0.926752 0.605946
vt 0.924004 0.607986
vt 0.951970 0.291866
vt 0.962036 0.328804
vt 0.948144 0.513938
vt 0.940862 0.491141
vt 0.916774 0.242508
vt 0.895334 0.295321
vt 0.905673 0.269405
vt 0.913929 0.478648
vt 0.906335 0.494262
vt 0.932061 0.622123
vt 0.929473 0.610592
vt 0.921308 0.617124
vt 0.918697 0.640668
vt 0.934435 0.647695
vt 0.926572 0.643121
vt 0.907987 0.258217
vt 0.909794 0.435945
vt 0.900843 0.441829
vt 0.898677 0.262893
vt 0.954520 0.267175
vt 0.950402 0.445840
vt 0.941469 0.438910
vt 0.945232 0.261159
vt 0.933265 0.434720
vt 0.936224 0.253259
vt 0.925675 0.432903
vt 0.926621 0.248689
vt 0.930207 0.541313
vt 0.925093 0.539146
vt 0.918044 0.433097
vt 0.917015 0.251739
vt 0.919950 0.540735
vt 0.924807 0.611756
vt 0.922622 0.613407
vt 0.941623 0.555951
vt 0.935564 0.546353
vt 0.914479 0.545213
vt 0.908259 0.554062
vt 0.929095 0.619311
vt 0.926989 0.613665
vt 0.920477 0.618874
vt 0.918401 0.632267
vt 0.931102 0.632740
vt 0.924754 0.632134
vn 0.0107 0.0114 0.9999
vn 0.0070 0.0365 0.9993
vn -0.8602 -0.0799 0.5037
vn -0.8623 -0.0329 0.5054
vn -0.8561 -0.1184 -0.5031
vn -0.8631 -0.0448 -0.5031
vn 0.0400 -0.0190 -0.9990
vn 0.0205 -0.0067 -0.9998
vn 0.8733 0.1027 -0.4763
vn 0.8717 0.0437 -0.4880
vn -0.8475 -0.1957 0.4934
vn -0.8133 -0.2990 -0.4991
vn 0.8613 0.1227 0.4930
vn 0.8682 0.0503 0.4937
vn -0.2952 0.9554 0.0000
vn 0.4073 0.8355 0.3687
vn 0.4181 0.8165 -0.3981
vn 0.0826 -0.0550 -0.9951
vn -0.7114 -0.5069 -0.4867
vn 0.1276 -0.0748 -0.9890
vn 0.8617 0.2267 -0.4540
vn 0.8233 0.2845 0.4912
vn -0.0176 0.1003 0.9948
vn -0.8018 -0.3488 0.4852
vn -0.7219 -0.4981 0.4804
vn -0.5955 -0.6541 -0.4664
vn -0.0630 0.1836 0.9810
vn 0.7381 0.4834 0.4707
vn 0.8134 0.3842 -0.4368
vn -0.1191 0.2279 0.9664
vn -0.1387 0.1995 0.9700
vn -0.6802 -0.5535 0.4806
vn 0.7126 0.5481 -0.4380
vn 0.6029 0.6673 0.4373
vn 0.1288 -0.0754 -0.9888
vn 0.5110 0.7471 0.4250
vn 0.6301 0.6259 -0.4595
vn 0.6429 0.5876 -0.4913
vn 0.5544 0.7000 0.4501
vn 0.0835 -0.0910 -0.9923
vn -0.5736 -0.6787 -0.4587
vn -0.1161 0.1541 0.9812
vn 0.6835 0.5395 0.4916
vn -0.0926 0.1163 0.9889
vn -0.6556 -0.5901 -0.4711
vn 0.0247 -0.0853 -0.9960
vn -0.7232 -0.4953 0.4812
vn 0.7238 0.4555 -0.5183
vn -0.0265 -0.0364 -0.9990
vn -0.8092 -0.3418 0.4779
vn -0.7754 -0.4029 -0.4863
vn -0.2172 0.6228 0.7517
vn -0.8178 -0.2803 -0.5026
vn -0.0325 0.0126 -0.9994
vn -0.8479 -0.2350 0.4752
vn -0.7505 0.3401 0.5667
vn -0.7869 0.2838 0.5479
vn -0.7986 0.3237 -0.5074
vn -0.7280 0.4850 -0.4845
vn 0.0837 0.0498 -0.9952
vn 0.0977 0.0933 -0.9908
vn 0.8586 -0.2352 -0.4555
vn 0.7997 -0.3786 -0.4660
vn 0.8232 -0.2632 0.5031
vn 0.7391 -0.4818 0.4708
vn 0.8858 0.0641 -0.4596
vn 0.8548 0.2215 0.4694
vn 0.0458 -0.0113 0.9989
vn 0.0183 -0.1547 0.9878
vn 0.0470 0.2524 0.9665
vn 0.5482 0.8034 0.2324
vn -0.2036 0.6769 0.7074
vn -0.8580 -0.0539 -0.5109
vn 0.0757 -0.0723 -0.9945
vn -0.8371 0.1185 0.5340
vn -0.1087 0.1354 -0.9848
vn 0.5921 0.5258 -0.6106
vn -0.9040 0.2778 0.3251
vn -0.8556 0.0134 -0.5174
vn -0.3962 0.8538 -0.3377
vn -0.0802 0.4701 0.8789
vn -0.1194 0.4531 0.8834
vn -0.5845 0.8113 0.0120
vn -0.4684 0.8833 -0.0209
vn -0.3813 0.3002 -0.8744
vn -0.3378 0.3228 -0.8841
vn 0.2144 -0.4752 -0.8533
vn 0.1187 -0.5222 -0.8445
vn 0.6249 -0.7805 -0.0180
vn 0.4716 -0.8817 -0.0135
vn 0.4236 -0.2446 -0.8722
vn 0.9309 -0.3531 -0.0933
vn 0.4670 -0.3239 0.8228
vn 0.3761 -0.4013 0.8352
vn 0.6456 -0.0932 0.7580
vn 0.9083 0.3932 -0.1424
vn 0.5632 0.4847 0.6692
vn -0.8698 0.4903 0.0563
vn -0.4496 0.1579 -0.8792
vn -0.2189 0.3192 0.9221
vn -0.5059 0.4085 -0.7597
vn 0.3847 0.3564 -0.8514
vn -0.3316 0.5364 0.7761
vn -0.8666 0.4958 0.0563
vn 0.0007 0.9964 -0.0853
vn -0.8288 -0.5507 0.0993
vn -0.3773 -0.3759 0.8464
vn -0.3575 -0.2695 0.8942
vn -0.8905 -0.4417 0.1093
vn -0.6319 -0.1299 -0.7641
vn -0.9521 0.2604 0.1605
vn -0.6319 0.3944 -0.6672
vn 0.4300 0.2005 0.8803
vn 0.7708 0.6342 -0.0597
vn 0.8306 0.5507 -0.0829
vn 0.5016 0.2255 0.8352
vn -0.6440 -0.2459 -0.7245
vn 0.1367 0.3591 -0.9232
vn 0.2284 0.3647 -0.9027
vn 0.4487 0.4474 0.7736
vn -0.4155 0.2644 0.8703
vn 0.2416 0.5786 -0.7790
vn 0.7789 0.6253 -0.0492
vn -0.0007 0.9964 0.0853
vn -0.3052 0.3401 0.8895
vn -0.3459 0.2838 0.8943
vn -0.9458 0.3237 0.0261
vn -0.8745 0.4850 0.0055
vn -0.4873 0.0498 -0.8718
vn -0.4732 0.0933 -0.8760
vn 0.4570 -0.2352 -0.8578
vn 0.4022 -0.3786 -0.8336
vn 0.9638 -0.2632 -0.0434
vn 0.8760 -0.4818 -0.0231
vn 0.4772 0.0641 -0.8765
vn 0.9711 0.2215 -0.0890
vn 0.5967 -0.0113 0.8024
vn 0.5676 -0.1547 0.8086
vn 0.5795 0.2524 0.7749
vn 0.5844 0.8034 -0.1140
vn 0.2269 0.6769 0.7003
vn -0.9970 -0.0538 0.0564
vn -0.4935 -0.0723 -0.8667
vn -0.3952 0.1185 0.9109
vn -0.6410 0.1354 -0.7555
vn 0.1493 0.5258 -0.8374
vn -0.5675 0.2779 0.7751
vn -0.9987 0.0134 0.0497
vn -0.5173 0.8538 -0.0583
vn -0.1939 0.9733 0.1228
vn -0.1412 0.4086 0.9017
vn 0.0335 0.4360 0.8993
vn 0.0969 0.9866 0.1316
vn 0.1613 0.6286 -0.7608
vn 0.7338 0.6697 0.1147
vn 0.6323 0.3357 -0.6983
vn 0.1236 -0.5178 0.8465
vn 0.3591 -0.9286 -0.0934
vn 0.1041 -0.9890 -0.1050
vn 0.0314 -0.4958 0.8679
vn 0.0085 0.6295 -0.7769
vn 0.2793 -0.2980 -0.9128
vn 0.1635 -0.3005 -0.9396
vn 0.2849 -0.6223 0.7291
vn 0.5512 0.1834 0.8140
vn 0.3604 -0.4657 -0.8082
vn 0.1860 -0.9777 -0.0978
vn 0.9369 -0.3495 0.0072
vn -0.3078 -0.2072 0.9286
vn -0.3638 -0.2340 0.9016
vn -0.8881 0.3806 0.2575
vn -0.7859 0.4908 0.3762
vn -0.4134 0.6225 -0.6646
vn -0.4117 0.6724 -0.6152
vn 0.4915 0.2439 -0.8360
vn 0.4032 0.1189 -0.9073
vn 0.9172 -0.3282 -0.2261
vn 0.7935 -0.5125 -0.3284
vn 0.5718 0.4920 -0.6565
vn 0.9954 0.0709 0.0646
vn 0.5311 -0.5772 0.6204
vn 0.4735 -0.6879 0.5501
vn 0.5394 -0.3390 0.7708
vn 0.6957 0.5776 0.4271
vn 0.2559 0.0611 0.9648
vn -0.9969 0.0756 0.0195
vn -0.4217 0.5177 -0.7444
vn -0.4570 -0.3575 0.8145
vn -0.5546 0.6703 -0.4931
vn 0.3058 0.9016 -0.3059
vn -0.5908 -0.1553 0.7917
vn -0.9877 0.1436 0.0613
vn -0.3786 0.7641 0.5223
usemtl None
s 1
f 1/1/1 2/2/2 3/3/3 4/4/4
f 4/4/4 3/3/3 5/5/5 6/6/6
f 6/6/6 5/5/5 7/7/7 8/8/8
f 8/8/8 7/7/7 9/9/9 10/10/10
f 5/5/5 3/3/3 11/11/11 12/12/12
f 10/10/10 9/9/9 13/13/13 14/14/14
f 14/15/14 13/16/13 2/2/2 1/1/1
f 15/17/15 16/18/16 17/19/17 18/20/15
f 19/21/18 12/12/12 20/22/19 21/23/20
f 13/13/13 9/9/9 22/24/21 23/25/22
f 3/3/3 2/2/2 24/26/23 11/11/11
f 7/7/7 5/5/5 12/12/12 19/21/18
f 2/2/2 13/16/13 23/27/22 24/26/23
f 9/9/9 7/7/7 19/21/18 22/24/21
f 20/22/19 25/28/24 26/29/25 27/30/26
f 11/11/11 24/26/23 28/31/27 25/28/24
f 24/26/23 23/27/22 29/32/28 28/31/27
f 22/24/21 19/21/18 21/23/20 30/33/29
f 12/12/12 11/11/11 25/28/24 20/22/19
f 23/25/22 22/24/21 30/33/29 29/34/28
f 26/29/25 31/35/30 32/36/31 33/37/32
f 29/34/28 30/33/29 34/38/33 35/39/34
f 21/23/20 20/22/19 27/30/26 36/40/35
f 25/28/24 28/31/27 31/35/30 26/29/25
f 28/31/27 29/32/28 35/41/34 31/35/30
f 30/33/29 21/23/20 36/40/35 34/38/33
f 37/42/36 38/43/37 39/44/38 40/45/39
f 31/35/30 35/41/34 37/46/36 32/36/31
f 34/38/33 36/40/35 41/47/40 38/43/37
f 27/30/26 26/29/25 33/37/32 42/48/41
f 35/39/34 34/38/33 38/43/37 37/42/36
f 36/40/35 27/30/26 42/48/41 41/47/40
f 43/49/42 40/50/39 44/51/43 45/52/44
f 41/47/40 42/48/41 46/53/45 47/54/46
f 33/37/32 32/36/31 43/49/42 48/55/47
f 32/36/31 37/46/36 40/50/39 43/49/42
f 38/43/37 41/47/40 47/54/46 39/44/38
f 42/48/41 33/37/32 48/55/47 46/53/45
f 44/56/43 49/57/48 17/19/17 16/18/16
f 39/44/38 47/54/46 50/58/49 49/57/48
f 46/53/45 48/55/47 51/59/50 52/60/51
f 40/45/39 39/44/38 49/57/48 44/56/43
f 47/54/46 46/53/45 52/60/51 50/58/49
f 48/55/47 43/49/42 45/52/44 51/59/50
f 53/61/15 54/62/52 16/63/16 15/17/15
f 50/58/49 52/60/51 15/17/53 18/20/54
f 51/59/50 45/52/44 54/62/52 53/61/55
f 45/52/44 44/51/43 16/63/16 54/62/52
f 49/57/48 50/58/49 18/20/54 17/19/17
f 52/60/51 51/59/50 53/61/55 15/17/53
f 55/64/56 56/65/57 57/66/58 58/67/59
f 58/68/59 57/69/58 59/70/60 60/71/61
f 60/71/61 59/70/60 61/72/62 62/73/63
f 62/73/63 61/72/62 63/74/64 64/75/65
f 63/74/64 61/72/62 65/76/66 66/77/67
f 64/75/65 63/74/64 67/78/68 68/79/69
f 68/79/69 67/78/68 56/65/57 55/64/56
f 69/80/70 66/77/67 70/81/71 71/82/72
f 59/70/60 57/69/58 72/83/73 73/84/74
f 67/78/68 63/74/64 66/77/67 69/80/70
f 57/66/58 56/65/57 74/85/75 72/86/73
f 61/72/62 59/70/60 73/84/74 65/76/66
f 56/65/57 67/78/68 69/80/70 74/85/75
f 65/76/66 73/84/74 75/87/76 76/88/77
f 72/86/73 74/85/75 77/89/78 78/90/79
f 74/85/75 69/80/70 71/82/72 77/89/78
f 66/77/67 65/76/66 76/88/77 70/81/71
f 73/84/74 72/83/73 78/91/79 75/87/76
f 79/92/80 71/82/72 70/81/71
f 78/91/79 79/92/80 75/87/76
f 77/89/78 71/82/72 79/92/80
f 70/81/71 76/88/77 79/92/80
f 75/87/76 79/92/80 76/88/77
f 79/92/80 78/90/79 77/89/78
f 80/93/81 81/94/82 82/95/83 83/96/84
f 83/97/84 82/98/83 84/99/85 85/100/86
f 85/100/86 84/99/85 86/101/87 87/102/88
f 87/102/88 86/101/87 88/103/89 89/104/90
f 88/103/89 86/101/87 90/105/91 91/106/92
f 89/104/90 88/103/89 92/107/93 93/108/94
f 93/108/94 92/107/93 81/94/82 80/93/81
f 94/109/95 91/106/92 95/110/96 96/111/97
f 84/99/85 82/98/83 97/112/98 98/113/99
f 92/107/93 88/103/89 91/106/92 94/109/95
f 82/95/83 81/94/82 99/114/100 97/115/98
f 86/101/87 84/99/85 98/113/99 90/105/91
f 81/94/82 92/107/93 94/109/95 99/114/100
f 90/105/91 98/113/99 100/116/101 101/117/102
f 97/115/98 99/114/100 102/118/103 103/119/104
f 99/114/100 94/109/95 96/111/97 102/118/103
f 91/106/92 90/105/91 101/117/102 95/110/96
f 98/113/99 97/112/98 103/120/104 100/116/101
f 104/121/105 96/111/97 95/110/96
f 103/120/104 104/121/105 100/116/101
f 102/118/103 96/111/97 104/121/105
f 95/110/96 101/117/102 104/121/105
f 100/116/101 104/121/105 101/117/102
f 104/121/105 103/119/104 102/118/103
f 105/122/106 106/123/107 107/124/108 108/125/109
f 109/126/110 108/125/109 110/127/111 111/128/112
f 112/129/113 113/130/114 114/131/115 115/132/116
f 116/133/117 105/122/106 108/125/109 109/126/110
f 113/134/114 117/135/118 118/136/119 114/137/115
f 106/123/107 112/129/113 115/132/116 107/124/108
f 117/135/118 116/133/117 109/126/110 118/136/119
f 107/124/108 115/132/116 119/138/120 120/139/121
f 114/137/115 118/136/119 121/140/122 122/141/123
f 118/136/119 109/126/110 111/128/112 121/140/122
f 108/125/109 107/124/108 120/139/121 110/127/111
f 115/132/116 114/131/115 122/142/123 119/138/120
f 123/143/124 111/128/112 110/127/111
f 122/142/123 123/143/124 119/138/120
f 121/140/122 111/128/112 123/143/124
f 110/127/111 120/139/121 123/143/124
f 119/138/120 123/143/124 120/139/121
f 123/143/124 122/141/123 121/140/122
f 124/144/125 125/145/126 126/146/127 127/147/128
f 127/148/128 126/149/127 128/150/129 129/151/130
f 129/151/130 128/150/129 130/152/131 131/153/132
f 131/153/132 130/152/131 132/154/133 133/155/134
f 132/154/133 130/152/131 134/156/135 135/157/136
f 133/155/134 132/154/133 136/158/137 137/159/138
f 137/159/138 136/158/137 125/145/126 124/144/125
f 138/160/139 135/157/136 139/161/140 140/162/141
f 128/150/129 126/149/127 141/163/142 142/164/143
f 136/158/137 132/154/133 135/157/136 138/160/139
f 126/146/127 125/145/126 143/165/144 141/166/142
f 130/152/131 128/150/129 142/164/143 134/156/135
f 125/145/126 136/158/137 138/160/139 143/165/144
f 134/156/135 142/164/143 144/167/145 145/168/146
f 141/166/142 143/165/144 146/169/147 147/170/148
f 143/165/144 138/160/139 140/162/141 146/169/147
f 135/157/136 134/156/135 145/168/146 139/161/140
f 142/164/143 141/163/142 147/171/148 144/167/145
f 148/172/149 140/162/141 139/161/140
f 147/171/148 148/172/149 144/167/145
f 146/169/147 140/162/141 148/172/149
f 139/161/140 145/168/146 148/172/149
f 144/167/145 148/172/149 145/168/146
f 148/172/149 147/170/148 146/169/147
f 149/173/150 150/174/151 151/175/152 152/176/153
f 153/177/154 152/176/153 154/178/155 155/179/156
f 156/180/157 157/181/158 158/182/159 159/183/160
f 160/184/161 149/173/150 152/176/153 153/177/154
f 157/185/158 161/186/162 162/187/163 158/188/159
f 150/174/151 156/180/157 159/183/160 151/175/152
f 161/186/162 160/184/161 153/177/154 162/187/163
f 151/175/152 159/183/160 163/189/164 164/190/165
f 158/188/159 162/187/163 165/191/166 166/192/167
f 162/187/163 153/177/154 155/179/156 165/191/166
f 152/176/153 151/175/152 164/190/165 154/178/155
f 159/183/160 158/182/159 166/193/167 163/189/164
f 167/194/168 155/179/156 154/178/155
f 166/193/167 167/194/168 163/189/164
f 165/191/166 155/179/156 167/194/168
f 154/178/155 164/190/165 167/194/168
f 163/189/164 167/194/168 164/190/165
f 167/194/168 166/192/167 165/191/166
f 168/195/169 169/196/170 170/197/171 171/198/172
f 171/199/172 170/200/171 172/201/173 173/202/174
f 173/202/174 172/201/173 174/203/175 175/204/176
f 175/204/176 174/203/175 176/205/177 177/206/178
f 176/205/177 174/203/175 178/207/179 179/208/180
f 177/206/178 176/205/177 180/209/181 181/210/182
f 181/210/182 180/209/181 169/196/170 168/195/169
f 182/211/183 179/208/180 183/212/184 184/213/185
f 172/201/173 170/200/171 185/214/186 186/215/187
f 180/209/181 176/205/177 179/208/180 182/211/183
f 170/197/171 169/196/170 187/216/188 185/217/186
f 174/203/175 172/201/173 186/215/187 178/207/179
f 169/196/170 180/209/181 182/211/183 187/216/188
f 178/207/179 186/215/187 188/218/189 189/219/190
f 185/217/186 187/216/188 190/220/191 191/221/192
f 187/216/188 182/211/183 184/213/185 190/220/191
f 179/208/180 178/207/179 189/219/190 183/212/184
f 186/215/187 185/214/186 191/222/192 188/218/189
f 192/223/193 184/213/185 183/212/184
f 191/222/192 192/223/193 188/218/189
f 190/220/191 184/213/185 192/223/193
f 183/212/184 189/219/190 192/223/193
f 188/218/189 192/223/193 189/219/190
f 192/223/193 191/221/192 190/220/191
