# Blender v2.80 (sub 75) OBJ File: 'VR_Game_World.blend'
# www.blender.org
mtllib TSpikes.mtl
o Plane.022_Plane.028
v 20.007809 -0.064968 -20.000082
v 15.017868 -0.096627 -19.974710
v 20.005920 -0.081671 -17.498493
v 16.981134 8.950362 -20.152102
v 15.111771 -0.449328 -22.464632
v 14.933837 -0.370634 -17.509497
v 17.380011 -0.323190 -22.531380
v 17.285162 4.239882 -17.509195
v 20.001799 0.051231 -18.750021
v 15.824992 4.853721 -20.099524
v 14.939277 0.011202 -18.745224
v 20.003099 -0.042721 -16.248983
v 13.935099 -0.425118 -19.927635
v 20.012436 -0.158055 -21.249102
v 18.553471 4.510944 -20.070681
v 15.075294 -0.422669 -21.202852
v 14.879375 -0.382091 -16.286982
v 13.842847 -0.883812 -17.460783
v 17.340536 1.018452 -21.299162
v 16.201756 -0.378124 -22.486097
v 18.764498 -0.240447 -22.499113
v 16.980631 9.725322 -18.843081
v 17.517509 -0.257940 -16.246243
v 16.036093 1.396304 -17.544014
v 18.700552 1.196506 -17.501020
v 18.761450 -0.159348 -16.247026
v 16.209244 -0.347498 -16.265905
v 15.696177 6.606144 -18.858807
v 13.920547 -0.463718 -21.178213
v 18.754274 0.077078 -21.256002
v 16.142986 0.057531 -21.258173
v 14.048907 -0.922008 -18.710966
v 18.471914 6.257503 -18.807028
vt 0.355135 0.893828
vt 0.382674 0.891685
vt 0.381126 0.902649
vt 0.355794 0.894815
vt 0.316917 0.889480
vt 0.328924 0.891021
vt 0.329796 0.902029
vt 0.318836 0.902047
vt 0.341410 0.914625
vt 0.354408 0.911563
vt 0.353648 0.927907
vt 0.341837 0.927541
vt 0.354841 0.893872
vt 0.354871 0.893881
vt 0.354871 0.893882
vt 0.354768 0.893977
vt 0.343070 0.865879
vt 0.357301 0.865064
vt 0.355037 0.892678
vt 0.344502 0.884989
vt 0.370126 0.867237
vt 0.382674 0.867720
vt 0.382200 0.880298
vt 0.367509 0.883535
vt 0.328554 0.865225
vt 0.328339 0.878588
vt 0.329886 0.914752
vt 0.318794 0.914200
vt 0.369158 0.915790
vt 0.367856 0.928898
vt 0.381921 0.915129
vt 0.330966 0.927374
vt 0.316485 0.876911
vn 0.9517 0.2615 -0.1606
vn -0.5292 0.8367 0.1407
vn -0.3431 0.7548 -0.5590
vn -0.8907 0.2995 -0.3421
vn -0.3912 0.3251 0.8610
vn 0.3756 0.8238 0.4246
vn 0.4150 0.3769 0.8281
vn -0.5101 0.6924 0.5102
vn -0.9755 0.1285 -0.1786
vn -0.8251 0.1929 0.5310
vn -0.4586 0.1875 0.8686
vn -0.1658 0.9752 -0.1463
vn 0.2612 0.8042 -0.5338
vn 0.3769 0.1881 -0.9070
vn 0.6777 0.3719 -0.6344
vn -0.2495 0.9503 -0.1860
vn -0.7446 0.2363 -0.6243
vn -0.3553 0.1483 -0.9229
vn -0.5868 0.8074 0.0617
vn 0.8896 0.3401 -0.3050
vn 0.5095 0.2331 0.8283
vn 0.7849 0.3017 0.5412
usemtl Material
s off
f 33/1/1 9/2/1 1/3/1 15/4/1
f 32/5/2 11/6/2 2/7/2 13/8/2
f 31/9/3 19/10/3 7/11/3 20/12/3
f 28/13/4 22/14/4 4/15/4 10/16/4
f 27/17/5 23/18/5 8/19/5 24/20/5
f 26/21/6 12/22/6 3/23/6 25/24/6
f 23/18/7 26/21/7 25/24/7 8/19/7
f 17/25/8 27/17/8 24/20/8 6/26/8
f 11/6/9 28/13/9 10/16/9 2/7/9
f 6/26/10 24/20/10 28/13/10 11/6/10
f 24/20/11 8/19/11 22/14/11 28/13/11
f 13/8/12 2/7/12 16/27/12 29/28/12
f 19/10/13 30/29/13 21/30/13 7/11/13
f 4/15/14 15/4/14 30/29/14 19/10/14
f 15/4/15 1/3/15 14/31/15 30/29/15
f 16/27/16 31/9/16 20/12/16 5/32/16
f 2/7/17 10/16/17 31/9/17 16/27/17
f 10/16/18 4/15/18 19/10/18 31/9/18
f 18/33/19 6/26/19 11/6/19 32/5/19
f 22/14/20 33/1/20 15/4/20 4/15/20
f 8/19/21 25/24/21 33/1/21 22/14/21
f 25/24/22 3/23/22 9/2/22 33/1/22
o Plane.023_Plane.029
v 29.981846 3.476664 -4.978191
v 29.995350 0.890581 -7.508457
v 32.503078 0.292071 -4.998168
v 32.500175 0.016550 -7.500157
v 30.000000 0.000000 -8.750000
v 30.000044 0.000057 -3.750007
v 31.264090 5.291967 -4.966803
v 29.965544 6.598583 -6.260633
v 33.750000 0.000000 -5.000000
v 28.749914 0.006464 -4.999959
v 32.500000 0.000000 -3.750000
v 32.500000 0.000000 -8.750000
v 32.510399 0.985719 -6.251588
v 31.254164 1.563221 -7.514844
v 33.750000 0.000000 -7.500000
v 28.750000 0.000000 -7.500000
v 28.748709 0.098417 -6.250159
v 33.750000 0.000000 -6.250000
v 31.270498 7.698607 -6.262405
v 31.250000 0.000000 -8.750000
v 31.250025 0.009454 -3.749866
v 28.750000 0.000000 -3.750000
v 33.750000 0.000000 -3.750000
v 28.750000 0.000000 -8.750000
vt 0.391696 0.795059
vt 0.389892 0.800350
vt 0.384652 0.793327
vt 0.386405 0.793254
vt 0.389028 0.809605
vt 0.392383 0.818855
vt 0.380196 0.819571
vt 0.383554 0.789117
vt 0.396054 0.776415
vt 0.366956 0.815642
vt 0.344066 0.813860
vt 0.366223 0.801528
vt 0.379025 0.790988
vt 0.389978 0.785895
vt 0.369586 0.792602
vt 0.374868 0.784127
vt 0.362502 0.841199
vt 0.328008 0.849155
vt 0.381781 0.836797
vt 0.348881 0.791476
vt 0.360147 0.783101
vt 0.335283 0.800261
vt 0.396054 0.833127
vt 0.368020 0.776254
vn -0.6312 0.4475 0.6336
vn 0.6347 0.3109 0.7075
vn 0.7402 0.2208 -0.6351
vn -0.7621 0.2524 -0.5962
vn -0.9279 0.2276 0.2952
vn 0.3515 0.8724 -0.3398
vn 0.4437 0.8633 0.2405
vn -0.1443 0.2042 -0.9682
vn -0.4319 0.3805 0.8177
vn 0.9477 0.2001 0.2485
vn -0.1888 0.6976 -0.6912
vn 0.4654 0.7466 -0.4754
vn -0.1943 0.2637 0.9448
vn 0.1155 0.9866 0.1155
vn -0.3195 0.8921 -0.3195
usemtl Material
s off
f 55/34/23 39/35/23 34/36/23 43/37/23
f 54/38/24 44/39/24 36/40/24 40/41/24
f 52/42/25 46/43/25 37/44/25 47/45/25
f 50/46/26 41/47/26 35/48/26 49/49/26
f 43/37/27 34/36/27 41/47/27 50/46/27
f 46/43/28 51/50/28 48/51/28 37/44/28
f 36/40/29 42/52/29 51/50/29 46/43/29
f 41/47/30 52/42/30 47/45/30 35/48/30
f 34/36/31 40/41/31 52/42/31 41/47/31
f 40/41/32 36/40/32 46/43/32 52/42/32
f 35/48/33 47/45/33 53/53/33 38/54/33
f 47/45/34 37/44/34 45/55/34 53/53/34
f 39/35/35 54/38/35 40/41/35 34/36/35
f 44/39/36 56/56/36 42/52/36 36/40/36
f 49/49/37 35/48/37 38/54/37 57/57/37
o Plane.024_Plane.030
v -4.982416 9.072952 -5.033588
v -5.000000 0.000000 -7.500000
v -4.994892 2.636002 -2.476139
v -7.507951 0.735062 -5.002721
v -2.499998 0.000130 -5.000000
v -2.500000 0.000000 -2.500000
v -7.500270 0.024980 -2.499774
v -7.451674 -0.274267 -7.477396
v -4.981672 9.457152 -3.724702
v -8.750000 0.000000 -5.000000
v -3.726381 2.840566 -5.010516
v -4.996995 1.550437 -6.265627
v -5.000000 0.000000 -1.250000
v -6.284851 7.850955 -5.029065
v -2.499980 0.001372 -3.749996
v -3.747056 0.354091 -2.496795
v -7.509758 0.902162 -3.747587
v -7.500000 0.000000 -1.250000
v -8.750000 0.000000 -2.500000
v -6.257611 1.714560 -2.484480
v -7.500033 0.003002 -6.250030
v -6.249601 -0.054141 -7.499092
v -2.500000 0.000000 -6.250000
v -3.750000 0.000000 -7.500000
v -3.748779 0.146826 -6.251480
v -6.254353 0.980496 -6.259882
v -8.750000 0.000000 -6.250000
v -6.250000 0.000000 -1.250000
v -8.750000 0.000000 -3.750000
v -3.750000 0.000000 -1.250000
v -3.721970 3.370950 -3.740983
v -6.287302 8.403154 -3.727522
vt 0.338293 0.834627
vt 0.334020 0.838191
vt 0.336060 0.835305
vt 0.339494 0.832124
vt 0.349071 0.821767
vt 0.337294 0.821209
vt 0.336444 0.813608
vt 0.349473 0.817348
vt 0.375453 0.828861
vt 0.366008 0.822464
vt 0.371314 0.815069
vt 0.382443 0.821835
vt 0.355802 0.835583
vt 0.349112 0.834296
vt 0.351079 0.824183
vt 0.356659 0.825772
vt 0.364342 0.805041
vt 0.354810 0.808441
vt 0.351237 0.790680
vt 0.366301 0.783937
vt 0.341705 0.804230
vt 0.339729 0.792655
vt 0.334376 0.806320
vt 0.382768 0.803501
vt 0.391772 0.777012
vt 0.391772 0.812830
vt 0.361818 0.838107
vt 0.364344 0.832090
vt 0.371513 0.836029
vt 0.343031 0.834553
vt 0.342750 0.828247
vt 0.336414 0.827320
vn -0.6348 0.7272 -0.2613
vn 0.9274 0.3656 -0.0788
vn -0.5497 0.8335 -0.0560
vn -0.1804 0.4841 0.8562
vn -0.1714 0.6811 -0.7119
vn 0.4230 0.7477 -0.5118
vn 0.5866 0.1885 -0.7876
vn 0.6334 0.5225 -0.5708
vn -0.3998 0.8057 -0.4371
vn -0.7123 0.2143 -0.6684
vn -0.1210 0.1673 -0.9784
vn -0.2736 0.9228 -0.2714
vn -0.4874 0.7145 0.5019
vn -0.3316 0.8897 0.3137
vn 0.5067 0.5486 0.6650
vn 0.9772 0.1995 -0.0727
vn 0.6359 0.1872 0.7487
vn 0.6915 0.4567 0.5596
vn -0.9852 0.1648 -0.0480
vn -0.7572 0.2007 0.6216
vn -0.1422 0.1794 0.9735
usemtl Material
s off
f 89/58/38 66/59/38 58/60/38 71/61/38
f 88/62/39 72/63/39 62/64/39 68/65/39
f 86/66/40 74/67/40 61/68/40 67/69/40
f 85/70/41 70/71/41 60/72/41 77/73/41
f 83/74/42 69/75/42 59/76/42 79/77/42
f 69/75/43 82/78/43 81/79/43 59/76/43
f 58/60/44 68/65/44 82/78/44 69/75/44
f 68/65/45 62/64/45 80/80/45 82/78/45
f 78/81/46 83/74/46 79/77/46 65/82/46
f 61/68/47 71/61/47 83/74/47 78/81/47
f 71/61/48 58/60/48 69/75/48 83/74/48
f 67/69/49 61/68/49 78/81/49 84/83/49
f 75/84/50 85/70/50 77/73/50 64/85/50
f 76/86/51 64/85/51 74/67/51 86/66/51
f 70/71/52 87/87/52 73/88/52 60/72/52
f 66/59/53 88/62/53 68/65/53 58/60/53
f 60/72/54 73/88/54 88/62/54 66/59/54
f 73/88/55 63/89/55 72/63/55 88/62/55
f 74/67/56 89/58/56 71/61/56 61/68/56
f 64/85/57 77/73/57 89/58/57 74/67/57
f 77/73/58 60/72/58 66/59/58 89/58/58
o Plane.025_Plane.031
v 5.242695 7.436047 19.595575
v 2.728250 -0.151009 19.764996
v 7.614710 -0.960429 19.948828
v 4.880918 -1.075497 17.569078
v 5.126184 -0.833119 22.264727
v 2.574420 -0.566741 22.446613
v 2.436809 -1.075055 17.390532
v 6.267413 1.594123 19.954458
v 5.226831 4.138732 20.915930
v 4.162692 6.568711 19.426275
v 5.102505 4.134904 18.496731
v 2.711325 -0.559034 21.087122
v 3.962245 -0.730580 22.290030
v 7.672432 -0.778296 18.661570
v 6.374298 -0.764992 17.461187
v 2.625015 -0.972157 18.551413
v 3.502738 -1.095601 17.529442
v 7.423962 -1.085078 21.303299
v 6.089520 -0.965814 22.471121
v 6.037745 -0.494302 21.319872
v 3.651849 0.855951 18.608534
v 6.295301 -0.759712 18.736376
v 4.196195 4.207688 20.775055
vt 0.358720 0.777776
vt 0.358633 0.777743
vt 0.358744 0.777630
vt 0.358748 0.777647
vt 0.370962 0.769056
vt 0.358877 0.777917
vt 0.359826 0.745519
vt 0.376574 0.747272
vt 0.345377 0.802528
vt 0.322045 0.799150
vt 0.322917 0.777680
vt 0.351820 0.778422
vt 0.358439 0.809885
vt 0.349154 0.815767
vt 0.388512 0.758311
vt 0.389110 0.744135
vt 0.386479 0.775638
vt 0.339051 0.755531
vt 0.341720 0.739923
vt 0.318293 0.758451
vt 0.386312 0.791455
vt 0.389110 0.808892
vt 0.370959 0.807957
vn -0.2821 0.4086 0.8680
vn -0.3380 0.2701 -0.9016
vn 0.6351 0.5481 0.5442
vn 0.8723 0.1858 0.4523
vn 0.6207 0.3226 0.7146
vn -0.5248 0.6652 -0.5311
vn -0.8480 0.2284 -0.4783
vn -0.3381 0.2190 -0.9153
vn 0.5636 0.3083 -0.7663
vn 0.8878 0.1593 -0.4318
vn 0.5767 0.6270 -0.5238
vn -0.9304 0.2516 0.2666
vn -0.5912 0.4379 0.6773
vn -0.0288 0.2784 0.9600
usemtl Material
s off
f 112/90/59 98/91/59 90/92/59 99/93/59
f 110/94/60 100/95/60 93/96/60 106/97/60
f 109/98/61 107/99/61 92/100/61 97/101/61
f 98/91/62 109/98/62 97/101/62 90/92/62
f 94/102/63 108/103/63 109/98/63 98/91/63
f 105/104/64 110/94/64 106/97/64 96/105/64
f 91/106/65 99/93/65 110/94/65 105/104/65
f 99/93/66 90/92/66 100/95/66 110/94/66
f 100/95/67 111/107/67 104/108/67 93/96/67
f 90/92/68 97/101/68 111/107/68 100/95/68
f 97/101/69 92/100/69 103/109/69 111/107/69
f 101/110/70 112/90/70 99/93/70 91/106/70
f 95/111/71 102/112/71 112/90/71 101/110/71
f 102/112/72 94/102/72 98/91/72 112/90/72
o Plane.026_Plane.032
v -15.074785 3.681935 10.117116
v -15.000000 0.000000 5.000000
v -17.500000 0.000000 10.000000
v -12.504038 0.532141 10.016926
v -15.149014 7.337013 7.640019
v -12.500000 0.000000 5.000000
v -12.511466 1.510657 7.528831
v -17.500000 0.000000 7.500000
v -13.810744 4.354833 10.138516
v -15.000162 0.007954 11.250304
v -15.009674 0.476370 6.256062
v -13.750000 0.000000 5.000000
v -16.256350 0.238040 10.007572
v -11.250000 0.000000 10.000000
v -15.187172 9.215487 8.984489
v -16.250000 0.000000 5.000000
v -12.500064 0.008410 6.250107
v -12.521590 2.845020 8.822391
v -13.861201 7.971838 7.652139
v -11.250000 0.000000 7.500000
v -17.500000 0.000000 6.250000
v -17.500000 0.000000 8.750000
v -16.272324 0.836957 7.515972
v -12.500000 0.000000 11.250000
v -13.750220 0.015746 11.250602
v -16.293970 1.648432 8.791945
v -11.250000 0.000000 8.750000
v -13.883689 9.584083 8.993867
v -13.758449 0.605666 6.257708
v -11.250000 0.000000 6.250000
v -16.250000 0.000000 6.250000
v -16.250000 0.000000 11.250000
vt 0.329452 0.822367
vt 0.331808 0.815208
vt 0.344377 0.809475
vt 0.336688 0.824781
vt 0.383629 0.828599
vt 0.371314 0.815680
vt 0.382625 0.807590
vt 0.393631 0.817592
vt 0.365126 0.807012
vt 0.362647 0.797323
vt 0.370129 0.792713
vt 0.374737 0.800195
vt 0.327224 0.788979
vt 0.346532 0.804437
vt 0.353876 0.802858
vt 0.333518 0.794567
vt 0.350545 0.821259
vt 0.329534 0.791947
vt 0.334879 0.797771
vt 0.362273 0.827206
vt 0.333176 0.807347
vt 0.332450 0.801188
vt 0.339072 0.800458
vt 0.343383 0.805411
vt 0.345722 0.841288
vt 0.362703 0.850886
vt 0.333059 0.837630
vt 0.346394 0.794044
vt 0.353621 0.792831
vt 0.339887 0.793377
vt 0.360380 0.790564
vt 0.393631 0.860204
vn -0.6048 0.4042 0.6862
vn -0.1842 0.9655 -0.1842
vn 0.2247 0.9466 -0.2310
vn 0.9561 0.2012 -0.2131
vn -0.9701 0.1579 -0.1843
vn 0.5764 0.3606 0.7332
vn -0.0808 0.2677 0.9601
vn -0.6934 0.6843 -0.2258
vn -0.5596 0.7157 0.4179
vn -0.8362 0.1594 0.5247
vn 0.8335 0.4906 -0.2541
vn 0.7072 0.5161 0.4832
vn -0.2228 0.5921 -0.7744
vn -0.0946 0.2045 0.9743
vn 0.8002 0.1864 0.5700
vn -0.0472 0.9174 -0.3952
vn -0.0520 0.1906 -0.9803
vn 0.6037 0.2372 -0.7611
vn 0.4577 0.7653 -0.4526
vn -0.3032 0.9034 -0.3032
vn -0.6523 0.2344 -0.7208
usemtl Material
s off
f 144/113/73 122/114/73 113/115/73 125/116/73
f 143/117/74 123/118/74 114/119/74 128/120/74
f 141/121/75 129/122/75 118/123/75 124/124/75
f 140/125/76 130/126/76 119/127/76 131/128/76
f 138/129/77 127/130/77 117/131/77 135/132/77
f 137/133/78 136/134/78 116/135/78 121/136/78
f 122/114/79 137/133/79 121/136/79 113/115/79
f 134/137/80 138/129/80 135/132/80 120/138/80
f 115/139/81 125/116/81 138/129/81 134/137/81
f 125/116/82 113/115/82 127/130/82 138/129/82
f 130/126/83 139/140/83 132/141/83 119/127/83
f 116/135/84 126/142/84 139/140/84 130/126/84
f 127/130/85 140/125/85 131/128/85 117/131/85
f 113/115/86 121/136/86 140/125/86 127/130/86
f 121/136/87 116/135/87 130/126/87 140/125/87
f 123/118/88 141/121/88 124/124/88 114/119/88
f 117/131/89 131/128/89 141/121/89 123/118/89
f 131/128/90 119/127/90 129/122/90 141/121/90
f 119/127/91 132/141/91 142/143/91 129/122/91
f 120/138/92 135/132/92 143/117/92 133/144/92
f 135/132/93 117/131/93 123/118/93 143/117/93
o Plane.027_Plane.033
v 20.008394 0.581539 -44.979042
v 14.997905 0.210766 -44.992405
v 20.000000 0.000000 -47.500000
v 20.031849 -0.216226 -42.522087
v 15.000000 0.000000 -47.500000
v 14.995226 -0.129291 -42.510658
v 17.522930 10.209621 -44.632030
v 17.491571 -0.213307 -42.515827
v 17.503244 1.444365 -47.465542
v 20.000000 0.000000 -48.750000
v 20.000437 0.030256 -43.748726
v 14.999931 0.000244 -43.750042
v 16.223742 6.824487 -44.754036
v 21.250000 0.000000 -45.000000
v 20.004551 0.315299 -46.240559
v 14.999084 0.092179 -46.247238
v 18.818018 8.156016 -44.706043
v 21.250000 0.000000 -47.500000
v 17.511265 5.086662 -43.535847
v 16.239386 -0.291153 -42.523518
v 18.750296 -0.090515 -42.504372
v 17.500000 0.000000 -48.750000
v 17.521048 9.370770 -45.969357
v 16.248676 0.344485 -47.491783
v 18.754629 0.555250 -47.486752
v 18.803581 6.425854 -46.057552
v 16.231003 4.938993 -46.102081
v 16.250000 0.000000 -48.750000
v 16.243307 1.641136 -43.681221
v 21.250000 0.000000 -46.250000
v 21.250048 -0.000366 -43.750031
v 18.769348 2.319736 -43.652252
v 18.750000 0.000000 -48.750000
vt 0.354519 0.681860
vt 0.340342 0.683982
vt 0.348330 0.676566
vt 0.365149 0.647975
vt 0.369068 0.695678
vt 0.362801 0.667555
vt 0.363096 0.631030
vt 0.363628 0.655622
vt 0.368177 0.662928
vt 0.362475 0.641908
vt 0.370485 0.668597
vt 0.380454 0.670680
vt 0.363269 0.654326
vt 0.353994 0.668830
vt 0.356770 0.661396
vt 0.363283 0.665124
vt 0.385236 0.681837
vt 0.388637 0.673984
vt 0.385537 0.693447
vt 0.374427 0.659380
vt 0.382951 0.661782
vt 0.387892 0.710866
vt 0.388637 0.732208
vt 0.367149 0.732947
vt 0.351396 0.713843
vt 0.346607 0.663781
vt 0.350496 0.657507
vt 0.340663 0.670133
vt 0.333585 0.676897
vt 0.342514 0.699640
vt 0.333326 0.692700
vt 0.366304 0.657019
vt 0.359348 0.654441
vn 0.8266 0.1830 0.5322
vn -0.5442 0.1724 0.8211
vn -0.3930 0.2065 -0.8960
vn 0.7045 0.2778 -0.6531
vn 0.2604 0.1991 -0.9448
vn 0.8036 0.4278 -0.4137
vn 0.9745 0.1750 -0.1405
vn -0.6954 0.3508 -0.6271
vn -0.9630 0.2121 -0.1664
vn -0.8982 0.3077 -0.3140
vn -0.3330 0.7713 -0.5424
vn -0.8171 0.2246 0.5310
vn -0.4223 0.6880 0.5902
vn -0.4203 0.2629 0.8685
vn 0.1239 0.9845 -0.1239
vn 0.3364 0.9364 -0.0998
vn 0.2350 0.9487 0.2117
vn 0.3969 0.1746 0.9011
vn 0.3073 0.2561 0.9165
vn 0.5601 0.5535 0.6164
vn 0.2645 0.7582 -0.5959
vn 0.2112 0.9543 -0.2112
usemtl Material
s off
f 176/145/94 155/146/94 145/147/94 161/148/94
f 173/149/95 163/150/95 151/151/95 157/152/95
f 171/153/96 167/154/96 153/155/96 168/156/96
f 170/157/97 159/158/97 147/159/97 169/160/97
f 167/154/98 170/157/98 169/160/98 153/155/98
f 151/151/99 161/148/99 170/157/99 167/154/99
f 161/148/100 145/147/100 159/158/100 170/157/100
f 160/161/101 171/153/101 168/156/101 149/162/101
f 146/163/102 157/152/102 171/153/102 160/161/102
f 157/152/103 151/151/103 167/154/103 171/153/103
f 168/156/104 153/155/104 166/164/104 172/165/104
f 156/166/105 173/149/105 157/152/105 146/163/105
f 150/167/106 164/168/106 173/149/106 156/166/106
f 164/168/107 152/169/107 163/150/107 173/149/107
f 159/158/108 174/170/108 162/171/108 147/159/108
f 145/147/109 158/172/109 174/170/109 159/158/109
f 155/146/110 175/173/110 158/172/110 145/147/110
f 163/150/111 176/145/111 161/148/111 151/151/111
f 152/169/112 165/174/112 176/145/112 163/150/112
f 165/174/113 148/175/113 155/146/113 176/145/113
f 153/155/114 169/160/114 177/176/114 166/164/114
f 169/160/115 147/159/115 154/177/115 177/176/115
o Plane.028_Plane.034
v 34.791836 7.525532 -44.798088
v 35.001957 0.116859 -47.498600
v 37.525993 -0.324504 -44.995026
v 37.467979 -0.462963 -47.538219
v 34.965954 -0.153007 -43.809628
v 36.183079 4.956942 -44.869854
v 34.799454 7.460331 -46.184002
v 33.748486 -0.579351 -44.970684
v 37.459549 -0.233110 -43.844330
v 33.750000 0.000000 -47.500000
v 37.531952 -0.349589 -46.163334
v 36.234631 -0.613009 -47.551746
v 36.119335 6.310859 -46.134563
v 33.744465 0.339006 -46.242275
v 36.217297 -0.165714 -43.861668
v 33.727341 -0.745761 -43.808483
vt 0.347546 0.859472
vt 0.346839 0.815474
vt 0.370763 0.729034
vt 0.366067 0.825992
vt 0.347044 0.800817
vt 0.342819 0.795202
vt 0.347843 0.791031
vt 0.364583 0.758900
vt 0.366667 0.800437
vt 0.365610 0.737150
vt 0.365439 0.791164
vt 0.370763 0.795007
vt 0.363805 0.748231
vt 0.354983 0.787367
vt 0.357729 0.786809
vt 0.358394 0.789242
vn -0.7108 0.1730 0.6818
vn 0.6454 0.2977 0.7035
vn -0.6699 0.2194 -0.7093
vn 0.6756 0.2762 -0.6836
vn 0.1379 0.1892 -0.9722
vn 0.7810 0.5680 0.2596
vn 0.9699 0.2225 0.0985
vn -0.9898 0.1358 0.0422
vn 0.1960 0.1542 0.9684
usemtl Material
s off
f 193/178/116 182/179/116 178/180/116 185/181/116
f 192/182/117 186/183/117 180/184/117 183/185/117
f 191/186/118 184/187/118 179/188/118 187/189/118
f 190/190/119 188/191/119 181/192/119 189/193/119
f 184/187/120 190/190/120 189/193/120 179/188/120
f 178/180/121 183/185/121 190/190/121 184/187/121
f 183/185/122 180/184/122 188/191/122 190/190/122
f 185/181/123 178/180/123 184/187/123 191/186/123
f 182/179/124 192/182/124 183/185/124 178/180/124
o Plane.029_Plane.035
v 40.000000 0.000000 -20.000000
v 42.483746 -0.177186 -20.012440
v 40.000000 0.000000 -22.500000
v 42.639889 1.950544 -22.450125
v 41.249985 -0.000107 -20.000006
v 43.744015 -0.381128 -20.026611
v 40.000000 0.000000 -21.250000
v 42.500000 0.000000 -23.750000
v 42.926090 5.934875 -21.043478
v 41.258465 0.142654 -22.496552
v 43.744370 -0.252596 -22.518278
v 43.745304 -0.251372 -21.268309
v 41.603149 6.543526 -21.071081
v 41.250000 0.000000 -23.750000
v 43.748985 -0.065169 -23.754936
vt 0.374691 0.700559
vt 0.373859 0.720843
vt 0.351816 0.786678
vt 0.355822 0.789658
vt 0.332841 0.835020
vt 0.328413 0.806898
vt 0.368936 0.839166
vt 0.340228 0.903232
vt 0.365726 0.798000
vt 0.365021 0.788919
vt 0.374691 0.803799
vt 0.368891 0.812764
vt 0.339106 0.785731
vt 0.349364 0.779263
vt 0.323179 0.790968
vn -0.0922 0.2672 -0.9592
vn 0.8811 0.2167 -0.4204
vn 0.6970 0.2011 0.6883
vn -0.6863 0.3116 -0.6572
vn -0.6793 0.2776 0.6793
vn 0.0436 0.1610 0.9860
vn -0.4688 0.6963 -0.5436
vn 0.6022 0.6401 -0.4771
usemtl Material
s off
f 206/194/125 202/195/125 197/196/125 203/197/125
f 202/195/126 205/198/126 204/199/126 197/196/126
f 195/200/127 199/201/127 205/198/127 202/195/127
f 200/202/128 206/194/128 203/197/128 196/203/128
f 194/204/129 198/205/129 206/194/129 200/202/129
f 198/205/130 195/200/130 202/195/130 206/194/130
f 203/197/131 197/196/131 201/206/131 207/207/131
f 197/196/132 204/199/132 208/208/132 201/206/132
o Plane.030_Plane.036
v 30.000000 0.000000 25.000000
v 25.000000 0.000000 30.000000
v 25.000000 0.000000 25.000000
v 30.000000 0.000000 27.500000
v 27.500000 0.000000 30.000000
v 24.993418 0.590249 27.501896
v 27.502363 0.840875 24.990959
v 27.523161 8.248427 27.526478
v 30.000000 0.000000 26.250000
v 26.250000 0.000000 30.000000
v 24.994261 0.514502 26.248060
v 26.247395 0.624644 24.993284
v 30.000000 0.000000 28.750000
v 28.750000 0.000000 30.000000
v 24.999998 0.000270 28.750004
v 28.750071 0.007098 24.999924
v 27.522470 8.002727 26.219824
v 27.503326 1.184743 28.762074
v 26.268057 7.559002 27.515989
v 28.763569 1.386026 27.504450
v 23.750000 0.000000 27.500000
v 27.500000 0.000000 23.750000
v 28.750000 0.000000 23.750000
v 26.250000 0.000000 23.750000
v 23.750000 0.000000 28.750000
v 28.750212 0.021594 28.750219
v 26.246260 0.896870 28.759140
v 26.273880 7.255549 26.249847
v 28.762165 1.242805 26.245314
v 23.750000 0.000000 26.250000
vt 0.354304 0.777011
vt 0.354814 0.765997
vt 0.363094 0.764646
vt 0.364445 0.772926
vt 0.338394 0.752605
vt 0.336971 0.746699
vt 0.363701 0.784155
vt 0.369652 0.794537
vt 0.337343 0.795713
vt 0.339890 0.784080
vt 0.333530 0.740831
vt 0.335192 0.749640
vt 0.336626 0.772657
vt 0.337992 0.764722
vt 0.345928 0.766087
vt 0.346290 0.777269
vt 0.314693 0.837037
vt 0.326019 0.811012
vt 0.348659 0.812523
vt 0.340717 0.848363
vt 0.373554 0.771119
vt 0.375361 0.780228
vt 0.379911 0.789453
vt 0.326396 0.781030
vt 0.327325 0.771729
vt 0.314038 0.803348
vt 0.321701 0.791367
vt 0.369085 0.811283
vt 0.379214 0.803572
vt 0.379911 0.865792
vn 0.4109 0.8162 -0.4062
vn -0.0808 0.1770 -0.9809
vn -0.0743 0.1774 0.9813
vn 0.4451 0.7847 0.4314
vn -0.2247 0.9482 0.2245
vn 0.3023 0.9023 -0.3075
vn -0.0746 0.8589 -0.5067
vn 0.6745 0.2061 0.7089
vn 0.3881 0.8290 0.4026
vn -0.7169 0.2278 0.6589
vn -0.3211 0.8908 0.3213
vn -0.0883 0.7628 0.6406
vn -0.6975 0.2388 -0.6756
vn -0.9826 0.1831 -0.0302
vn -0.4904 0.8521 -0.1829
vn 0.6550 0.2113 -0.7255
vn 0.9834 0.1790 -0.0279
vn 0.7276 0.6848 -0.0395
vn -0.4057 0.9136 -0.0278
usemtl Material
s off
f 237/209/133 217/210/133 209/211/133 224/212/133
f 236/213/134 225/214/134 215/215/134 220/216/134
f 235/217/135 226/218/135 216/219/135 227/220/135
f 234/221/136 221/222/136 212/223/136 228/224/136
f 233/225/137 223/226/137 214/227/137 229/228/137
f 215/215/138 224/212/138 231/229/138 230/230/138
f 220/216/139 215/215/139 230/230/139 232/231/139
f 226/218/140 234/221/140 228/224/140 216/219/140
f 213/232/141 222/233/141 234/221/141 226/218/141
f 223/226/142 235/217/142 227/220/142 214/227/142
f 210/234/143 218/235/143 235/217/143 223/226/143
f 218/235/144 213/232/144 226/218/144 235/217/144
f 219/236/145 236/213/145 220/216/145 211/237/145
f 214/227/146 227/220/146 236/213/146 219/236/146
f 227/220/147 216/219/147 225/214/147 236/213/147
f 225/214/148 237/209/148 224/212/148 215/215/148
f 216/219/149 228/224/149 237/209/149 225/214/149
f 228/224/150 212/223/150 217/210/150 237/209/150
f 229/228/151 214/227/151 219/236/151 238/238/151
o Plane.031_Plane.037
v 15.029673 5.354631 40.017616
v 12.495114 0.432897 40.001427
v 15.000025 0.004338 37.499943
v 12.500000 0.000000 37.500000
v 16.250151 0.010686 40.000038
v 15.000717 0.129423 41.251514
v 13.730476 6.797269 40.022362
v 15.022507 4.061529 38.729191
v 12.500000 0.000000 41.250000
v 16.250000 0.000000 37.500000
v 12.497268 0.242135 38.748760
v 13.749906 0.032833 37.499554
v 16.250000 0.000000 41.250000
v 13.733129 5.873756 38.719906
v 16.250021 0.001534 38.749992
v 13.749034 0.336425 41.253937
vt 0.343856 0.719104
vt 0.352363 0.699166
vt 0.337074 0.769237
vt 0.334888 0.791173
vt 0.343951 0.777001
vt 0.349086 0.760114
vt 0.372722 0.745155
vt 0.360656 0.748502
vt 0.383749 0.656799
vt 0.381814 0.708744
vt 0.350694 0.746443
vt 0.354729 0.752483
vt 0.342553 0.736207
vt 0.378876 0.729254
vt 0.383749 0.740281
vt 0.333968 0.726752
vn 0.1349 0.2044 0.9695
vn 0.1750 0.2364 -0.9558
vn 0.6877 0.3080 0.6574
vn -0.6532 0.2830 -0.7024
vn -0.9755 0.2009 -0.0894
vn 0.6909 0.5488 -0.4707
vn 0.6506 0.3932 -0.6497
vn 0.9594 0.2497 -0.1309
vn -0.6751 0.2477 0.6949
usemtl Material
s off
f 254/239/152 244/240/152 239/241/152 245/242/152
f 252/243/153 246/244/153 241/245/153 250/246/153
f 244/240/154 251/247/154 243/248/154 239/241/154
f 249/249/155 252/243/155 250/246/155 242/250/155
f 240/251/156 245/242/156 252/243/156 249/249/156
f 245/242/157 239/241/157 246/244/157 252/243/157
f 246/244/158 253/252/158 248/253/158 241/245/158
f 239/241/159 243/248/159 253/252/159 246/244/159
f 247/254/160 254/239/160 245/242/160 240/251/160
